/* XPM */
static char *result[] = {
/* columns rows colors chars-per-pixel */
"64 64 128 2 ",
"   c black",
".  c #0F040A",
"X  c #150508",
"o  c #1F1106",
"O  c #0E1A11",
"+  c #112016",
"@  c #132418",
"#  c #16291C",
"$  c #1C3524",
"%  c #603313",
"&  c #561722",
"*  c #611A26",
"=  c #6C1D2A",
"-  c #402223",
";  c #4A2326",
":  c #7B2D27",
">  c #23412C",
",  c #344D27",
"<  c #264831",
"1  c #2B5137",
"2  c #2D563A",
"3  c #2E593C",
"4  c #305B3D",
"5  c #3B5939",
"6  c #72421A",
"7  c #781D4F",
"8  c #366444",
"9  c #376846",
"0  c #396947",
"q  c #3A6D49",
"w  c #3D734E",
"e  c #3F7750",
"r  c #3F7851",
"t  c #477342",
"y  c #487442",
"u  c #42754A",
"i  c #477B4E",
"p  c #527D43",
"a  c #407750",
"s  c #427D54",
"d  c #812334",
"f  c #913430",
"g  c #CA3B3F",
"h  c #D03D3E",
"j  c #945623",
"k  c #9F5520",
"l  c #B55B29",
"z  c #BF6626",
"x  c #C9413F",
"c  c #DE423B",
"v  c #D24C3D",
"b  c #CC513E",
"n  c #D65C3C",
"m  c #E64539",
"M  c #E24B3A",
"N  c #E94D38",
"B  c #ED5A37",
"V  c #EC5638",
"C  c #EA5938",
"Z  c #EE6D37",
"A  c #E0673A",
"S  c #E76938",
"D  c #F26736",
"F  c #F56D36",
"G  c #EB7337",
"H  c #EE7B37",
"J  c #EB7238",
"K  c #F27536",
"L  c #F57E35",
"P  c #F87935",
"I  c #85214C",
"U  c #8B244B",
"Y  c #882A4B",
"T  c #92264A",
"R  c #AD2F45",
"E  c #B43244",
"W  c #BB3442",
"Q  c #B73A43",
"!  c #C23741",
"~  c #C23840",
"^  c #9F7964",
"/  c #C14541",
"(  c #E95446",
")  c #F2714A",
"_  c #EC6453",
"`  c #EF7360",
"'  c #598746",
"]  c #448156",
"[  c #488457",
"{  c #468559",
"}  c #48875B",
"|  c #47885B",
" . c #498B5D",
".. c #518650",
"X. c #568D53",
"o. c #5B9152",
"O. c #54945C",
"+. c #57995F",
"@. c #5C9C5D",
"#. c #639953",
"$. c #619F5C",
"%. c #67A157",
"&. c #6DA354",
"*. c #64A15B",
"=. c #69A55A",
"-. c #6FA958",
";. c #75AC56",
":. c #7AB055",
">. c #4C8E60",
",. c #4D9262",
"<. c #539660",
"1. c #559860",
"2. c #FC8334",
"3. c #FF8933",
"4. c #BF8E72",
"5. c #BF9278",
"6. c #FB9256",
"7. c #FF9E5D",
"8. c #F2836D",
"9. c #FA986B",
"0. c #F5947A",
"q. c #FFA56A",
"w. c #F9A287",
"e. c #F5A888",
"r. c #F5AF96",
"t. c #FBB294",
"y. c #FFBB94",
"u. c #FFC2A1",
/* pixels */
",.,.,.,.,.,.,.,.,.,.,.,.,.,.,.,.,.,.,.,.,.,.,.| s ,.,.,.,.,.,.,.,.,.,.,.,.,.,.,.,.,.,.,.,.,.,.,.,.,.,.,.,.,.,.,.,.,.,.,.,.,.,.,.",
",.,.,.,.,.,.,.,.,.,.,.,.,.,.,.,.,.,.,.,.,.,.,.>. .,.,.,.,.,.,.,.,.,.,.,.,.,.,.,.,.,.,.,.,.,.,.,.,.,.,.,.,.,.,.,.,.,.,.,.,.,.,.,.",
",.,.,.,.,.,.,.,.,.,.,.,.,.,.,.,.,.,.,.,.,.,.,.,.,.,.,.,.,.,.,.,.,.,.,.,.,.,.,.,.,.,.,.,.,.,.,.,.,.,.,.,.,.,.,.,.,.,.,.,.,.,.,.,.",
",.,.,.,.,.,.,.,.,.,.,.,.,.,.,.,.,.,.,.,.,.,.,.,.,.,.,.,.,.@.O.,.,.,.,.,.,.,.,.,.,.,.,.,.,.,.,.,.,.,.,.,.,.,.,.,.,.,.,.,.,.,.,.,.",
",.,.,.,.,.,.,.,.,.,.,.,.,.,.,.,.,.,.,.,.,.,.,.,.,.,.,.,.<.-.@.<.,.,.,.,.,.,.,.,.,.,.,.,.,.,.,.,.,.,.,.,.,.,.,.,.,.,.,.,.,.,.,.,.",
",.,.,.,.,.,.,.,.,.,.,.,.,.,.,.,.,.,.,.,.,.,.,.,.,.,.,.,.;.:.@.,.,.,.,.,.,.,.,.,.,.,.,.,.,.,.,.,.,.,.,.,.,.,.,.,.,.,.,.,.,.,.,.,.",
",.,.,.,.,.,.,.,.,.,.,.,.,.,.,.,.,.,.,.,.,.,.,.,.+.;.,.,.;.:.@.,.,.,.,.,.,.,.,.,.,.*.=.,.,.,.,.,.,.,.,.,.,.,.,.,.,.,.,.,.,.,.,.,.",
",.,.,.,.,.,.,.,.,.,.,.,.,.,.,.,.,.,.,.,.,.,.,.,.+.:.-.s ;.@.,.,.,.,.,.,.,.,.,.,.,.*.=.,.,.,.,.,.,.,.,.,.,.,.,.,.,.,.,.,.,.,.,.,.",
",.,.,.,.,.,.,.,.,.,.,.,.,.,.,.,.,.,.,.,.,.,.,.,.O.#.:.o.o.O.,.,.,.,.,.,.,.,.,.@.1.*.=.,.,.,.,.,.,.,.,.,.,.,.,.,.,.,.,.,.,.,.,.,.",
",.,.,.,.,.,.,.,.,.,.,.,.,.,.,.,.,.,.,.,.,.,.,.,.>.s #.#.]  .,.,.,.,.,.,.,.,.,.-.@.*.=.,.,.,.,.,.,.,.,.,.,.,.,.,.,.,.,.,.,.,.,.,.",
",.,.,.,.,.,.,.,.,.,.,.,.,.,.,.,.,.,.,.,.,.,.,.,.>.>.a a >.,.,.,.,.,.,.,.,.,.,.-.@.*.*.,.,.,.,.,.,.,.,.,.,.,.,.,.,.,.,.,.,.,.,.,.",
",.,.,.,.,.,.,.,.,.,.,.,.,.,.,.,.,.,.,.,.,.,.,.,.,.,.,.,.,.,.,.,.,.,.,.,.,.,.,.-.@.,.,.,.,.,.,.,.,.,.,.,.,.,.,.,.,.,.,.,.,.,.,.,.",
",.,.,.,.,.,.,.,.,.,.,.,.,.,.,.,.,.,.,.,.,.,.,.,.,.,.,.,.,.,.,.,.,.,.,.,.,.,.,.,.<.,.,.,.,.,.,.,.,.,.,.,.,.,.,.,.,.,.,.,.,.,.,.,.",
",.,.,.,.,.,.,.,.,.,.,.,.,.,.,.,.,.,.,.,.,.,.,.,.,.,.,.,.,.,.,.,.,.,.,.,.,.,.,.>.,.,.,.,.,.,.,.,.,.,.,.,.,.,.,.,.,.,.,.,.,.,.,.,.",
",.,.,.,.,.,.,.,.,.,.,.,.,.,.,.,.,.,.,.,.,.,.,.,.,.,.,.,.,.,.,.,.,.,.,.,.,.,.| >.,.,.,.,.,.,.,.,.,.,.,.,.,.,.,.,.,.,.,.,.,.,.,.,.",
",.,.,.,.,.,.,.,.,.,.,.,.,.,.,.,.,.,.,.,.,.,.,.,.,.,.,.,.,.,.,.,.,.,.,.,.,. .s | >.,.,.,.,.,.,.,.,.,.,.,.,.,.,.,.,.,.,.,.,.,.,.,.",
",.,.,.,.,.,.,.,.,.,.,.,.,.,.,.,.,.,.,.,.,.,.,.,.,.,.,.,.,.,.,.,.,.,.,.,.,.a  .s  .,.,.,.,.,.,.,.,.,.,.,.,.,.,.,.,.,.,.,.,.,.,.,.",
",.,.,.,.,.,.,.,.,.,.,.,.,.,.,.,.,.,.,.,.,.,.,.,.,.<.,.,.,.,.,.,.,.,.,.,.,.,.e  .,.,.,.,.,.,.,.,.,.,.,.,.,.,.,.,.,.,.,.,.,.,.,.,.",
",.,.,.,.,.,.,.,.,.,.,.,.,.,.,.,.,.,.,.,.,.,.9 8 4 4 4 4 4 4 4 4 4 4 4 4 4 4 2 3 4 4 4 e ,.,.,.,.,.,.,.,.,.,.,.,.,.,.,.,.,.,.,.,.",
",.,.,.,.,.,.,.,.,.,.,.,.,.,.,.,.,.,.,.,.,.,.@                                         < ,.,.,.,.,.,.,.,.,.,.,.,.,.,.,.,.,.,.,.,.",
",.,.,.,.,.,.,.,.,.,.,.,.,.,.,.,.,.,.,.,.q @ j z z z z z z z z z 5.5.5.5.4.z z z f d d ; @ ] ,.,.,.,.,.,.,.,.,.,.,.,.,.,.,.,.,.,.",
",.,.,.,.,.,.,.,.,.,.,.,.,.,.,.,.,.,.,.] 5 o l L L L L L L L L L r.r.r.r.e.2.L L b Q R * X q | ,.,.,.,.,.,.,.,.,.,.,.,.,.,.,.,.,.",
",.,.,.,.,.,.,.,.,.,.,.,.,.,.,.,.,.,.s   % 3./ R R R R R R R R R R R R R R R R R J L R R R X @ ,.,.,.,.,.,.,.,.,.,.,.,.,.,.,.,.,.",
",.,.-.$.,.,.,.,.,.,.,.,.,.,.,.,.,.,.s   % 3.v ! ~ ~ ~ ~ ~ ~ ~ ~ ! ! ! ! ! ! W R J L R R R X @ ,.,.,.,.,.,.,.,.,.,.,.,.,.,.,.1.:.",
",.,.-.@.,.,.,.,.,.,.,.,.,.,.,.,.,.,.s   % 3.V m m m m m m m m m N m m m m m g R G 2.R R R X @  .,.,.,.,.,.,.,.,.,.,.,.,.@.=.1.:.",
",.,.-.@.@.@.,.,.,.,.,.,.,.,.,.,.,.>.a   % 3.V m m h W Z F m g W w.8.m m m m h R G 2.J J J o +  .,.,.,.,.,.,.,.,.,.,.,.,.@.-.<.:.",
",.,.-.$.*.=.,.,.,.,.,.,.,.,.,.,.,. .e   % 3.V m m g R L L N x Q u.0.m m m m h R G 3.H H H o + | ,.,.,.,.,.,.,.,.,.,.,.,.@.-.,.=.",
",.,.=.1.*.=.,.,.,.,.,.,.,.,.,.,. . .w   % 3.V m m g R L 3.3.3.3.u.0.m m m m h R G H 7 7 7 . + | >.,.,.,.,.,.,.,.,.,.,.,.@.=.,.,.",
",.,.,.,.*.=.,.,.,.,.,.,.,.,.,.,.,. .w   % 3.V c g v n 2.3.3.3.3.q.9.8.( m m h R G H U T T X O |  .>.,.,.,.,.,.,.,.,.,.,.,.,.,.,.",
",.,.,.,.,.,.,.,.,.,.,.,.,.,.,.,. . .w   % 3.V c R n 3.3.3.3.3.3.3.7.u._ m m h R G L R R R X + { >.>.,.,.,.,.,.,.,.,.,.,.,.,.,.,.",
",.,.,.,.,.,.,.,.,.,.,.,.,.,.,.,. . .w   % 3.V m R n 3.3.P N g Q 3.7.u._ m m h R G L R R R X + {  .,.,.,.,.,.,.,.,.,.,.,.,.,.,.,.",
",.,.,.,.,.,.,.,.,.,.,.,.,.@.@.,.>. .q   % 3.V c R n 3.3.P m ! E L 6.t._ m m h R J 2.Q Q Q X + |  .@.1.,.,.,.,.,.,.,.,.,.,.,.,.,.",
",.,.,.,.,.,.,.,.,.,.,.,.1.*.*.1. .| w   % 3.V c R n 3.3.P m m m m m m m m m h R G 3.3.3.3.o + | O.$.*.+.,.,.,.,.,.,.,.,.,.,.,.,.",
",.,.,.,.,.,.,.,.,.,.,.,.*.*.*.*.,.| w   % 3.V c R n 3.3.P D D D D ) 8.( m m h R G 3.3.3.3.o + { #.@.*.$.,.,.,.,.,.,.,.,.,.,.,.,.",
",.,.,.,.,.,.,.,.,.,.,.,.<.*.=.,. . .q   % 3.V m R n 3.3.3.3.3.3.3.7.u._ m m h R G 3.3.3.3.o + |  .%.*.,.,.,.,.,.,.,.,.,.,.,.,.,.",
",.,.,.,.,.,.,.,.,.,.,.,.,.,.,.,.>. .w   % 3.V m c N N N N N / W 3.7.u._ m m h R J H Y Y Y . + ]  .>.,.,.,.,.,.,.,.,.,.,.,.,.,.,.",
",.,.,.,.,.,.,.,.,.,.,.,.,.,.,.,. . .q   % 3.V m h M V V V m ! R 3.7.u._ m m h R G H I I I X + {  .,.,.,.,.,.,.,.,.,.,.,.,.,.,.,.",
",.,.,.,.,.,.,.,.,.,.,.,.,.,.,.,.>. .w   % 3.V c R n 3.3.P m ! R 3.7.u._ m m h R J L R R R X + {  .,.,.,.,.,.,.,.,.,.,.,.,.,.,.,.",
",.,.,.,.,.,.,.,.,.,.,.,.,.,.,.,.>.| w   % 3.V c R n 3.3.2.K S A 3.7.u._ m m g E G L U U U X + {  .,.,.,.,.,.,.,.,.,.,.,.,.,.,.,.",
",.<.<.<.,.,.,.,.,.,.,.,.,.,.,.>.>. .w   % 3.V c R n 3.3.3.3.3.3.3.7.u._ m m g R J G 7 7 7 . + {  .,.,.,.,.,.,.,.,.,.,.,.,.,.,.,.",
",.-.:.@.,.,.,.,.,.,.,.,.,.,.,.,.>.} w   % 3.V m m ~ W L 3.3.3.3.y.0.( N m m h R J H 7 7 7 . + {  .>.,.,.,.,.,.,.,.,.,.,.,.,.,.,.",
",.,.-.:.*.@.:.;.,.,.,.,.,.,.,.,.>. .w   % 3.V m N ~ E 2.2.P K J u.0.m m m m h R J H I I I X + ]  .,.,.,.,.,.,.,.,.,.,.,.,.,.,.,.",
",.,.1.-.;.;.;.1.,.,.,.,.,.,.,.,.>.| w   % 3.V m m ~ R L P m ! E u.0.m m m m h R G L R R R X + |  .,.,.,.,.,.,.-.;.+.,.,.,.,.,.,.",
",.,.,.O.%.&.o.,.,.,.,.,.,.,.,.,.>. .q   % 3.V m m m ~ C B m c ~ ` _ m m m m h R G L R R R X + ]  .,.,.,.,.,.,.*.;.=.<.+.*.@.,.,.",
",.,.,.s ..X.{ ,.,.,.,.,.,.,.,.,.>.| w   % 3.B m m m m m m m m m m m m m m m h R G L R R R X + |  .>.,.,.,.,.,.,.*.:.=.-.;.*.,.,.",
",.,.,.s a { ,.,.,.,.,.,.,.,.,.,.>. .] e >   z 3.3.3.3.3.3.3.3.3.u.u.u.u.y.3.3.3./ R R &   8 a | >.,.,.,.,.,.,.,.,.%.;.;.*.,.,.,.",
",.,.,.,.,.,.,.,.,.,.,.,.,.,.,.,.>. .] e 2 # 6 k k k k k k k k k ^ ^ ^ ^ ^ k k k : = = - # q s |  .>.,.,.,.,.,.,.,.a #.o.s ,.,.,.",
",.,.,.,.,.,.,.,.,.,.,.,.,.,.,.,.>. .| e w q O                                         $ q w ] } >.,.,.,.,.,.,.,.,.s u [ ,.,.,.,.",
",.,.,.,.,.,.,.,.,.,.,.,.,.,.,.,.>. .} s w w 1 > > > > > , > > > > > > > > > > > > > > 2 w a ] }  .,.,.,.,.,.,.,.,.>. .>.>.,.,.,.",
",.,.,.,.,.,.,.,.,.,.,.,.,.,.,.,.,. . .] s w w q 0 9 0 t y y t 8 9 0 9 9 9 9 9 0 0 0 q w e s |  .,.,.,.,.,.,.,.,.,.,.,.,.,.,.,.,.",
",.,.,.,.,.,.,.,.,.,.,.,.,.,.,.,.,.,. . .] s w w w q q p u p u q q q 0 q q q q q q w w e s {  .>.,.,.,.,.,.,.,.,.,.,.,.,.,.,.,.,.",
",.,.,.,.,.,.,.,.,.,.,.,.,.,.,.,.,.,.,. . .] s a w e w w ' i w e e e e e e e e e w e s s { | >.>.,.,.,.,.,.,.,.,.,.,.,.,.,.,.,.,.",
",.,.,.,.,.,.,.,.,.,.,.,.,.,.,.,.,.,.>. . . .| ] ] ] ] s ] s s s r r ] ] s s s s ] ] ] |  .>.,.,.,.,.,.,.,.,.,.,.,.,.,.,.,.,.,.,.",
",.,.,.,.,.,.,.,.,.,.,.,.,.,.,.,.,.,.,.,.,. . . .| | | | | | | | >.| | |  .} u { |  . . .,.,.,.,.,.,.,.,.,.,.,.,.,.,.,.,.,.,.,.,.",
",.,.,.,.,.,.,.,.,.,.,.,.,.,.,.,.,.,.,.,.,.,.,.,. .>. .>. .>. .>.>.>.>.>.>.a { a |  .>.,.,.,.,.,.,.,.,.,.,.,.,.,.,.,.,.,.,.,.,.,.",
",.,.,.,.,.,.,.,.,.,.,.,.,.,.,.,.,.,.,.,.,.,.,.,.,.,.,.,.,.,.,.,.>.,.>.,.,.] { {  .,.,.,.,.,.,.,.,.,.,.,.,.,.,.,.,.,.,.,.,.,.,.,.",
",.,.,.,.,.,.,.,.,.,.,.,.,.,.,.,.,.,.,.,.,.,.,.,.,.,.,.,.,.,.,.,.,.,.,.,.,.,.s  .,.,.,.,.,.,.,.,.,.,.,.,.,.,.,.,.,.,.,.,.,.,.,.,.",
",.,.<.,.,.,.,.,.,.,.,.,.,.,.,.,.,.,.,.,.,.,.,.,.,.,.,.,.,.,.,.,.,.,.,.,.,.,.,.,.,.,.,.,.,.,.,.,.,.,.,.,.,.,.,.,.,.,.,.,.,.,.,.,.",
",.,.,.,.,.,.,.,.,.,.,.,.,.,.,.,.,.,.,.,.,.,.,.,.,.,.,.,.,.,.,.,.,.,.,.,.,.,.,.,.,.,.,.,.,.,.,.,.,.,.,.,.,.,.,.,.,.,.,.,.,.,.,.,.",
",.,.,.,.,.,.,.,.,.,.,.,.,.,.,.,.,.,.,.,.,.,.,.,.,.,.,.,.,.,.,.,.@.*.,.,.,.,.,.,.,.,.,.,.,.,.,.,.,.,.,.,.,.,.,.,.,.,.,.,.,.,.,.,.",
",.,.,.,.,.,.,.,.,.,.,.,.,.,.,.,.,.,.,.,.,.,.,.,.,.,.,.,.,.,.,.,.*.;.$.,.,.,.,.,.,.,.,.,.,.,.,.,.,.,.,.,.,.,.,.,.,.,.,.,.,.,.,.,.",
",.,.,.,.,.,.,.,.,.,.,.,.,.,.,.,.,.,.,.,.@.<.,.,.,.,.,.,.,.,.,.,.*.:.-.,.,.@.<.,.,.,.,.,.,.,.,.,.,.,.,.,.,.,.,.,.,.,.,.,.,.,.,.,.",
",.,.,.,.,.,.,.,.,.,.,.,.,.,.,.,.,.,.,.,.-.@.,.,.,.,.,.,.,.,.,.,.@.;.&. .1.:.<.,.,.,.,.,.,.,.,.,.,.,.,.,.,.,.,.,.,.,.,.,.,.,.,.,.",
",.,.,.,.,.,.,.,.,.,.,.,.,.,.,.,.,.,.,.,.-.@.,.,.,.,.,.,.,.,.,.,.,.@.&.s :.:.<.,.,.,.,.,.,.,.,.,.,.,.,.,.,.,.,.,.,.,.,.,.,.,.,.,."
};
