/* XPM */
static char *fd788783fd6a4cf0a0d6ede26235b9e93GfFQNziH9PSBClK[] = {
/* columns rows colors chars-per-pixel */
"64 64 120 2 ",
"   c #000000",
".  c #07080A",
"X  c #080A0D",
"o  c #0B0D10",
"O  c #0D1014",
"+  c #1C3524",
"@  c #1F3A27",
"#  c #203A27",
"$  c #203D29",
"%  c #212732",
"&  c #23412C",
"*  c #254630",
"=  c #274A32",
"-  c #294C34",
";  c #2B5136",
":  c #2D5439",
">  c #2E583C",
",  c #315D3E",
"<  c #333C4C",
"1  c #335E40",
"2  c #374050",
"3  c #3D475A",
"4  c #3F4A5D",
"5  c #356443",
"6  c #386746",
"7  c #376846",
"8  c #396947",
"9  c #3A6C49",
"0  c #3C724C",
"q  c #3F7750",
"w  c #3F7951",
"e  c #444E5E",
"r  c #467B4F",
"t  c #4C7E4A",
"y  c #407750",
"u  c #427C53",
"i  c #48735D",
"p  c #434F65",
"a  c #455269",
"s  c #48556C",
"d  c #565F6D",
"f  c #4E5A71",
"g  c #525F77",
"h  c #497F61",
"j  c #566177",
"k  c #54617A",
"l  c #5C677D",
"z  c #63677B",
"x  c #56894C",
"c  c #598849",
"v  c #448257",
"b  c #4C8756",
"n  c #468359",
"m  c #48875C",
"M  c #498B5D",
"N  c #558E54",
"B  c #598F52",
"V  c #5D9251",
"C  c #5E9956",
"Z  c #53935C",
"A  c #58965A",
"S  c #55985F",
"D  c #5C9C5D",
"F  c #64954D",
"G  c #69994D",
"H  c #609552",
"J  c #649A53",
"K  c #629F5B",
"L  c #6CA355",
"P  c #64A15B",
"I  c #6AA55A",
"U  c #6FA958",
"Y  c #70A451",
"T  c #74AB55",
"R  c #7AAF55",
"E  c #7AB055",
"W  c #4C8F60",
"Q  c #53896A",
"!  c #4D9262",
"~  c #539660",
"^  c #54936C",
"/  c #5C9375",
"(  c #596782",
")  c #5D6A81",
"_  c #5F6D89",
"`  c #616D84",
"'  c #65728A",
"]  c #697488",
"[  c #777D8D",
"{  c #787E8D",
"}  c #647391",
"|  c #697690",
" . c #6D7A94",
".. c #6F7F9E",
"X. c #747F94",
"o. c #669384",
"O. c #6A9388",
"+. c #758095",
"@. c #7D8493",
"#. c #76839C",
"$. c #719392",
"%. c #7685A3",
"&. c #7F8CA6",
"*. c #7D8BA8",
"=. c #818BA0",
"-. c #8090A5",
";. c #8094A5",
":. c #8391AD",
">. c #8895AF",
",. c #8A97B1",
"<. c #8C99B1",
"1. c #919DB5",
"2. c #939FB7",
"3. c #99A4B8",
"4. c #9BA6BC",
"5. c #A2ACBF",
"6. c #A4AEC2",
"7. c #A5AFC2",
"8. c #A6B0C3",
"9. c #A6B0C4",
/* pixels */
"! ! ! ! ! ! ! ! ! ! ! ! ! ! ! ! ! ! ! ! ! ! ! W u W ! ! ! ! ! ! ! ! ! ! ! ! ! ! ! ! ! ! ! ! ! ! ! ! ! ! ! ! ! ! ! ! ! ! ! ! ! ! ",
"! ! ! ! ! ! ! ! ! ! ! ! ! ! ! ! ! ! ! ! ! ! ! ! W W ! ! ! ! ! ! ! ! ! ! ! ! ! ! ! ! ! ! ! ! ! ! ! ! ! ! ! ! ! ! ! ! ! ! ! ! ! ! ",
"! ! ! ! ! ! ! ! ! ! ! ! ! ! ! ! ! ! ! ! ! ! ! ! ! ! ! ! ! ! ! ! ! ! ! ! ! ! ! ! ! ! ! ! ! ! ! ! ! ! ! ! ! ! ! ! ! ! ! ! ! ! ! ! ",
"! ! ! ! ! ! ! ! ! ! ! ! ! ! ! ! ! ! ! ! ! ! ! ! ! ! ! ! ! K ~ ! ! ! ! ! ! ! ! ! ! ! ! ! ! ! ! ! ! ! ! ! ! ! ! ! ! ! ! ! ! ! ! ! ",
"! ! ! ! ! ! ! ! ! ! ! ! ! ! ! ! ! ! ! ! ! ! ! ! ! ! ! ! ~ U ~ ~ ! ! ! ! ! ! ! ! ! ! ! ! ! ! ! ! ! ! ! ! ! ! ! ! ! ! ! ! ! ! ! ! ",
"! ! ! ! ! ! ! ! ! ! ! ! ! ! ! ! ! ! ! ! ! ! ! ! ! ! ! ! T R K ! ! ! ! ! ! ! ! ! ! ! ! ! ! ! ! ! ! ! ! ! ! ! ! ! ! ! ! ! ! ! ! ! ",
"! ! ! ! ! ! ! ! ! ! ! ! ! ! ! ! ! ! ! ! ! ! ! ! ~ T ! ! T R ~ ! ! ! ! ! ! ! ! ! ! P I ! ! ! ! ! ! ! ! ! ! ! ! ! ! ! ! ! ! ! ! ! ",
"! ! ! ! ! ! ! ! ! ! ! ! ! ! ! ! ! ! ! ! ! ! ! ! D R U u U P ~ ! ! ! ! ! ! ! ! ! ! P I ! ! ! ! ! ! ! ! ! ! ! ! ! ! ! ! ! ! ! ! ! ",
"! ! ! ! ! ! ! ! ! ! ! ! ! ! ! ! ! ! ! ! ! ! ! ! Z H R V V W ! ! ! ! ! ! ! ! ! K ~ P I ! ! ! ! ! ! ! ! ! ! ! ! ! ! ! ! ! ! ! ! ! ",
"~ ! ! ! ! ! ! ! ! ! ! ! ! ! ! ! ! ! ! ! ! ! ! ! M u J J v W ! ! ! ! ! ! ! ! ! U D P I ! ! ! ! ! ! ! ! ! ! ! ! ! ! ! ! ! ! ! ! ! ",
"! ! ! ! ! ! ! ! ! ! ! ! ! ! ! ! ! ! ! ! ! ! ! ! ! ! y y W ! ! ! ! ! ! ! ! ! ! U D K P ! ! ! ! ! ! ! ! ! ! ! ! ! ! ! ! ! ! ! ! ! ",
"! ! ! ! ! ! ! ! ! ! ! ! ! ! ! ! ! ! ! ! ! ! ! ! ! ! ! ! ! ! ! ! ! ! ! ! ! ! ! U D ! ! ! ! ! ! ! ! ! ! ! ! ! ! ! ! ! ! ! ! ! ! ! ",
"! ! ! ! ! ! ! ! ! ! ! ! ! ! ! ! ! ! ! ! ! ! ! ! ! ! ! o.O.O.O.O.O.O.O.O.o.! ! ! ! ! ! ! ! ! ! ! ! ! ! ! ! ! ! ! ! ! ! ! ! ! ! ! ",
"! ! ! ! ! ! ! ! ! ! ! ! ! ! ! ! ! ! ! ! ! ! ! ! ! ! ! ;.>.>.>.>.,.<.>.>.*.! ! ! ! ! ! ! ! ! ! ! ! ! ! ! ! ! ~ ! ! ! ! ! ! ! ! ! ",
"! ! ! ! ! ! ! ! ! ! ! ! ! ! ! ! ! ! ! ! ! ! ! ! W ~ M ;.>.>.>.>.,.>.>.>.*.! n ! ! ! ! ! ! ! ! ! ^ ! ! ! ! ! ! ! ! ! ! ! ! ! ! ! ",
"! ! ! ! ! ! ! ! ! ! ! ! ! ! ! ! ! ^ / / / / / / / Q h ;.>.>.>.>.,.,.>.>.=.W i ^ / / / / / / / ! ! ! ! ! ! ! ! ! ! ! ! ! ! ! ! ! ",
"! ! ! ! ! ! ! ! ! ! ! ! ! ! ! ! ! $.>.>.>.>.>.>.>.' p *.,.>.,.>.>.>.>.>.*.p ' >.>.>.>.>.>.>.$.! ! ! ! ! ! ! ! ! ! ! ! ! ! ! ! ! ",
"! ! ! ! ! ! ! ! ! ! ! ! ! ! ! ! ! $.>.>.>.>.>.>.>.' p <.4.4.4.4.4.4.4.4.<.p ' >.>.>.>.>.>.>.$.! ! ! ! ! ! ! ! ! ! ! ! ! ! ! ! ! ",
"! ! ! ! ! ! ! ! ! ! ! ! ! ! ! ! ! $.>.>.>.>.>.>.>.' p 4.6.9.9.9.9.9.9.9.3.p ' :.>.>.>.>.>.>.$.m ! ~ ! ! ! ! ! ! ! ! ! ! ! ! ! ! ",
"! ! ! ! ! ! a _ >.>.>.>.,.>.>.#.p  .>.>.>.>.>.>.>.' p } ..............#. .p ' >.>.>.>.>.>.>. .p *.=.2.*.>.>.>.>.( p ! ! ! ! ! ! ",
"! ! ! ! ! ! p l >.>.>.>.>.>.>.#.p #.2.2.2.2.2.2.2.| p ....#...............p } 3.3.3.1.1.3.2.#.p $.*.>.>.>.>.>.>.l p ! ! ! ! ! ! ",
"! ! ! ! ! ! p ) >.>.>.>.>.>.>.#.p =.9.9.8.8.9.8.6.X.p  ...........%.....} p  .9.6.6.9.9.9.9.*.p %.2.>.>.>.>.>.>.( a m ! ! ! ! ! ",
"! ! ! ! ! M p ) >.>.>.>.>.>.>.#.p | *.*.*.*.*.*.%._ p ....................p _ *.*.*.*.*.*.*.} p %.,.,.,.>.>.>.>.( a m ! ! ! ! ! ",
"! ! U D M M p ) <.<.<.<.<.<.,.%.p _ ........#.....( p ........#......... .p ( ......#......._ p %.<.<.<.,.<.<.<.l p W ! ! ! ~ E ",
"! ! U D M n p ] 8.8.9.9.9.9.9.,.p _ ............%.( p ..........%.........p ( ..........%..._ p ,.9.9.9.9.9.9.9.' a n M D P S E ",
"! ! U D A N p ) ,.,.,.,.,.,.,.%.p _ ..............a % < 2 2 2 2 2 < 2 2 < % s .............._ p %.,.,.*.,.,.>.*.l p v M D U S E ",
"! ! U D C V p k ..#.#.........} p _ ..#...#.......2                         < ....#........._ p } %.....%.%.%...k p n M P U ! P ",
"! ! P S C V p k ..............g X o O O O O O O O .                         o O O O O O O O o X k %.............k a v M D P ! ! ",
"! ! ! ! C H p k ..............g                                                                 g ..%...#.#.....k p v M ! ! ! ! ",
"! ! ! M M v p k ..............g                                                                 g %.....%.#.....k p v M m ! ! ! ",
"! ! ! ! m v p s ( g g ( ( g g 4                                                                 3 k g k k k k k a p n M ! ! ! ! ",
"! ! ! W m n p p p p p p p p p <                                                                 < p p p p p p p p p n M M ! ! ! ",
"! ! ! W W v p ' 9.9.7.6.9.7.6.@.                                                                @.7.9.9.7.7.9.7.} p n M ! ! ! ! ",
"! ! ! W m n p ( 2.<.2.2.2.,.3. .                                                                ] 2.<.2.2.2.2.1._ p u M ! ! ! ! ",
"! ! ! ! m v p ( ..............g                                                                 k ..%...........k p n m W ! ! ! ",
"! ! ! ! M v p g ....%.........g                                                                 g ..............k p n m ! ! ! ! ",
"! ! ! W W w p g ......%.....#.g                                                                 k ........#.....g p v M W ! ! ! ",
"! ! ! W W n p ( ..............g                                                                 k ..............k p v m W ! ! ! ",
"! ! ! W W w a g ..............g                                                                 k ..#...........k p v M W ! ! ! ",
"! S ! ! W u p ( ............#.k                                                                 g ............%.k p n m W ! ! ! ",
"! T R D m v p a s s s s s s s 2                                                                 2 s s s s s s s a p v M M ! ! ! ",
"! ! U T C N p s ) ( ( ) l l l e                                                                 e l ) ) l ) ( ( f p v M ! ! ! ! ",
"! ! S I L G p ] 9.9.9.9.9.9.9.@.                                                                @.6.9.9.9.9.9.9.' p n M ! ! ! ! ",
"! ! ! N F F p l :.:.:.*.:.:.:.`                                                                 ` :.*.>.>.*.*.*.( p b Z K D ! ! ",
"! ! ! u b x p g %.............g                                                                 k #.........%...g p V L U P ! ! ",
"! ! ! y 9 0 p g ..........#...g                                                                 k #.............k p G L P ! ! ! ",
"! ! ! W M v p g ......#.......k                                                                 f ....%.........k p c c q ! ! ! ",
"! ! ! W m n p k ..............g                                                                 k ..........#.#.k p 8 v W ! ! ! ",
"! ! ! ! M v p k #.....%.......f                                                                 g %.....%.......( p w m W ! ! ! ",
"! ! ! ! m v p g  . . . .' ....f   . .     .   . . . . .   . .   . .   . . .   . . .   . . .   . f  ...} } ....} f p v m W ! ! ! ",
"! ! ! ! M v p p p p p p p p p <                                                                 < p p p p p p p p p n m W ! ! ! ",
"! ! ! W M v p k  .#. .+.+.+. .f                                                                 d  .#. .X.X.X.X.g p n W ! ! ! ! ",
"! ! ! ! m v p ' 9.9.9.9.9.9.6.[                                                                 [ 4.6.8.9.9.9.9.' p v m W ! ! ! ",
"! ! ! W m v p l %.%.%.%.%.%.#.z                                                                 l #.%.%.%.%.%.%.k p v M W ! ! ! ",
"! ! ! W M v p k #...#....... .g                                                                 j  .........#...k a m m W ! ! ! ",
"! ! ! W m v w 0 7 7 7 5 7 5 > - * & $ $ @ @ @ @ # # $ $ $ # # # # # # # @ + + + # $ # # @ $ $ * - : , 5 5 8 7 7 0 w v m W ! ! ! ",
"! ! ! W W v w 0 9 9 9 7 7 5 1 > = * $ $ $ * $ * $ & & & & $ $ & & $ & & & & + @ @ & & * $ * * - ; > 5 7 7 7 9 0 0 w v M ! ! ! ! ",
"! ! ! W W v v w q 0 9 0 9 9 7 1 1 ; ; - - = - - - - - - - - - - - - - = - - - - = = - = - - ; : 5 5 7 9 9 0 0 0 w v M M W ! ! ! ",
"! ! ! ! W m v u w w q w w q 0 9 6 5 1 1 1 1 1 1 1 1 1 > 1 1 1 , 1 > , , , 1 1 , 1 1 1 1 1 5 1 5 8 0 0 q w w w w y n M M ! ! ! ! ",
"! ! ! ! ! M m v n v v v n v v w w q 9 q 0 0 9 9 0 q 0 0 0 0 0 9 t c 0 0 0 0 0 0 9 q 9 q w 9 q q u y v n n n v v n M M ! ! ! ! ! ",
"! ! ! ! ! W W W M m m W W m m n n n n n n u u n n u n n n n n n B G B n v n n v n y n u v n n n M M m M M m M m M M ! ! ! ! ! ! ",
"! ! ! ! ! ! W W ! W ! W W W W W W W W W A ~ W W W M W W M W W W C T L M M A W M W W ! W W W W W W W W W M ! ! ! ! W ! ! ! ! ! ! ",
"! ! ! ! ! ! ! ! ! ! ! ! ! ! W W ! ! ! ! U ~ ! ! W ! ! W ! ! W W D T L M S E ~ ! ! ! W W W ! ! ! ! ! ! ! ! ! ! ! ! ! ! ! ! ! ! ! ",
"! ! ! ! ! ! ! ! ! ! ! ! ! ! ! ! ! ! ! ~ U K ! ! ! ! ! ! ! ! ! ! ! D L r E E S ! ! ! ! ! ! ! ! ! ! ! ! ! ! ! ! ! ! ! ! ! ! ! ! ! "
};
