/* XPM */
static char *_6560cf7c75745d7acf100717a623dafeki366UYzqPtJ71R[] = {
/* columns rows colors chars-per-pixel */
"64 64 161 2 ",
"   c #060608",
".  c #130D0E",
"X  c #1C1111",
"o  c #1B1B1C",
"O  c #211413",
"+  c #331D1B",
"@  c #39201F",
"#  c #282122",
"$  c #272728",
"%  c #382827",
"&  c #322F30",
"*  c #313132",
"=  c #3B3B3B",
"-  c #442522",
";  c #4C2925",
":  c #422C2C",
">  c #502A27",
",  c #532D29",
"<  c #5C322D",
"1  c #462E30",
"2  c #553535",
"3  c #5A3635",
"4  c #573738",
"5  c #5B3A3A",
"6  c #60342F",
"7  c #643632",
"8  c #663833",
"9  c #6C3B36",
"0  c #315C3E",
"q  c #376745",
"w  c #376846",
"e  c #386A47",
"r  c #396B49",
"t  c #3B704B",
"y  c #3F7750",
"u  c #3F7851",
"i  c #454546",
"p  c #4E4048",
"a  c #4E4A59",
"s  c #554E5D",
"d  c #525252",
"f  c #5A5758",
"g  c #5B5B5C",
"h  c #6E4642",
"j  c #754F4B",
"k  c #7B5552",
"l  c #7C5954",
"z  c #467B4F",
"x  c #4D7F4B",
"c  c #407750",
"v  c #417B53",
"b  c #48735D",
"n  c #434F65",
"m  c #455269",
"M  c #48556C",
"N  c #555363",
"B  c #5B5361",
"V  c #5A586A",
"C  c #505D75",
"Z  c #5E5F74",
"A  c #645765",
"S  c #605C6B",
"D  c #497F61",
"F  c #566177",
"G  c #54617B",
"H  c #5C677D",
"J  c #636364",
"K  c #7C6361",
"L  c #706A6A",
"P  c #736E7D",
"I  c #717171",
"U  c #7B7B7B",
"Y  c #815E5B",
"T  c #846764",
"R  c #847776",
"E  c #8D7471",
"W  c #8E7F7D",
"Q  c #56894C",
"!  c #598849",
"~  c #448257",
"^  c #4C8756",
"/  c #458358",
"(  c #498A5D",
")  c #558E54",
"_  c #5D9251",
"`  c #5E9856",
"'  c #53935C",
"]  c #55985F",
"[  c #5C9C5D",
"{  c #64954D",
"}  c #699A4D",
"|  c #609552",
" . c #649A53",
".. c #619E5A",
"X. c #6CA355",
"o. c #64A15B",
"O. c #6AA55A",
"+. c #6FA958",
"@. c #70A451",
"#. c #74AB55",
"$. c #7AB055",
"%. c #4C8F60",
"&. c #53896A",
"*. c #4D9262",
"=. c #539660",
"-. c #54936C",
";. c #598D71",
":. c #5C9375",
">. c #596782",
",. c #5D6A81",
"<. c #5F6D89",
"1. c #616D86",
"2. c #6D6D84",
"3. c #65728A",
"4. c #687388",
"5. c #6B788E",
"6. c #75758B",
"7. c #647391",
"8. c #697690",
"9. c #6E7B93",
"0. c #6F7F9E",
"q. c #747F94",
"w. c #807D90",
"e. c #669384",
"r. c #6A9388",
"t. c #76839C",
"y. c #79869E",
"u. c #719392",
"i. c #7685A3",
"p. c #7F8CA6",
"a. c #7D8BA8",
"s. c #838383",
"d. c #8D8D8D",
"f. c #958280",
"g. c #948887",
"h. c #9D918F",
"j. c #868395",
"k. c gray58",
"l. c #989898",
"z. c #818BA0",
"x. c #8194A5",
"c. c #8391AD",
"v. c #8895AF",
"b. c #8D98AC",
"n. c #9792A0",
"m. c #9893A1",
"M. c #919BAC",
"N. c #8A97B1",
"B. c #8C99B1",
"V. c #929EB6",
"C. c #9FA7B6",
"Z. c #9BA6BB",
"A. c #A3A3A3",
"S. c #ADADAD",
"D. c #BCBCBC",
"F. c #A6B0C4",
"G. c #C1C1C1",
"H. c gray80",
"J. c gray84",
"K. c gray88",
"L. c white",
/* pixels */
"*.*.*.*.*.*.*.*.*.*.*.*.*.*.*.*.*.*.*.*.*.*.*.( v *.*.*.*.*.*.*.*.*.*.*.*.*.*.*.*.*.*.*.*.*.*.*.*.*.*.*.*.*.*.*.*.*.*.*.*.*.*.*.",
"*.*.*.*.*.*.*.*.*.*.*.*.*.*.*.*.*.*.*.*.*.*.*.*.%.%.*.*.*.*.*.*.*.*.*.*.*.*.*.*.*.*.*.*.*.*.*.*.*.*.*.*.*.*.*.*.*.*.*.*.*.*.*.*.",
"*.*.*.*.*.*.*.*.*.*.*.*.*.*.*.*.*.*.*.*.*.*.*.*.*.*.*.*.=.*.*.*.*.*.*.*.*.*.*.*.*.*.*.*.*.*.*.*.*.*.*.*.*.*.*.*.*.*.*.*.*.*.*.*.",
"*.*.*.*.*.*.*.*.*.*.*.*.*.*.*.*.*.*.*.*.*.*.*.*.*.*.*.*.=.=.=.*.*.*.*.*.*.*.*.*.*.*.*.*.*.*.*.*.*.*.*.*.*.*.*.*.*.*.*.*.*.*.*.*.",
"*.*.*.*.*.*.*.*.*.*.*.*.*.*.*.*.*.*.*.*.*.*.*.*.*.*.*.*.=.+.o.*.*.*.*.*.*.*.*.*.*.*.*.*.*.*.*.*.*.*.*.*.*.*.*.*.*.*.*.*.*.*.*.*.",
"*.*.*.*.*.*.*.*.*.*.*.*.*.*.*.*.*.*.*.*.*.*.*.*.*.*.*.*.#.$.=.*.*.*.*.*.*.*.*.*.*.*.*.*.*.*.*.*.*.*.*.*.*.*.*.*.*.*.*.*.*.*.*.*.",
"*.*.*.*.*.*.*.*.*.*.*.*.*.*.*.*.*.*.*.*.*.*.*.*.=.$.*.*.#.$.=.*.*.*.*.*.*.*.*.*.*.o.O.*.*.*.*.*.*.*.*.*.*.*.*.*.*.*.*.*.*.*.*.*.",
"*.*.*.*.*.*.*.*.*.*.*.*.*.*.*.*.*.*.*.*.*.*.*.*.=.$.+.v #...=.=.*.*.*.*.*.*.*.*.*.o.O.*.*.*.*.*.*.*.*.*.*.*.*.*.*.*.*.*.*.*.*.*.",
"*.*.*.*.*.*.*.*.*.*.*.*.*.*.*.*.*.*.*.*.*.*.*.*.' | $._ _ %.*.*.*.*.*.*.*.*.*.[ =.o.O.*.*.*.*.*.*.*.*.*.*.*.*.*.*.*.*.*.*.*.*.*.",
"*.*.*.*.*.*.*.*.*.*.*.*.*.*.*.*.*.*.*.*.*.*.*.*.( ~ |  .v %.*.*.*.*.*.*.*.*.*.+.[ o.O.*.*.*.*.*.*.*.*.*.*.*.*.*.*.*.*.*.*.*.*.*.",
"*.*.*.*.*.*.*.*.*.*.*.*.*.*.*.*.*.*.*.*.*.*.*.*.*.( c c %.-.*.*.*.*.*.*.*.*.*.+.[ o.o.*.*.*.*.*.*.*.*.*.*.*.*.*.*.*.*.*.*.*.*.*.",
"*.*.*.*.*.*.*.*.*.*.*.*.*.*.*.*.*.*.*.*.*.*.*.*.*.=.*.*.*.*.%.%.*.*.*.*.*.*.*.+.[ *.*.*.*.*.*.*.*.*.*.*.*.*.*.*.*.*.*.*.*.*.*.*.",
"*.*.*.*.*.*.*.*.*.*.*.*.*.*.*.*.*.*.*.*.*.*.*.*.*.*.*.e.u.r.r.r.r.r.r.r.e.*.*.*.*.*.*.*.*.*.*.*.*.*.*.*.*.*.*.*.*.*.*.*.*.*.*.*.",
"*.*.*.*.*.*.*.*.*.*.*.*.*.*.*.*.*.*.*.*.*.*.*.*.*.*.*.x.v.v.c.v.N.B.v.v.p.*.*.*.*.*.*.*.*.*.*.*.*.*.*.*.*.*.*.*.*.*.*.=.*.*.*.*.",
"*.*.*.*.*.*.*.*.*.*.*.*.*.*.*.*.*.*.*.*.*.*.*.*.*.%.*.x.v.v.v.v.v.v.v.v.p.*./ *.*.*.*.*.*.*.*.*.*.*.*.*.*.*.*.*.*.*.*.=.*.*.*.*.",
"*.*.*.*.*.*.*.*.*.*.*.*.*.*.*.*.*.-.:.:.:.:.:.:.:.&.D x.v.v.v.v.v.v.v.v.x.%.b ;.:.:.:.:.:.:.:.*.*.*.*.*.*.*.*.*.*.*.*.*.*.*.*.*.",
"*.*.*.*.*.*.*.*.*.*.*.*.*.*.*.*.*.u.v.v.v.v.v.v.v.3.n z.v.v.N.N.v.v.v.v.p.n 3.v.v.v.v.v.v.v.u.*.*.*.*.*.*.*.*.*.*.*.*.*.*.*.*.*.",
"*.*.*.*.*.*.*.*.*.*.*.*.=.*.*.*.*.u.v.v.v.v.v.v.v.3.n B.Z.Z.Z.Z.Z.Z.Z.Z.B.m 3.v.v.v.v.v.v.v.u.*.*.*.*.*.*.*.*.*.*.*.*.*.*.*.*.*.",
"*.*.*.*.*.*.*.*.*.*.*.*.*.*.*.%.%.u.v.v.v.v.v.v.v.3.m V.F.F.F.F.F.F.F.F.Z.n 3.v.v.v.v.v.v.v.u.%.*.-.*.*.*.*.*.*.*.*.*.*.*.*.*.*.",
"*.*.*.*.*.*.m 1.v.v.v.v.v.v.v.t.n q.v.v.v.v.v.v.v.3.m 8.0.0.0.0.0.0.0.i.8.n 3.v.v.v.v.v.v.v.9.n i.a.N.N.v.v.v.v.,.m *.*.*.*.*.*.",
"*.*.*.*.*.*.n H v.v.v.v.v.v.v.t.n q.V.Z.V.V.V.V.V.8.m 0.0.0.0.0.0.0.0.i.7.n 8.V.V.V.Z.V.V.V.t.n u.N.v.v.v.v.v.v.H n *.*.*.*.*.*.",
"*.*.*.*.*.*.n ,.v.v.v.v.v.v.v.t.n p.F.F.F.F.F.F.F.q.m 8.0.0.0.0.0.0.0.0.0.n q.F.F.F.F.F.F.F.z.n i.N.v.v.v.v.v.v.,.m ( *.*.*.*.*.",
"*.*.*.*.*.( n ,.v.v.v.v.v.v.N.0.n 8.a.a.a.a.a.a.a.1.m 8.0.0.0.0.0.0.0.0.7.n <.a.a.a.a.a.a.a.7.n t.v.v.v.v.v.v.v.,.n ( *.*.*.*.*.",
"*.*.+.[ ( ( n ,.B.N.N.b.V.N.N.y.n <.0.0.0.0.0.0.0.>.n 0.0.0.0.0.0.0.0.0.0.n >.0.0.0.0.0.0.0.<.n i.B.B.B.B.B.B.B.,.n ( ( *.*.=.$.",
"*.*.+.[ ( ( n 4.F.F.F.F.F.F.F.b.n <.0.0.0.0.0.0.0.<.n 0.0.0.0.0.0.0.0.0.9.n >.0.0.0.0.0.0.0.<.n B.F.F.F.F.F.F.F.3.m / ( [ O.=.$.",
"*.*.+.[ ) ) n 1.v.v.N.N.N.N.N.y.n <.0.0.0.0.0.0.0.Z p s B A A A S S A B B p Z 0.0.0.0.0.0.0.<.n i.N.N.a.N.N.N.a.H n ~ ( [ +.=.$.",
"*.*.+.[ ` _ n G 0.i.0.0.0.0.0.3.n 1.0.0.0.0.0.0.0.A , - - < < < < < < - - < A 0.0.0.0.0.0.0.<.n 7.i.0.0.i.i.i.0.G n ~ ( [ +.*.O.",
"*.*.O.] ` _ n G 0.0.0.0.0.0.0.1.2 5 5 5 2 1 4 5 5 2 < - - < < < , < , - - < 2 5 5 2 1 2 8 5 5 2 <.i.0.0.0.0.0.0.G m ~ ( [ o.*.*.",
"*.*.*.*.` _ n G 0.0.0.0.0.0.0.2.< < , < > - , 6 < < 7 ; > < 7 < < < < > - < 7 < < < - > < , , < 2.0.0.0.0.0.0.0.G n ~ ( %.*.*.*.",
"*.*.*.%.( ~ n G 0.0.0.0.0.0.0.2.< , < < ; - 7 9 9 9 9 < < 9 9 9 9 9 9 7 < 9 9 9 9 7 - ; < < < < 1.0.0.0.t.t.0.0.G n ~ ( %.*.*.*.",
"*.*.*.%.( ~ n M G G G G G G G V 7 8 7 7 < , 7 9 9 9 9 < 7 9 9 9 9 9 9 < 7 9 9 9 9 8 > 3 7 7 8 8 N G C G G G G G M n ~ ( %.*.*.*.",
"*.*.*.%.( ~ n n n n n n n n n s 9 9 9 9 7 < 9 9 9 9 9 7 < 9 9 9 9 9 9 7 < 9 9 9 9 8 < 8 9 9 9 9 a n n n n n n n n n ~ ( %.*.*.*.",
"*.*.*.%.( ~ n 3.F.F.F.F.F.F.F.C.d.d.g.S.W < 9 9 9 9 9 < -               . 9 9 9 9 8 6 7 9 9 9 9 m.F.F.F.F.F.F.F.5.n / %.%.*.*.*.",
"*.*.*.%.( ~ n <.B.V.V.V.V.V.B.M.d.k.k.S.W 6 8 9 9 9 9 - % $ = i i s J J f - 3 9 9 8 6 7 9 9 9 9 j.V.V.V.V.V.V.V.1.n v ( %.%.*.*.",
"*.*.*.*.( ~ n G i.0.0.0.i.0.0.t.d.A.S.S.W < 8 9 9 9 9 . o g d.S.S.H.L.L.K.  + 9 9 8 < 8 9 9 9 9 6.0.0.0.0.0.0.0.C n v %.%.*.*.*.",
"*.*.*.%.( ~ n G 0.0.0.0.0.0.0.6.j j Y k h < 9 9 9 ; o 1 g l.g & & = i I w.G.L O 6 8 < 8 9 9 9 9 2.0.0.0.0.0.0.0.>.n v %.%.%.*.*.",
"*.*.*.%.%.u m G 0.0.0.0.0.0.0.2.9 9 9 9 8 < 9 9 9 @   d I S.i         i L L.s.  6 8 < 8 9 9 9 9 2.0.0.0.0.0.0.i.G n v ( %.*.*.*.",
"*.*.*.%.%./ n G 0.0.0.0.0.0.0.2.9 9 9 9 8 < 8 9 9 %   d I S.i         i L L.s.  6 8 < 8 9 9 9 9 2.0.0.0.0.0.0.0.G n / ( *.*.*.*.",
"*.*.*.%.%.u n C 0.0.0.0.0.0.i.2.9 9 9 9 7 < 9 8 @ % * U k.S.U g g f f U d.J.S.s.: - < 9 9 E Y 9 2.0.0.0.0.0.0.0.G n ~ %.%.*.*.*.",
"*.*.=.*.%.v n >.0.0.i.0.0.0.0.2.9 9 9 9 8 < 8 6   * g A.S.S.S.S.S.S.S.S.S.S.J.L.$ X < 9 9 S.f.9 6.q.0.0.0.0.0.0.G n v %.%.*.*.*.",
"*.#.$.[ ( ~ n m m M M M M M M s 9 9 9 9 9 < 9 6   * g A.S.S.S.S.S.S.S.S.S.S.J.L.$ X < 7 9 S.f.9 a M M M M M M m m n ~ ( ( *.*.*.",
"*.*.+.#.` ) n M H H >.H H H H S 9 9 9 9 9 < 9 6   * g A.S.S.S.S.s.s.s.A.S.S.J.L.$ X < 7 9 S.f.9 S H H H H H H H C n ~ ( *.*.*.*.",
"*.*.] O.X.} n 4.F.F.F.F.F.F.F.n.9 9 9 9 8 < 8 6   * g A.S.S.S.S.      s.S.S.J.L.$ X < 7 9 S.f.9 m.F.F.F.F.F.F.F.3.n ~ ( %.*.*.*.",
"*.*.*.) } { n H c.c.c.c.c.c.c.w.9 9 9 9 8 < 8 6   * g A.S.S.S.S.      s.S.S.D.H.# X < 7 9 S.f.9 q.c.c.c.c.c.c.c.>.n ^ ' ....*.*.",
"*.*.*.v x x n G 0.0.0.0.0.0.0.2.9 9 9 9 8 < 8 6   * g A.S.S.S.S.      s.S.S.S.S.o X < 8 9 S.f.9 2.0.0.0.0.0.0.0.G n |  .+...*.*.",
"*.*.*.v t t n G 0.0.0.i.0.0.0.2.9 9 9 9 8 < 9 6   * g A.S.S.S.S.      s.S.S.S.S.o X < 7 9 S.f.9 2.0.0.0.0.0.i.0.G n } @...=.*.*.",
"*.*.*.%.( ~ n G 0.0.0.0.0.0.i.2.9 9 9 9 8 < 8 6   * g A.S.S.S.S.i i i d.S.S.S.S.o X < 7 9 f.T 9 2.0.i.0.0.0.0.0.G n ! ! v *.*.*.",
"*.*.*.%.( ~ n G 0.0.0.0.i.0.t.2.9 9 9 9 8 < 9 6   * g A.S.S.S.S.S.S.S.S.S.S.S.S.o X < 7 9 9 9 9 2.0.0.0.0.0.0.i.G n r v %.*.*.*.",
"*.*.*.*.( ~ n G 0.0.0.0.0.0.0.2.9 9 9 9 7 < 8 6   * g A.S.S.S.S.S.S.S.S.S.S.S.S.o X < 8 9 9 9 9 2.0.0.0.0.0.0.0.>.n v ( %.*.*.*.",
"*.*.*.*.( ~ n C 9.9.0.8.7.0.8.2.9 9 9 9 8 < 9 3 . & d d.l.l.l.l.l.l.l.l.l.l.l.l.# O < 8 9 9 9 9 2.9.8.0.8.0.0.8.C n ~ ( %.%.*.*.",
"*.*.*.%.( ~ n n n n n n n n n a 9 9 9 9 8 < 9 9 9 @                             6 8 < 8 9 9 9 9 a n m m n n n n n n b ( %.*.*.*.",
"*.*.*.%.( ~ n F 0.q.q.q.q.q.t.6.K K K E l < 8 9 9 , @ + + @ @ @ + - + + + + - + 8 8 3 9 9 9 9 9 P q.q.9.q.q.q.q.C m ~ ( %.*.*.*.",
"*.*.*.%.( ~ n 3.F.F.F.F.F.F.F.C.d.d.d.S.W < 9 9 9 9 9 6 6 9 9 9 9 9 9 7 6 9 9 9 9 8 6 8 9 9 9 9 n.F.F.F.F.F.F.F.4.n ~ ( %.*.*.*.",
"*.*.*.%.( ~ n H i.i.i.i.i.i.i.y.d.l.S.S.W < 9 9 9 9 9 6 6 9 9 9 9 9 9 6 6 9 9 9 9 8 < 7 9 9 9 9 2.i.i.i.i.i.i.i.H n ~ ( %.*.*.*.",
"*.*.*.%.( ~ n G 0.0.0.0.0.0.0.q.R g.h.h.T < 8 9 9 9 9 6 6 9 9 9 9 9 9 6 6 9 9 9 9 8 6 7 9 9 9 9 2.0.0.0.0.0.0.0.G n / ( %.*.*.*.",
"*.*.*.%.( ~ c t e e q q e q q q q e q q q e q e e e e q q q q q q q q q q 0 0 0 q q q q w w w w e q e q e q e e t u ~ ( %.*.*.*.",
"*.*.*.%.( ~ v t r r r r e e e e e e r e e e e e r r r r e r r r e e r r r r 0 w w e e e e e w w e w r r w w r r t u ~ ( %.*.*.*.",
"*.*.*.*.( ( v c t t t t t r t t t t t t t r t t r t r t r t r t r c t r r t t r t t t t t t t t r y r r r y r y u ~ ~ ( *.*.*.*.",
"*.*.*.%.*.( ~ v c c c u u u u u u u c c u u u u v c u u u u c c c c c c u u c c y y y y y u u u u u u u u u u u v ~ ( %.*.*.*.*.",
"*.*.*.*.%.( ( / ( ~ ~ ~ / ~ ~ ~ / / / ~ ~ ~ ~ ~ ~ ~ ~ ~ ~ ~ ~ ~ Q _ ~ ~ ~ ~ ~ ~ ~ ~ ~ ~ ~ ~ ~ ~ ~ / ~ / / / ~ v ( ( %.%.%.*.*.*.",
"*.*.*.*.*.%.( %.( ( ( ( ( ( ( ( ( ( ( ( ( ( ( ( ( ( %.( ( ( ( ( | X.` ( ( ( ( ( ( ( ( ( ( ( ( ( %.( ( ( %.( ( %.%.%.%.*.*.*.*.*.",
"*.*.*.*.*.*.*.%.%.*.( *.*.( %.%.*.*.*.( ] *.%.%.%.%.%.%.%.%.%.%...#.X.%.%.[ *.%.%.%.%.%.%.%.%.%.%.%.%.%.%.*.%.%.%.%.*.*.*.*.*.*.",
"*.*.*.*.*.*.*.*.*.*.*.*.*.*.*.*.*.*.*.*.@.[ *.*.*.%.*.*.*.*.*.*.[ +.X.( ] $.=.*.*.*.*.*.%.*.*.*.*.*.*.*.*.*.*.*.%.%.*.*.*.*.*.*.",
"*.*.*.*.*.*.*.*.*.*.*.*.*.*.*.*.*.*.*.*.+.[ *.*.*.*.*.*.*.*.*.*.*...X.z $.$.=.*.*.*.*.*.*.*.*.*.*.*.*.*.*.*.*.*.*.*.*.*.*.*.*.*."
};
