/* XPM */
static char *result[] = {
/* columns rows colors chars-per-pixel */
"64 64 98 2 ",
"   c black",
".  c #090503",
"X  c #0D0905",
"o  c #070E09",
"O  c #0C0E0A",
"+  c #130D09",
"@  c #1B0D0A",
"#  c #08100B",
"$  c #21110D",
"%  c #2A1B14",
"&  c #321E15",
"*  c #342319",
"=  c #3B271C",
"-  c #3D291C",
";  c #1D3323",
":  c #31292E",
">  c #3A2D2D",
",  c #203826",
"<  c #203B28",
"1  c #332A30",
"2  c #3C3030",
"3  c #422C1F",
"4  c #48311F",
"5  c #442E20",
"6  c #4D3524",
"7  c #503625",
"8  c #543A22",
"9  c #543B28",
"0  c #25462F",
"q  c #254630",
"w  c #274A31",
"e  c #2A4F35",
"r  c #2B5237",
"t  c #5D4024",
"y  c #5D412C",
"u  c #574030",
"i  c #60432D",
"p  c #6B4A2B",
"a  c #724F2D",
"s  c #72502E",
"d  c #725136",
"f  c #755338",
"g  c #765C3B",
"h  c #356544",
"j  c #376947",
"k  c #386A47",
"l  c #3A6E4A",
"z  c #3C724C",
"x  c #3F7750",
"c  c #3F7850",
"v  c #4B7E4C",
"b  c #437A53",
"n  c #487C50",
"m  c #477E58",
"M  c #487E58",
"N  c #58607B",
"B  c #875E32",
"V  c #8E7348",
"C  c #4C804D",
"Z  c #54844B",
"A  c #54884C",
"S  c #448257",
"D  c #4B8656",
"F  c #468559",
"G  c #48875B",
"H  c #488A5C",
"J  c #548C52",
"K  c #569257",
"L  c #5D9453",
"P  c #5E9856",
"I  c #53935C",
"U  c #589558",
"Y  c #5B9B5C",
"T  c #608C49",
"R  c #63954C",
"E  c #65984F",
"W  c #69984B",
"Q  c #649D55",
"!  c #609E5B",
"~  c #6CA253",
"^  c #63A15B",
"/  c #6CA658",
"(  c #6FA858",
")  c #71A450",
"_  c #72AA56",
"`  c #7AAF55",
"'  c #7AB055",
"]  c #4C8F60",
"[  c #518C6C",
"{  c #4D9262",
"}  c #529560",
"|  c #BC843D",
" . c #D99945",
".. c #DBA04D",
"X. c #E3BB68",
"o. c #E9CE7C",
"O. c #677598",
"+. c None",
/* pixels */
"{ { { { { { { { { { { { { { { { { { { { { { { ] b ] ] ] { { { { { { { { { { { { { { { { { { } ] } { { { { { { { { { { { { { { { ",
"{ { { { { { { { { { { { { { { { ] } { { { { { ] ] ] { { { { { { { { { { { { { { { { { { { { { { [ { { { { { { { { { { { { { } { ",
"{ { { { { { { { { { { { { { { { { { } ] { { { { { { { { { { { { { { { { { { { { { { { { { { { { { { { { { { { ] { { { { { { { { ",
"{ { { { { { { { { { { { { { { { { { { ] { { { { { { { { } Y } [ { { { { { { { { { { { { { { { { { { { { { { { ] { { { { { { { { ",
"{ { { { { { [ [ [ M b b b b b b b b b b b b b b b b b b n T v n b n b b b b b b b b b b b b b b b b b b b b M [ [ [ { { { { { { ",
"{ { { { { { O.O.O.1 $ $ $ $ $ $ $ $ $ $ $ $ $ $ $ $ $ $ $ $ $ $ $ $ $ $ $ $ $ $ $ $ $ $ $ $ $ $ $ $ $ $ $ $ 1 O.O.O.] { { { { { ",
"{ { { { { ] O.O.O.: $ $ $ $ $ $ $ $ $ $ $ $ $ $ $ $ $ $ $ $ $ $ $ $ $ $ $ $ $ $ $ $ $ $ $ $ $ $ $ $ $ $ $ $ 1 O.O.O.{ { { { { { ",
"{ { { { ] ] N N N 2 & & & & & & & & & & & & & & & & & & & & & & & & & & & & & & & & & & & & & & & & & & & & > N N N ] { { { { { ",
"{ { { { ] H : : : 9 i i i i i i i i i i i i i i i i i i i i i i i i i i i i i i i i i i i i i i i i i i i i 9 1 1 : H ] ] { { { ",
"{ { { ] ] G @ $ $ i f f f f f f f f f f f f f f f f f f f f f f f f f f f f f f f f f f f f f f f f f f f f 9 $ $ $ G ] ] { { { ",
"{ { { ] H S $ $ $ i f f f f f f f f f f f f f f f f f f f f f f f f f f f f f f f f f f f f f f f f f f f f i $ $ $ S H ] { { { ",
"{ { ] ] ] S $ $ $ i f f f f f f f f f f f f f f f f f f f f f f f f f f f f f f f f f f f f f f f f f f f f i $ $ $ S ] ] { { { ",
"{ { { ] H S $ $ $ i f f f f f f f f f f f f f f f f f f f f f f f f f f f f f f f f f f f f f f f f f f f f i $ $ $ S G ] ] { { ",
"{ { { ] H S $ $ $ i f f f f f f f d f f f f f f f f f f f f f f f f f f f f f f f f f f f f f f f f f f f f i $ $ $ S G ] { { { ",
"{ { { ] H S $ $ $ 7 i y 9 7 9 9 6 8 6 8 7 7 9 7 7 7 8 7 7 7 7 7 7 7 7 7 7 7 7 7 9 7 7 7 8 7 8 7 7 7 9 9 y y 7 $ $ $ S ] ] { { { ",
"{ { { ] H S $ $ $ 5 7 9 5 * * * = * * : * * * * * * = * * * * * * * = * * = * * * : * * * * * * = * = 5 7 7 5 $ $ $ S H ] { { { ",
"{ { { ] ] S $ $ $ 5 7 7 5 * * * * * * * * * * * * * * * * * * * * * * * * * * * * * * * * * * * * * * 5 9 7 5 $ $ $ S H ] { { { ",
"{ { { ] G m $ $ $ 6 y i 6 * * * - - 3 - - - * * * = = 3 3 = 3 = - 3 - - 3 - * * & * 3 - - - 3 - * * & 6 9 i 7 $ $ $ S H ] { { { ",
"{ { { ] H S $ $ $ y d d 6 * * = 6 6 6 6 6 6 = * * 3 6 7 6 6 6 6 6 6 6 6 6 6 3 * * = 6 6 6 6 6 6 = * * 7 f d 9 $ $ $ M H ] { { { ",
"{ { { ] H S $ $ $ y f f 9 * * = 7 7 7 7 7 7 = * & 3 7 7 7 7 6 7 7 7 7 7 7 6 3 * * - 7 7 7 7 7 7 = * * 9 f f i $ $ $ m H ] { { { ",
"{ { { ] H S $ $ $ i g f 9 * * = 7 7 7 7 7 7 = * * 3 7 7 7 7 7 7 7 7 7 7 7 7 3 * * = 6 7 7 7 7 7 = * * 9 f f i $ $ $ S H ] { { { ",
"{ { { ] H S $ $ $ y f f 9 * * - 7 7 7 7 7 7 7 7 6 7 7 7 7 7 7 7 7 7 7 7 7 7 3 * * = 7 7 7 7 7 7 = * * 9 f f i $ $ $ S H ] { { { ",
"{ { ( Y H S $ $ $ y f f 9 * * = 7 7 7 7 7 7 7 7 7 7 7 7 7 7 7 7 7 7 7 7 7 7 3 * * = 7 7 7 7 7 7 > * * 8 f f i $ $ $ S H { { } ' ",
"{ { ( Y H S $ $ $ y f f 9 * * = 7 7 7 7 7 7 7 7 7 7 7 7 7 7 7 7 7 7 7 7 7 7 3 * * - 7 7 7 7 7 7 * * * 8 f f i $ $ $ S G Y / } ' ",
"{ { ( Y K J $ $ $ i f f 9 * * = 7 7 7 7 7 7 7 7 7 7 7 7 7 7 7 7 7 7 7 7 7 7 6 5 6 6 6 7 7 7 7 7 = * * 9 f f i $ $ $ S H Y / I ' ",
"{ { ( Y R L $ $ $ y f f 9 * * = 7 7 7 7 7 7 7 7 7 7 7 7 7 7 7 7 7 7 7 7 7 7 7 7 7 7 6 6 7 7 7 7 = * * 9 f f i $ $ $ S H Y / { ^ ",
"{ { ! I ! L $ $ $ i f f 9 * * = 7 7 7 7 7 7 7 7 7 7 7 7 7 7 7 7 7 7 7 7 7 7 7 7 7 7 7 7 7 7 7 7 = * * 9 f f y $ $ $ S H I ! { { ",
"{ { { ] U J $ $ $ i f f 9 * * = 7 7 7 7 7 7 7 7 7 7 7 7 7 7 7 7 7 7 7 7 7 7 7 7 7 7 7 7 7 7 7 7 = * * 9 f f i $ $ $ S H { { { { ",
"{ { { ] H S $ $ $ i f f 9 * * = 7 7 7 7 7 7 7 7 7 7 7 7 7 7 7 7 7 7 7 7 7 7 7 7 7 7 7 7 7 7 6 8 = * * 9 f f i $ $ $ S H { { { { ",
"{ { { ] H S $ $ $ i f f 9 * * = 7 7 7 7 7 7 7 7 7 7 7 7 7 7 7 7 7 7 7 7 7 7 7 7 6 9 7 7 7 7 6 6 = * * 9 f f i $ $ $ S G H { { { ",
"{ { { ] H S $ $ $ i f f 9 * * = 7 7 7 7 7 7 7 7 7 7 7 7 7 7 7 7 7 7 7 7 7 7 7 7 7 y V V V B B B 4 * * 9 f f y $ $ $ F H { { { { ",
"{ { { ] H S $ $ $ i f f 9 * * = 7 7 7 7 7 7 7 7 7 7 7 7 7 7 7 7 7 7 7 7 7 7 7 7 7 g o.o.o. . . .t * * 9 f f i $ $ $ S G { { { { ",
"{ { { H H S $ $ $ y f f t * * = 7 7 7 7 7 7 7 7 7 7 7 7 7 7 7 7 7 7 7 7 7 7 7 7 7 g o.o.o. . . .t * * 8 f f i $ $ $ S H ] { { { ",
"{ { { ] H S $ $ $ y f d 9 * * = 7 6 7 7 7 7 7 7 7 7 7 7 7 7 7 7 7 7 7 7 7 7 7 7 8 f X.X.X. . . .t * * 9 f f i $ $ $ S G ] ] { { ",
"{ { { ] H S $ $ $ y d g 9 * * = 7 7 7 7 7 7 7 7 7 7 7 7 7 7 7 7 7 7 7 7 7 7 7 7 7 s .. ... . . .t * * 9 f f i $ $ $ S G ] { { { ",
"{ { { { H S $ $ $ i d d 9 * * = 7 7 7 7 7 7 7 7 7 7 7 7 7 7 7 7 7 7 7 7 7 7 7 7 7 d  . . . . . .t * * 9 f f i $ $ $ S ] ] { { { ",
"{ { { { H S $ $ $ i f f 9 * * = 7 7 7 7 7 7 7 7 7 7 7 7 7 7 7 7 7 7 7 7 7 7 7 7 7 p | | | | | | 8 * * 9 d f i $ $ $ S H ] { { { ",
"{ { I { H S $ $ $ i f f 9 * * = 7 7 7 7 7 7 7 7 7 7 7 7 7 7 7 7 7 7 7 7 7 7 7 7 7 8 8 8 8 8 8 8 - * * 9 f f i $ $ @ S G ] { { { ",
"{ ( ( Y H S $ $ $ y f f 9 * * = 7 7 7 7 7 7 7 7 7 7 7 7 7 7 7 7 7 7 7 7 7 7 7 7 7 5 * * * * * * * * * 9 f f i $ $ $ S ] ] { { { ",
"{ I / _ Y K $ $ $ i f f 9 * * - 7 7 7 7 7 7 7 7 7 7 7 7 7 7 7 7 7 7 7 7 7 7 7 7 7 4 * * * * * & * * * 8 f f y $ $ $ S H ] { { { ",
"{ { Y / ~ E @ $ $ y f f u * * = 7 7 7 7 7 7 - - = 3 7 7 7 7 7 7 7 7 7 7 7 7 7 7 7 7 4 5 4 5 5 6 = * * 9 f f i $ $ $ S H ] { { { ",
"{ { ] K E R $ $ $ i f f 9 * * = 7 7 7 7 7 7 = * * 3 7 7 7 7 7 7 7 7 7 7 7 7 7 7 7 7 7 7 7 7 7 7 = * * 9 f f i $ $ $ D K Y Y { { ",
"{ { { S C C $ $ $ i f f 9 * * = 7 7 7 7 7 7 = * * 3 7 7 7 7 7 7 7 7 7 7 7 7 7 7 7 7 7 7 7 7 7 7 = * * 9 f f i $ $ $ L Q _ ^ { { ",
"{ { { S z z $ $ $ i f f 9 * * = 7 7 7 7 7 7 = * * 3 7 7 7 7 7 7 7 7 7 7 7 7 7 7 7 7 7 7 7 7 7 7 = * * 8 f f i $ $ $ W ~ ! { { { ",
"{ { { { H S $ $ $ i f f 9 * * = 7 7 7 7 7 7 = * * 3 6 7 7 7 7 7 7 7 7 7 7 7 7 7 7 7 7 7 7 7 7 7 = * * 9 f f i $ $ $ A A b { { { ",
"{ { { H H S $ $ $ i f f 9 * * = 7 7 7 7 7 7 = * * 3 7 7 7 7 7 7 7 7 7 7 7 7 7 7 7 7 7 7 7 7 7 7 = * * 9 f f i $ $ $ k b { { { { ",
"{ { { { H S $ $ $ i f f 9 * * = 7 7 7 7 7 7 = * * 3 7 7 7 7 7 7 7 7 7 7 7 7 6 5 5 6 7 7 7 7 7 7 = * * 9 f f i $ $ $ b G ] { { { ",
"{ { { H H S $ $ $ y f f 9 * * = 7 7 7 7 7 7 = * * 3 7 7 7 7 7 7 7 7 7 7 7 7 3 * * = 7 7 7 7 7 7 = * * 8 f f i $ $ $ S H ] { { { ",
"{ { { { H S $ $ $ i f f 9 * * = 8 6 7 8 7 7 - * * 3 6 6 7 7 7 7 7 8 7 8 7 7 - * * - 7 7 6 8 7 7 = * * 9 f f i $ $ $ G H H { { { ",
"{ { { H H S $ $ $ 6 9 y 5 % % % - 3 - - - - % % % * - - - - - 3 - - - - - - * % % % 3 - - - - - % % % 5 9 y 6 $ $ $ S H { { { { ",
"{ { { { H S $ $ $ + + + X . . . X X X X X X . . . X X X X X X X X X X X X X X . . . X X X X X X . . . . + + + $ $ $ S H ] { { { ",
"{ { { { H S $ $ $ .                                                                                         . $ $ $ S H ] { { { ",
"{ { { ] H S @ @ $ # # o # # # # # # # # # # # # # # # # # # # # # # # # # # o # # # # # # # # # # # o # # # O @ @ @ S H ] { { { ",
"{ { } { H S . . . ; q q q 0 0 q 0 0 q q q q q q 0 q 0 0 0 0 0 0 q q q q q q ; q 0 0 q 0 q q q 0 q q q q q q ; . . . S H ] { { { ",
"{ { { H H S       r k k k k k k k k k j j k j j j j j j k j j j k k k k k k h j k k j k k k k j k k k k j j e       S H ] { { { ",
"{ { { { H S       r l l l z l z k z z k z z z l z l z l z z l z k z l z k z k l z l z l l l z l z l z l z k r       S H ] { { { ",
"{ { { ] H F w 0 q h z c c c c c b z b x x x b z z b z b c c b z C C c c z c c z x x c x c x x x c c c z c z j q w w S H ] { { { ",
"{ { { { H F c c z c c S F S S S S S S S S S S S S S S S S S S S J E J S F S S F S S S S S S S S S S F S m c x z z b F H ] { { { ",
"{ { { { H F b c b m S F H H H G H H H H K H H H H H H H H H H H P ) Q H H K H H H H H H H H H H H H H H F F b b b b F H { { { { ",
"{ { { { H F S m m F G H { H ] { ] { H ] ^ Y ] H ] { ] { H { { H Y / ~ H I _ I ] ] ] ] ] H { ] ] ] ] ] { H H G S S S G H { { { { ",
"{ { { { ] H H G G H H { { { { { { { { { ( Y { { { { { { { { { { } ^ ~ b _ ' } { { { { { { { { { { { { { ] H H H G G H { ] { { { ",
"+.+.+.+.+.+.+.+.+.+.+.+.+.+.+.+.+.+.+.+.+.+.+.+.+.+.+.+.+.+.+.+.+.+.+.+.+.+.+.+.+.+.+.+.+.+.+.+.+.+.+.+.+.+.+.+.+.+.+.+.+.+.+.+.",
"+.+.+.+.+.+.+.+.+.+.+.+.+.+.+.+.+.+.+.+.+.+.+.+.+.+.+.+.+.+.+.+.+.+.+.+.+.+.+.+.+.+.+.+.+.+.+.+.+.+.+.+.+.+.+.+.+.+.+.+.+.+.+.+.",
"+.+.+.+.+.+.+.+.+.+.+.+.+.+.+.+.+.+.+.+.+.+.+.+.+.+.+.+.+.+.+.+.+.+.+.+.+.+.+.+.+.+.+.+.+.+.+.+.+.+.+.+.+.+.+.+.+.+.+.+.+.+.+.+."
};
