/* XPM */
static char *result[] = {
/* columns rows colors chars-per-pixel */
"64 64 86 1 ",
"  c #000000",
". c #090503",
"X c #0D0905",
"o c #070E09",
"O c #0C0E0A",
"+ c #130D09",
"@ c #1B0D0A",
"# c #08100B",
"$ c #1F140E",
"% c #21110D",
"& c #2A1B14",
"* c #321E15",
"= c #2C2015",
"- c #352319",
"; c #3A271B",
": c #3B291C",
"> c #1D3323",
", c #31292E",
"< c #3A2D2D",
"1 c #203826",
"2 c #203B28",
"3 c #332A30",
"4 c #3C3030",
"5 c #432D1F",
"6 c #4F3626",
"7 c #503625",
"8 c #523927",
"9 c #543B28",
"0 c #25462F",
"q c #254630",
"w c #274A31",
"e c #2A4F35",
"r c #2B5237",
"t c #5D412C",
"y c #574030",
"u c #60432D",
"i c #725036",
"p c #755338",
"a c #356544",
"s c #376947",
"d c #386A47",
"f c #3A6E4A",
"g c #3C724C",
"h c #3F7750",
"j c #3F7850",
"k c #4B7E4C",
"l c #437A53",
"z c #487C50",
"x c #477E58",
"c c #487E58",
"v c #58607B",
"b c #4C804D",
"n c #54844B",
"m c #54884C",
"M c #448257",
"N c #4B8656",
"B c #468559",
"V c #48875B",
"C c #488A5C",
"Z c #548C52",
"A c #569257",
"S c #5D9453",
"D c #5E9856",
"F c #53935C",
"G c #589558",
"H c #5B9B5C",
"J c #608C49",
"K c #63954C",
"L c #65984F",
"P c #69984B",
"I c #649D55",
"U c #609E5B",
"Y c #6CA253",
"T c #63A15B",
"R c #6CA658",
"E c #6FA858",
"W c #71A450",
"Q c #72AA56",
"! c #7AAF55",
"~ c #7AB055",
"^ c #4C8F60",
"/ c #518C6C",
"( c #4D9262",
") c #529560",
"_ c #677598",
"` c None",
/* pixels */
"(((((((((((((((((((((((Vl(((((((((((((((((((((((((((((((((((((((",
"(((((((((((((((((((((((^^^(((^((((((((((((((((((((((((()((((((((",
"((((((((((((((((^((((((((((()))^((((((((((((((((((((((^^((((((((",
"(((((((((((((((()((^(((((((())))(((((((((((^(((((((((((/((((((((",
"((((((///cllllllllllllllllllzJklllllxllllllllllllllllllc//((((((",
"((((((___3%%%%%%%%%%%%%%%%%%%%%%%%%%%%%%%%%%%%%%%%%%%%,___((((((",
"(((((^___,%%%%%%%%%%%%%%%%%%%%%%%%%%%%%%%%%%%%%%%%%%%%3___^(((((",
"((((^^vvv4*************-******************************5_v_^(((((",
"(((((V,,,9uuuuuutuuuuuuuuuuuuuutuuuuuuuuuuuuuuuuuuuuuu83=,V^^(((",
"((((CB%%%uppppppppppppppppppppppppppppppppppppppppppppu%@@x^^(((",
"((((VB%%%uppppppppppppppppppppppppppppppppppppppppppppu%%%^^^(((",
"((((VB%%%uppppppppppppppppppppppppppppppppppppppppppppu%%%xV^(((",
"(((^CB$%%uppppppppppppppppppppppppppppppppppppppppppppu%%%MB^(((",
"(((^VM%%%upppppppippppppppppppppppppppppppppppppppppppu%%$M^^(((",
"(((^VM%%%6tu98998888668886968688777777779778766866899u6%%%j^^(((",
"((^^VM%%%5885-------------;-----*;,*;-----;--;--*;;5865%%%M^^(((",
"(((^^M@%%5775--------------------------------------5775%%%BCC(((",
"(((^VM%%%8tt6---5::%%%$$%%$$$$%%$$$$$%%%$$$$$%%%%%%<tt7%%%BC((((",
"(((^VM%%%tii6---666 . ...   ..  . . ..  . . ..   . :iit%%%MV((((",
"(((^^M%%%upp9--;676                                :ppu%%%MV^(((",
"((((VM%%%upp9--:777                                :ppu%%%MC^(((",
"((((VB%%%tpp9--;777                                :ppu%%$MC^(((",
"((EHVM%%%upi9--:777                                :ppt%%%MV(()~",
"((EHCM%%%upi9--;777                                :ppu%%%MVHR)~",
"((EHAZ%%%upp9--;777                                :ppu%%%MCHE)~",
"((RHIS%%%tpp9--;777                                :ppu%%%MVHR(T",
"((UFDS%%%upp9--:777                                :ppu%%%MCFU((",
"(()^GZ%%%upp9--;777                                :ppu%%%MC((((",
"(((^VM%%%upp9--:777                                :ppu%%%MC^(((",
"(((^VM%%%upp9--;777                                :ppu%%%MC^(((",
"(((^CB%%%tpp9--:777                                :ppu%%%MC^(((",
"(((^CM%%%upp9--:777                                :ppt%%%MC^(((",
"(((^VM%%%upp9--:777                                :ppu%%%BC((((",
"(((^Cl%%%upp8--:777                                :ppt%%%BV^(((",
"(((^CB%%%upp9--:777                                :ppu%%%MV^(((",
"(((^CB%%%tpi9--:777                                :ppu%%%MV^(((",
"(((^CM$%%upp9--:777                                :ppu%%@MC^(((",
"((F(CM$%%upp9---777                                :ppu%%$MC^(((",
"(EQHCM%%%upp9--:777                                :ppt%%%MC^(((",
"((QQHZ%%%upp8--:777                                :ppu%%%MC^(((",
"((HRYL$@%upp9--:777                                :ppu%%%MV^(((",
"(((ALK%%%upp9--:777                                :ppu%%%NAHH((",
"(((lkk%%%upp9--:777                                :ppu%%%SIET((",
"(((Mgg%%%upp9--:777                                ;ppu%%%PWI(((",
"(((CVM%%%upp9--;777                                :ppu%%%mml(((",
"(((^VM%%%tpp9--:777                                :ppu%%%dl((((",
"(((^CB%%%upp9--;777                                :ppu%%%lC((((",
"(((^CM%%%upi9--:777                                :ppu%%%MV^(((",
"((((CB%%%tpp8--:677                                :ppu%%%BC((((",
"((((VM%%%6yt5&&&5::                                =9t6%%%BVC(((",
"(((^VB%%%+++X...XXX                                .+++%%%MV((((",
"(((^VM%%%.                             .              .%%%MC((((",
"(((^CM@@@##o###oo##########o##o###o#o#oo####o##o##o###O@@@MCC(((",
"(((^CM..X>qq000w00qqqqqq0q0000000qqqqq>wq0q0q0w0qq00qq>...MC((((",
"(((^CM   eddddddsfddddsdsddddsssssddssasddsdssssdssssse   MC^(((",
"((((CM   rffgffgfgffgffggffgggfgggfgffffgfgfgfgfgggfgfr   MC^(((",
"(((CCBwwqahhhhhhlhhlgjlgjjjjjjjlkkjjjjjhjjjjjhhhjjjjjgawwwMC^(((",
"((((CBjggljlMMMMMMMMMMMMMMMBMMMMZKZMMMMMMBMMMMMMMMBjlljgglMC^(((",
"((((CBlljlBVCCCCCVCCFCVVVVVCVVCCDWIVVGCVVCVVVVCCCCCCCMllllBC((((",
"((((CVMMMBC^^^^^^(C^YF((((C^((C^HQYVFQ^^^^(^(C((^^^^^CBMMMB^((((",
"(((((VCBVVC(^(((((((EH((((((((((FUYMQ~)((((((((((((((CCCBVV(((((",
"````````````````````````````````````````````````````````````````",
"````````````````````````````````````````````````````````````````",
"````````````````````````````````````````````````````````````````"
};
