/* XPM */
static char *result[] = {
/* columns rows colors chars-per-pixel */
"64 64 101 2 ",
"   c #3E734E",
".  c #3F7750",
"X  c #42774F",
"o  c #467B4F",
"O  c #407750",
"+  c #407751",
"@  c #417A53",
"#  c #417B53",
"$  c #427A53",
"%  c #427B53",
"&  c #477E51",
"*  c #427D54",
"=  c #437E55",
"-  c #437E56",
";  c #447E56",
":  c #478055",
">  c #468155",
",  c #448057",
"<  c #448157",
"1  c #4A8354",
"2  c #488457",
"3  c #458258",
"4  c #458359",
"5  c #468459",
"6  c #47865A",
"7  c #47865B",
"8  c #4E8E5B",
"9  c #48885C",
"0  c #498A5D",
"q  c #4A8C5E",
"w  c #4A8C5F",
"e  c #4B8E5F",
"r  c #518650",
"t  c #558A50",
"y  c #568D53",
"u  c #5C9151",
"i  c #589256",
"p  c #569258",
"a  c #50925E",
"s  c #51925E",
"d  c #55975F",
"f  c #55985F",
"g  c #57995F",
"h  c #58995E",
"j  c #58995F",
"k  c #589A5E",
"l  c #599A5F",
"z  c #5B9B5E",
"x  c #5B9C5D",
"c  c #5D9D5D",
"v  c #5E9D5C",
"b  c #5E9D5D",
"n  c #609552",
"m  c #639852",
"M  c #649952",
"N  c #679D52",
"B  c #609F5C",
"V  c #619F5C",
"C  c #67A157",
"Z  c #6BA053",
"A  c #6BA153",
"S  c #6FA554",
"D  c #6DA657",
"F  c #63A05B",
"G  c #63A15B",
"H  c #64A159",
"J  c #66A25A",
"K  c #66A35A",
"L  c #63A15C",
"P  c #69A559",
"I  c #69A45A",
"U  c #68A55A",
"Y  c #69A55A",
"T  c #6CA659",
"R  c #6CA759",
"E  c #6EA858",
"W  c #6FA858",
"Q  c #6EA958",
"!  c #6FA958",
"~  c #73A954",
"^  c #71AA57",
"/  c #76AC54",
"(  c #74AC56",
")  c #75AC56",
"_  c #74AC57",
"`  c #75AC57",
"'  c #77AE56",
"]  c #7AB055",
"[  c #4B8E60",
"{  c #4C9061",
"}  c #4E9260",
"|  c #4F9361",
" . c #4D9262",
".. c #509361",
"X. c #509461",
"o. c #529660",
"O. c #539660",
"+. c #529661",
"@. c #539661",
"#. c #559760",
"$. c #559860",
/* pixels */
" . . . . . . . . . . . . . . . . . . . . . . .6 %  . . . . . . . . . . . . . . . . . . . . . . . . . . . . . . . . . . . . . . .",
" . . . . . . . . . . . . . . . . . . . . . . .[ q  . . . . . . . . . . . . . . . . . . . . . . . . . . . . . . . . . . . . . . .",
" . . . . . . . . . . . . . . . . . . . . . . . . . . . . . . . . . . . . . . . . . . . . . . . . . . . . . . . . . . . . . . . .",
" . . . . . . . . . . . . . . . . . . . . . . . . . . . . .x @. . . . . . . . . . . . . . . . . . . . . . . . . . . . . . . . . .",
" . . . . . . . . . . . . . . . . . . . . . . . . . . . .o.! c  . . . . . . . . . . . . . . . . . . . . . . . . . . . . . . . . .",
" . . . . . . . . . . . . . . . . . . . . . . . . . . . .( ] c  . . . . . . . . . . . . . . . . . . . . . . . . . . . . . . . . .",
" . . . . . . . . . . . . . . . . . . . . . . . .k _  . .( ] c  . . . . . . . . . .G Y  . . . . . . . . . . . . . . . . . . . . .",
" . . . . . . . . . . . . . . . . . . . . . . . .k ' W # ~ V |  . . . . . . . . . .G Y  . . . . . . . . . . . . . . . . . . . . .",
" . . . . . . . . . . . . . . . . . . . . . . . .s n ] u u a  . . . . . . . . .b #.G Y  . . . . . . . . . . . . . . . . . . . . .",
" . . . . . . . . . . . . . . . . . . . . . . . .e : m m > q  . . . . . . . . .! c G Y  . . . . . . . . . . . . . . . . . . . . .",
" . . . . . . . . . . . . . . . . . . . . . . . . .e O O [  . . . . . . . . . .! c B J  . . . . . . . . . . . . . . . . . . . . .",
" . . . . . . . . . . . . . . . . . . . . . . . . . . . . . . . . . . . . . . .! c  . . . . . . . . . . . . . . . . . . . . . . .",
" . . . . . . . . . . . . . . . . . . . . . . . . . . . . . . . . . . . . . . .| |  . . . . . . . . . . . . . . . . . . . . . . .",
" . . . . . . . . . . . . . . . . . . . . . . . . . . . . . . . . . . . . . . . . . . . . . . . . . . . . . . . . . . . . . . . .",
" . . . . . . . . . . . . . . . . . . . . . . . . . . . . . . . . . . . . . .5 [  . . . . . . . . . . . . . . . . . . . . . . . .",
" . . . . . . . . . . . . . . . . . . . . . . . . . . . . . . . . . . . . .0 $ 7 e  . . . . . . . . . . . . . . . . . . . . . . .",
" . . . . . . . . . . . . . . . . . . . . . . . . . . . . . . . . . . . . .O 0 = 9  . . . . . . . . . . . . . . . . . . . . . . .",
" . . . . . . . . . . . . . . . . . . . . . . . . . . . . . . . . . . . . . .. 0  . . . . . . . . . . . . . . . . . . . . . . . .",
" . . . . . . . . . . . . . . . . . . . . . . . . . . . . . . . . . . . . . .[ {  . . . . . . . . . . . . . . . . . . . . . . . .",
" . . . . . . . . . . . . . . . . . . . . . . . . . . . . . . . . . . . . . . . . . . . . . . . . . . . . . . . . . . . . . . . .",
" . . . . . . . . . . . . . . . . . . . . . . . . . . . . . . . .j z  . . . . . . . . . . . . . . . . . . . . . . . . . . . . . .",
" . . . . . . . . . . . . . . . . . . . . . . . . . . . . . . . .G R f  . . . . . . . . . . . . . . . . . . . . . . . . . . . . .",
" . . . . . . . . . . . . . . . . . . . . . . . . . . . . . . . .G ] E  . . . . . . . . . . . . . . . . . . . . . . . . . . . . .",
" . .! c  . . . . . . . . . . . . . . . .! c  . . . . . . . . . .G ] E  . .] +. . . . . . . . . . . . . . . . . . . . . . . .O.] ",
" . .! c  . . . . . . . . . . . . . . . .! c  . . . . . . . . . .| V Z & ) ] +. . . . . . . . . . . . . . . . . . . . . .z Y O.] ",
" . .! c z b  . . . . . . . . . . . . . .! c z b  . . . . . . . . .8 u N ] t }  . . . . . . . . . . . . . . . . . . . . .v E O.] ",
" . .! c G Y  . . . . . . . . . . . . . .! c G Y  . . . . . . . . .0 1 m m ; {  . . . . . . . . . . . . . . . . . . . . .v E X.U ",
" . .K g G Y  . . . . . . . . . . . . . .K g G Y  . . . . . . . . . .q $ $  . . . . . . . . . . . . . . . . . . . . . . .z J  . .",
" . . . .G Y  . . . . . . . . . . . . . . . .G Y  . . . . . . . . . . . . . . . . . . . . . . . . . . . . . . . . . . . . . . . .",
" . . . . . . . . . . . . . . . . . . . . . . . . . . . . . . . . . . . . . . . . . . . . . . . . . . . . . . . . . . . . . . . .",
" . . . . . . . . . . . . . . . . . . . . . . . . . . . . . . . . . . . . . . . . . . . . . . . . . . . . . . . . . . . . . . . .",
" . . . . . . . . . . . . .z b  . . . . . . . . . . . . . . . . . . . . . . . . . . . . . . . . . .b z  . . . . . . . . . . . . .",
" . . . . . . . . . . . .l G G k  . . . . . . . . . . . . . . . . . . . . . . . . . . . . . . . .x G G k  . . . . . . . . . . . .",
" . . . . . . . . . . . .L G G J  . . . . . . . . . . . . . . . . . . . . . . . . . . . . . . . .K c G B  . . . . . . . . . . . .",
" . . . . . . . . . . . . .G Y  . . . . . . . . . . . . . . . . . . . . . . . . . . . . . . . . . .P G  . . . . . . . . . . . . .",
" . . . . . . . . . . . . . . . . . . . . . . . . . . . . . . . . . . . . . . . . . . . . . . . . . . . . . . . . . . . . . . . .",
" . . . . . . . . . . . . . . . . . . . . . . . . . . . . . . . . . . . . . . . . . . . . . . . . . . . . . . . . . . . . . . . .",
" . . . . . . . . . . . . . . . . . . . . . . . . . . . . . . . . . . . . . . . . . . . . . . . . . . . . . . . . . . . . . . . .",
" . . . . . . . . . . . . . . . . . . . . . . . .e 9  . . . . . . . . . . . . . . . . . . . . . . . . . . . . . . . . . . . . . .",
" .o.o.X. . . . . . . . . . . . . . . . . . . .{ 0 % [  . . . . . . . . . . . . . . . . . . . . . . . . . . . . . . . . . . . . .",
" .( ] c  . . . . . . . . . . . . . . . . . . .6 % e    . . . . . . . . . . . . . . . . . . . . . . . . . . . . . . . . . . . . .",
" . .! ] G v ] _  . . . . . . . . . . . . . . . .0 +  . . . . . . . . . . . . . . . . . . . . . . . . . . . . . . . . . . . . . .",
" . .d T ` ` ^ $. . . . . . . . . . . . . . . . .{ q  . . . . . . . . . . . . . . .b F  . . . . . . . . . . . .W W #. . . . . . .",
" . . .p A S i  . . . . . . . . . . . . . . . . . . . . . . . . . . . . . . . .b #.G Y  . . . . . . . . . . . .G ' I #.j G c  . .",
" . . .= r y 4  . . . . . . . . . . . . . . . . . . . . . . . . . . . . . . . .! c G Y  . . . . . . . . . . . . .J ' Y R _ F  . .",
" . . ., O <  . . . . . . . . . . . . . . . . . . . . . . . . . . . . . . . . .! c B J  . . . . . . . . . . . . . .C / / H  . . .",
" . . . . . . . . . . . . . . . . . . . . . . . . . . . . . . . . . . . . . . .! c  . . . . . . . . . . . . . . . .@ M u ;  . . .",
" . . . . . . . . . . . . . . . . . . . . . . . . . . . . . . . . . . . . . . .| |  . . . . . . . . . . . . . . . .@ X 2 {  . . .",
" . . . . . . . . . . . . . . . . . . . . . . . . . . . .Y #. . . . . . . . . . . . . . . . . . . . . . . . . . . .w 0 [  . . . .",
" . . . . . . . . . . . . . . . . . . . . . . . . . . .G G G #. . . . . . . . . . . . . . . . . . . . . . . . . . . . . . . . . .",
" . . . . . . . . . . . . . . . . . . . . . . . . . . .Q h P g  . . . . . . . . . . . . . . . . . . . . . . . . . . . . . . . . .",
" . . . . . . . . . . . . . . . . . . . . . . . . . . . .Q j  . . . . . . . . . . . . . . . . . . . . . . . . . . . . . . . . . .",
" . . . . . . . . . . . . . . . . . . . . . . . . . . . . . . . . . . . . . . . . . . . . . . . . . . . . . . . . . . . . . . . .",
" . . . . . . . . . . . . . . . . . . . . . . . . . . . . . . . . . . . . . .@ q  . . . . . . . . . . . . . . . . . . . . . . . .",
" . . . . . . . . . . . . . . . . . . . . . . . . . . . . . . . . . . . . .- 6 - 0  . . . . . . . . . . . . . . . . . . . . . . .",
" . . . . . . . . . . . . . . . . . . . . . . . . . . . . . . . . . . . . .3 3 3 q  . . . . . . . . . . . . . . . . . . . . . . .",
" . . . . . . . . . . . . . . . . . . . . . . . . . . . . . . . . . . . . . .* q  . . . . . . . . . . . . . . . . . . . . . . . .",
" . . . . . . . . . . . . . . . . . . . . . . . . . . . . . . . . . . . . . . . . . . . . . . . . . . . . . . . . . . . . . . . .",
" . . . . . . . . . . . . . . . . . . . . . . . . . . . . . . . . . . . . . . . . . . . . . . . . . . . . . . . . . . . . . . . .",
" . . . . . . . . . . . . . . . . . . . . . . . . . . . . . . . .V J  . . . . . . . . . . . . . . . . . . . . . . . . . . . . . .",
" . . . . . . . . . . . . . . . . . . . . . . . . . . . . . . . .G ` B  . . . . . . . . . . . . . . . . . . . . . . . . . . . . .",
" . . . . . . . . . . . . . . . . . . . .x @. . . . . . . . . . .G ] E  . .v .. . . . . . . . . . . . . . . . . . . . . . . . . .",
" . . . . . . . . . . . . . . . . . . . .! c  . . . . . . . . . .c ^ D 0 h ] +. . . . . . . . . . . . . . . . . . . . . . . . . .",
" . . . . . . . . . . . . . . . . . . . .! c  . . . . . . . . . . .v Z o ] ] +. . . . . . . . . . . . . . . . . . . . . . . . . ."
};
