/* XPM */
static char *result[] = {
/* columns rows colors chars-per-pixel */
"64 64 167 2 ",
"   c #242F3A",
".  c #213138",
"X  c #253A3B",
"o  c #283D3B",
"O  c #27403D",
"+  c #29433F",
"@  c #2B4B3E",
"#  c #314F3C",
"$  c #33523D",
"%  c #325E3F",
"&  c #2C2E40",
"*  c #322E45",
"=  c #372D48",
"-  c #3C2E4C",
";  c #233640",
":  c #273D4A",
">  c #472D53",
",  c #5A2C61",
"<  c #4B3C65",
"1  c #6A2B6D",
"2  c #6E2E70",
"3  c #702A72",
"4  c #7B2A79",
"5  c #2A4641",
"6  c #2C4B42",
"7  c #28404F",
"8  c #3B414C",
"9  c #2E5241",
"0  c #305445",
"q  c #325B44",
"w  c #345B49",
"e  c #294453",
"r  c #2B4758",
"t  c #2C4A5C",
"y  c #324A5F",
"u  c #2F5151",
"i  c #325956",
"p  c #366545",
"a  c #3B6247",
"s  c #376846",
"d  c #396A47",
"f  c #36624C",
"g  c #39664C",
"h  c #396D4A",
"j  c #3F7046",
"k  c #3C734D",
"l  c #3B6B51",
"z  c #3E7353",
"x  c #3F7851",
"c  c #2E4F62",
"v  c #2F5164",
"b  c #305466",
"n  c #3F5663",
"m  c #31566B",
"M  c #33586E",
"N  c #355D74",
"B  c #366076",
"V  c #366179",
"C  c #38637D",
"Z  c #404D54",
"A  c #457343",
"S  c #4B7947",
"D  c #43774B",
"F  c #507E4E",
"G  c #407756",
"H  c #427C53",
"J  c #4A7A50",
"K  c #437D58",
"L  c #59646A",
"P  c #4E6B7A",
"I  c #536C78",
"U  c #7D7E74",
"Y  c #4B814D",
"T  c #50834A",
"R  c #448157",
"E  c #4B8453",
"W  c #4E8955",
"Q  c #468559",
"!  c #48875A",
"~  c #47885B",
"^  c #498C5D",
"/  c #538C54",
"(  c #5A8F50",
")  c #518F59",
"_  c #4E915F",
"`  c #5C9453",
"'  c #54955E",
"]  c #599658",
"[  c #57985E",
"{  c #5C9B5C",
"}  c #619752",
"|  c #659B53",
" . c #619F5A",
".. c #6CA556",
"X. c #6FA857",
"o. c #64A15A",
"O. c #6AA559",
"+. c #6DA858",
"@. c #70A754",
"#. c #73AB56",
"$. c #4B8F60",
"%. c #4D9262",
"&. c #519560",
"*. c #848073",
"=. c #958772",
"-. c #386580",
";. c #3A6985",
":. c #3B6C89",
">. c #3E708F",
",. c #3E7392",
"<. c #416A83",
"1. c #4F7489",
"2. c #407797",
"3. c #407798",
"4. c #427B9D",
"5. c #497F9F",
"6. c #437DA0",
"7. c #872982",
"8. c #9A2890",
"9. c #56859D",
"0. c #5C879C",
"q. c #6A8C9B",
"w. c #4581A6",
"e. c #4785AB",
"r. c #4887AD",
"t. c #4788AF",
"y. c #4888AE",
"u. c #498AB2",
"i. c #4B8FB8",
"p. c #4D92BC",
"a. c #6A94AE",
"s. c #759AA9",
"d. c #759BAC",
"f. c #739BB1",
"g. c #7CA4B6",
"h. c #7CA4BC",
"j. c #919B96",
"k. c #A5A394",
"l. c #A6A99E",
"z. c #B9AB92",
"x. c #B5AD9A",
"c. c #919CA2",
"v. c #86A3B1",
"b. c #A3AEA9",
"n. c #B3B8BB",
"m. c #D8B78F",
"M. c #C7B59A",
"N. c #D4BB99",
"B. c #CBBCA2",
"V. c #EBC69B",
"C. c #EDC99F",
"Z. c #D7C7AC",
"A. c #DDCAAB",
"S. c #E8CCA8",
"D. c #F3CFA4",
"F. c #F6D1A3",
"G. c #FFD7A8",
"H. c #89ADC3",
"J. c #90B2C6",
"K. c #A9BAC4",
"L. c #A1BECF",
"P. c #BCD0DD",
"I. c #C7CBCD",
"U. c #CCCFD1",
"Y. c #CFDEE7",
"T. c #E5EDF2",
"R. c white",
/* pixels */
"%.%.%.%.%.%.%.%.%.%.%.%.%.%.%.%.%.%.%.%.%.%.%.$.H ~ %.%.%.%.%.%.%.%.%.%.%.%.%.%.%.%.%.%.%.%.%.%.%.%.%.%.%.%.%.%.%.%.%.%.%.%.%.%.",
"%.%.%.%.%.%.%.%.%.%.%.%.%.%.%.%.%.%.%.%.%.%.%.$.$.$.%.%.%.%.%.%.%.%.%.%.%.%.%.%.%.%.%.%.%.%.%.%.%.%.%.%.%.%.%.%.%.%.%.%.%.%.%.%.",
"%.%.%.%.%.%.%.%.%.%.%.%.%.%.%.%.%.%.%.%.%.%.%.%.%.$.%.%.%.%.%.%.%.%.%.%.&.%.%.%.%.%.%.%.%.%.%.%.%.%.%.%.&.%.%.%.%.%.%.%.%.%.%.%.",
"%.%.%.%.%.%.%.%.%.%.%.%.%.%.%.%.%.%.%.%.%.%.%.%.%.%.%.%.%.&.[ %.%.%.%.%.%.%.%.%.%.%.%.%.%.%.%.%.%.%.%.%.%.%.%.%.%.%.%.%.%.%.%.%.",
"%.%.%.%.%.%.%.%.%.%.%.%.%.%.%.%.%.%.%.%.%.%.%.%.%.%.%.%._ o.o.' %.%.%.%.%.%.%.%.%.%.%.%.%.%.%.%.%.%.%.%.%.%.%.%.%.%.%.%.%.%.%.%.",
"%.%.%.%.%.%.%.%.%.%.%.%.&.%.%.%.%.%.%.%.%.%.%.%.%.%.%.%. .#.O.&.%.&.%.%.%.%.%.%.%.%.%.%.%.%.%.%.%.%.%.%.%.%.%.%.%.%.%.%.%.%.%.%.",
"%.%.%.%.%.%.%.%.%.%.%.%.%.%.%.%.%.%.%.%.%.%.%.%.%.o.{ %.o.#.+.[ %.%.%.%.%.%.%.%.%.&.O.&.%.%.%.%.%.%.%.%.%.%.%.%.%.%.%.%.%.%.%.%.",
"%.%.%.%.%.%.%.%.%.%.%.%.%.%.%.%.%.%.%.%.%.%.%.%.' O.+.) ` O.[ _ %.%.%.%.%.%.%.%.&.&.O.{ %.%.%.%.%.%.%.%.%.%.%.%.%.%.%.%.%.%.%.&.",
"%.%.%.%.%.%.%.%.%.%.%.%.%.%.%.%.%.%.%.%.%.%.%.%.&.` @.| ( ] %.%.%.%.%.%.%.%.%.&.[ [ O. .%.%.%.%.%.%.%.%.%.%.%.%.%.%.%.%.%.%.%.%.",
"%.%.%.%.%.%.%.%.%.%.%.%.%.%.%.%.%.%.%.%.%.%.%.%.$.E ( } / ~ $.%.%.%.%.%.%.%.%.[ o.{ o.{ %.$.%.%.%.%.%.%.%.%.%.%.%.%.%.%.%.%.%.%.",
"%.%.%.%.%.%.%.%.%.%.%.%.%.%.%.%.G z z l z z z z z l g a g l z z z z z z z z z G F J F J z z z z z z z z $.%.%.%.%.%.%.%.%.%.%.%.",
"%.%.%.%.%.%.%.%.%.%.%.%.%.%.%.%.u X ; X X X X X X X X X X X X . X X X : X X X X o X o X X X X X ; ; . 5 $.%.%.%.%.%.%.%.%.%.%.%.",
"%.%.%.%.%.%.%.%.%.%.%.%.%.%.%.%.5 . . . . . . .   . . . . . . . . . . . . . . .   . . . . . . . . . . ; K %.%.%.%.%.%.%.%.%.%.%.",
"%.%.%.%.%.%.%.%.%.%.%.%.$.l f w X . . e m m m m m m m m c : . . r V V V V N V V V V V V V N V N C V B B w f g K %.%.%.%.%.%.%.%.",
"%.%.%.%.%.%.%.%.%.%.%.%.R 5 ; X . . . m >.,.,.4.4.,.,.,.:.e   . N u.u.u.u.u.u.u.u.u.u.u.u.u.u.u.y.y.u.w.e X 7 K %.%.%.%.%.%.%.%.",
"%.%.%.%.%.%.%.%.%.%.%.%.K ; . . . . . N ,.6.6.6.6.6.6.6.,.r . . N p.p.p.p.p.p.p.p.p.p.p.p.p.p.p.p.p.i.w.e . ; z %.%.%.%.%.%.%.%.",
"%.%.%.%.%.%.%.%.$.x u 5 8 2 4 4 = . . m ,.6.h.P.Y.K.I 7 n c.I.I.v.w.w.r.i.p.p.p.p.p.p.p.p.p.p.p.p.p.p.i.w.,.,.b 6 9 g %.%.%.%.%.",
"%.%.%.%.%.%.%.%.%.z X . = 7.8.8.> . . M 4.6.J.T.R.U.L   8 n.R.R.P.6.6.e.i.p.p.p.p.p.p.p.p.p.p.p.p.p.p.p.p.p.u.v . . w %.$.%.%.%.",
"%.%.%.%.%.%.%.%.$.l . . = 7.8.8.- .   M ,.6.J.T.R.U.L . Z n.R.R.J.6.6.w.i.p.u.4.3.4.e.p.p.p.p.p.p.p.p.i.4.,.>.e . . w $.%.%.%.%.",
"%.%.%.%.%.%.%.%.$.l X . = 7.8.8.-   . m ,.6.J.T.R.I.L . Z n.R.R.L.6.6.e.i.p.6.b : c >.p.p.p.p.p.p.p.p.e.v 7 7 X . . w ^ %.%.%.%.",
"%.%.%.%.%.%.%.%.~ l X . = 7.8.8.- . . M 4.w.J.T.R.U.L . Z n.R.R.L.6.6.e.i.p.3.r . : :.i.p.p.p.p.p.p.p.w.e . . . . . 0 $.$.$.%.%.",
"%.%.%.%.%.%.%.$.^ g X . & , 1 1 * . . M ,.w.J.T.R.U.L . Z n.R.R.L.6.6.e.i.p.w.-.N N 4.p.p.p.p.p.p.p.p.y.C M b 7 .   0 Q $.$.%.%.",
"%.%.%.%.%.%.$.$.~ g . .   & & &     . M ,.6.J.T.R.U.L . Z n.R.R.L.6.6.e.i.p.i.r.e.r.i.i.p.p.p.p.p.p.p.i.y.r.w.t . . 0 $.$.%.%.%.",
"%.%.o.&.%.%.$.$.~ g X . .   . . . . . N ,.6.J.T.R.U.L   Z n.R.R.L.6.,.e.i.p.p.p.p.p.p.p.p.p.p.p.p.p.p.p.p.p.r.t . . 9 ~ ~ %.%.%.",
"%.%.+.{ %.%.%._ ~ x w 0 @ . . . , 1 1 < y c 1.d.H.f.1.N <.a.H.H.a.6.6.e.i.p.p.p.p.p.p.p.p.p.p.p.p.p.p.p.p.p.t.c . . 0 Q $.[ { &.",
"%.%.+.{ [ [ %.^ ~ x x h q X . . 4 8.8.,     c 2.6.6.6.6.6.6.5.4.6.6.6.e.i.i.p.p.p.p.p.p.p.p.p.p.p.p.p.p.p.p.t.c . . 0 ~ ~ [ ..&.",
"%.%.+.{ { o.%.$.~ R x k q X . . 4 8.8., & . c ,.6.6.6.6.6.6.6.6.6.6.6.e.i.p.p.p.p.p.p.p.p.p.p.p.p.p.p.p.p.p.t.c . . 0 Q ^ { +.&.",
"%.%.+.&.o.o.%.$.^ R R k p . . . 4 8.8.,   . v :.6.6.6.6.6.6.6.6.6.6.6.t.i.p.p.p.p.p.p.p.p.p.p.p.p.p.p.p.p.p.t.v . . 0 ~ ^ { o.&.",
"%.%.&.&.o.O.&.%.^ ~ R x g X . . 4 8.8.,     c ,.6.6.6.6.6.6.6.6.6.6.6.e.i.p.p.p.p.p.p.p.p.p.p.p.p.p.p.p.p.p.t.v   . 0 Q ^ &.[ &.",
"%.%.%.%.&.{ %.%._ ^ ~ H h X . . , 3 3 >     c ,.6.6.6.6.6.6.6.6.6.6.6.w.t.u.u.i.p.i.6.>.>.>.,.:.>.>.:.2.,.,.:.: . . 0 Q ^ _ &.$.",
"%.%.%.&.&.%.%.%.$.^ ^ ~ h X . . * * = &   . c ,.6.6.6.6.6.6.6.6.6.6.6.6.6.6.e.i.p.e.V : : e : e e : : : : : : X   . 0 ~ $.$.%.%.",
"%.%.%.%.%.%.%.%.%.%.^ ~ z X   .   . . . . . c ,.6.6.6.6.6.6.6.6.6.6.6.6.6.6.e.u.p.e.m .     .         ; . . . . . . 6 Q $.$.%.%.",
"%.%.%.%.%.%.%.%.%.^ _ ~ J a $ @ @ @ @ O . . 7 t M N 2.6.6.6.6.6.w.e.e.t.t.e.u.i.p.u.,.N N t . . . @ $ $ # @ @ @ # 9 g ~ ~ $.%.%.",
"%.%.%.%.%.%.%.%.%._ ^ ~ W T S A d s s @ . . . . . 7 -.6.6.6.6.6.t.i.p.p.p.p.p.p.p.p.p.p.u.-.. . X A A A d s s d h x x ~ $.%.%.%.",
"%.%.%.%.%.%.%.%.%.%.^ ^ W T T S h d s @ O X X .   7 ;.6.6.6.6.6.t.p.p.p.p.p.p.p.p.p.p.p.u.-.. . O A A A j h h h k x H ~ $.%.%.%.",
"%.%.%.%.%.%.%.%.%.%._ ^ Q E Y D k k h p q # + . . 7 ;.6.6.6.6.6.t.p.p.p.p.p.p.p.p.p.p.p.u.V . . O h S S k k k k x x R ^ ~ %.%.%.",
"%.%.%.%.%.%.%.%.%.%.%.^ ! ~ H G x x k k h d 9 X . 7 ;.4.4.6.6.6.t.p.p.p.p.i.p.p.p.p.p.p.u.N . . O k x x H x G H H R ~ ~ %.%.%.%.",
"%.%.%.%.%.%.%.%.%.%.%.%.$.~ ~ ~ R R R x k k 9 X . 7 ;.6.w.9.q.q.s.g.g.g.g.g.g.h.g.g.g.g.f.P . . + D x ~ ~ ^ ~ ~ ~ ^ ^ $.%.%.%.%.",
"%.%.%.%.%.%.%.%.%.%.%.^ $.^ $.^ ^ ^ Q R x k 0 . . 7 ;.6.9.j.z.z.x.A.Z.Z.Z.Z.Z.Z.Z.Z.Z.Z.B.U . . + H Q ^ ^ ^ ^ ~ ^ $.$.$.%.%.%.%.",
"%.%.%.%.%.%.%.%.%.%.%.%.%.%.$.$.^ ^ ^ Q R x q X . 7 ;.6.9.k.m.m.C.G.G.G.G.G.G.G.G.G.G.G.V.=.. . + R ~ ^ ^ %.%.$.$.$.%.%.%.%.%.%.",
"%. . .[ %.%.%.%.%.%.%.%.%.%.%.%.x l g g g w i m m N ,.w.9.k.m.m.C.G.G.G.G.G.G.G.G.G.G.G.C.=.. . + R ~ ^ %.%.%.%.%.%.%.%.%.%.%.%.",
"%.o.#.O.' ' { { %.%.%.%.%.%.%.$.6 . . . . . M e.p.u.e.,.9.k.m.m.V.G.G.G.G.G.G.G.G.G.G.G.C.=.. . + ~ ~ %.%.%.%.%.%.%.%.%.%.%.%.%.",
"%.%.o.#.O.o.#.O.%.%.%.%.%.%.%.%.5 . . ; : : N e.i.u.w.6.9.k.m.m.V.G.G.G.G.G.G.G.G.G.G.G.C.=.. . + ~ ~ %.$.%.%.%.&.[ &.%.%.&.%.%.",
"%.%.%.o.X.#.O.&.%.%.%.%.%.%._ ^ 5 . . c V :.,.6.e.e.6.6.9.k.m.m.V.G.G.G.G.G.G.G.G.G.G.G.V.=.. . + R ~ $.%.%.%.' +.X.[ &.&.&.&.%.",
"%.%.%.W } | / _ %.%.%.%.%.%.^ ~ ; . . -.u.p.t.6.6.6.6.6.9.k.m.m.V.G.G.G.G.G.G.G.G.G.G.G.C.=.. . + Q ~ $.%.%.%.%.{ #...[ { O.{ %.",
"%.%.%.H Y W ~ %.%.%.%.%.%.$.^ ~ 5 . . m ,.e.6.6.6.6.4.6.9.j.z.z.M.A.A.S.F.F.D.D.F.D.S.A.N.*.. . + Q ^ $.%.%.%.%.&.{ #.+.+...&.%.",
"%.%.%.~ H ~ _ %.%.%.%.%.%.$.^ ~ 5 . . : r t N ,.6.6.6.6.w.0.q.q.s.g.g.b.N.V.m.V.V.m.b.g.d.I . . + Q ~ %.%.%.%.%.%.%.` @...] &.&.",
"%.%.%.%.%.%.%.%.%.%.%.%.$.$.^ R + . . . .   v ,.6.6.6.6.6.4.w.,.t.p.p.d.M.m.m.m.m.z.v.i.u.C . . + Q ~ %.%.%.%.%.%.$.J ( / Q %.%.",
"%.%.%.%.%.%.%.%.%.%.%.%.%.%.^ Q 9 O O O X O t V ;.>.,.w.6.w.e.e.t.p.p.f.b.x.x.x.x.l.d.p.t.V . . + Q ! $.%.%.%.%.%.$.K H ! %.%.%.",
"%.%.%.%.%.%.%.%.%.%.%.%.%.%.~ R x k h g s s 9 . . 7 ;.6.6.u.i.p.p.p.p.p.i.p.p.p.p.p.p.p.t.N . . + Q ~ $.%.%.%.%.%.%.^ ^ ^ %.%.%.",
"%.%.%.%.%.&.%.%.%.%.%.%.$.$.$.Q H x h h d d # X . 7 ;.6.w.u.p.p.i.t.u.u.t.t.u.i.p.i.p.p.u.-.. . + Q ^ $.%.%.%.%.%.%.%.%.%.%.%.%.",
"%.%.%.%.%.%.%.%.%.%.%.%.%.$.$.Q R x k k k d 9 X . 7 ;.6.6.u.p.p.3.-.N N -.N :.6.t.e.i.p.u.V . . + Q ^ $.%.%.%.%.%.%.%.%.%.%.%.%.",
"%.%.%.%.%.%.%.%.%.%.%.%.%.$.$.~ R x x x x k q X . 7 ;.6.w.t.p.p.N       . . : :.6.e.t.p.t.C . . + Q ^ ^ %.%.%.%.%.%.%.%.%.%.%.%.",
"%.%.%.%.%.%.%.%.%.%.%.%.%.%.$.$.~ ~ ~ R x x q X . 7 V ,.,.w.t.e.N ; .   . . : ;.,.,.6.e.w.N X X 5 R ~ %.%.%.%.%.%.%.%.%.%.%.%.%.",
"%.%.%.%.%.%.%.%.%.%.%.%.%.%.$.$.$.^ ^ ~ Q R q X . . 7 e t t v c u # $ @ . . ; : r r c c v i q p g R ~ $.%.%.%.%.%.%.%.%.%.%.%.%.",
"%.%.%.%.%.%.%.%.%.%.%.%.%.%.%.%.%.$.$.$.^ ~ f X . . . . . . . . 9 s s 9 X . . . . . . . . @ s k H ! ^ %.%.%.%.%.%.%.%.%.%.%.%.%.",
"%.%.%.%.%.%.%.%.%.%.%.%.%.%.%.%.%.%.%.%.^ Q f O . X X X . X . X 9 s s q O X . X . . X X X @ h k x Q $.%.%.%.%.%.%.%.%.&.%.%.%.%.",
"%.%.%.%.%.%.%.%.%.%.%.%.%.%.%.%.%.%.%.%.^ ~ R x h s p s s s s h h h h h s s % % p s s s s k x H Q Q $.%.%.%.%.%.%.%.%.%.%.%.%.%.",
"%.%.%.%.%.%.%.%.%.%.%.%.%.%.%.%.%.%.%.%.%.~ R x k d d d s h h h k x x x k h h s d d s h k k H R ^ ^ %.%.%.%.%.%.%.%.%.%.%.%.%.%.",
"%.%.%.%.%.%.%.%.%.%.%.%.%.%.%.%.%.%.%.%._ ~ Q x x k h h h k k x x R H H x k h k h k h k x x R ~ ^ $.%.%.%.%.%.%.%.%.%.%.%.%.%.%.",
"%.%.%.%.%.%.%.%.%.%.%.%.%.%.%.%.%.%.%.%._ ^ Q R x x x x x x H R W ` / Q H H x x x x x x x R Q $.$.$.%.%.%.%.%.%.%.%.%.%.%.%.%.%.",
"%.%.%.%.%.%.%.%.%.%.%.%.%.%.%.%.%.%.%.%._ ^ ^ ~ ~ R R R R R R ~ ) | | ) ~ R R R R R R ~ ~ Q $.$.$.%.%.%.%.%.%.%.%.%.%.%.%.%.%.%.",
"%.%.%.%.%.%.%.%.%.%.%.%.%.%.%.%.%.%.%.%.' ' _ _ ~ ~ ~ ^ ^ ~ ^ ^ ] ..X.] ^ ) ) ^ ~ ~ ~ $.$.$.$.%.%.%.%.%.%.%.%.%.%.%.%.%.%.%.%.%.",
"%.%.%.%.%.%.%.%.%.%.%.%.%.%.%.%.%.%.%.%. . ._ %._ _ _ ^ ^ _ _ _ ' o.X.] ) o.O._ $.$.$.$.$.%.%.%.%.%.%.%.%.%.&.%.%.%.%.%.%.%.%.%."
};
