/* XPM */
static char *result[] = {
/* columns rows colors chars-per-pixel */
"64 64 187 2 ",
"   c #232F3A",
".  c #2A2F3E",
"X  c #223239",
"o  c #253B3B",
"O  c #27423C",
"+  c #2A443E",
"@  c #2C4C3E",
"#  c #314F3D",
"$  c #2D503F",
"%  c #35553D",
"&  c #2D2E41",
"*  c #342D46",
"=  c #3D2D4C",
"-  c #233741",
";  c #253A45",
":  c #2B3847",
">  c #263D4A",
",  c #323F47",
"<  c #442D52",
"1  c #4F3059",
"2  c #5B2B62",
"3  c #593469",
"4  c #652B69",
"5  c #6B2A6D",
"6  c #742974",
"7  c #782A76",
"8  c #7B2A79",
"9  c #294341",
"0  c #2D4C42",
"q  c #2A464C",
"w  c #34434A",
"e  c #2E5242",
"r  c #2E5449",
"t  c #325544",
"y  c #325C43",
"u  c #335B4C",
"i  c #2A4454",
"p  c #2C4957",
"a  c #2C4A5C",
"s  c #374C59",
"d  c #35535C",
"f  c #356345",
"g  c #396747",
"h  c #376947",
"j  c #396B46",
"k  c #37654B",
"l  c #39654C",
"z  c #3A6D4B",
"x  c #3F7247",
"c  c #3C734D",
"v  c #366352",
"b  c #3C6E51",
"n  c #3D7252",
"m  c #3F7950",
"M  c #2E4E62",
"N  c #2F5265",
"B  c #345867",
"V  c #31556B",
"C  c #32596E",
"Z  c #345C73",
"A  c #355F78",
"S  c #396277",
"D  c #36627C",
"F  c #414E54",
"G  c #415159",
"H  c #5F5E57",
"J  c #535A58",
"K  c #416D41",
"L  c #437244",
"P  c #43744C",
"I  c #447B4E",
"U  c #497848",
"Y  c #4B794D",
"T  c #417653",
"R  c #417C54",
"E  c #437D59",
"W  c #415967",
"Q  c #4D834E",
"!  c #51854C",
"~  c #448256",
"^  c #4A8453",
"/  c #4E8A56",
"(  c #468559",
")  c #48875B",
"_  c #47885B",
"`  c #4A8C5E",
"'  c #548B51",
"]  c #518F58",
"[  c #4E915F",
"{  c #5B9454",
"}  c #54955D",
"|  c #5A9758",
" . c #56985E",
".. c #5C9B5B",
"X. c #63974E",
"o. c #619752",
"O. c #639C54",
"+. c #619E5A",
"@. c #65A056",
"#. c #6BA455",
"$. c #65A159",
"%. c #69A358",
"&. c #4B8F60",
"*. c #4D9262",
"=. c #519460",
"-. c #386581",
";. c #3A6985",
":. c #3B6D8A",
">. c #3D708F",
",. c #3E7292",
"<. c #3F7698",
"1. c #4D758C",
"2. c #407798",
"3. c #457A9A",
"4. c #427A9C",
"5. c #687882",
"6. c #437DA0",
"7. c #8B2885",
"8. c #94288C",
"9. c #9A2890",
"0. c #4E819E",
"q. c #568199",
"w. c #758187",
"e. c #798287",
"r. c #608190",
"t. c #63899C",
"y. c #6B8C9A",
"u. c #708E99",
"i. c #7E9399",
"p. c #4481A5",
"a. c #4B83A4",
"s. c #4684AA",
"d. c #4887AD",
"f. c #4789AF",
"g. c #4888AF",
"h. c #5689A8",
"j. c #598DAB",
"k. c #5E90AD",
"l. c #4788B0",
"z. c #4A8CB4",
"x. c #4B8FB9",
"c. c #4D92BC",
"v. c #5B95B7",
"b. c #5594B9",
"n. c #6091AE",
"m. c #6597B3",
"M. c #769EB1",
"N. c #7AA3B6",
"B. c #7DA1B8",
"V. c #9F9989",
"C. c #8C979E",
"Z. c #939A9E",
"A. c #BDA586",
"S. c #A5A698",
"D. c #B4A992",
"F. c #B5AD9A",
"G. c #BEB59F",
"H. c #88A1A7",
"J. c #94A6A7",
"K. c #88A8B6",
"L. c #D8B78F",
"P. c #C2AE91",
"I. c #C7B193",
"U. c #D3B590",
"Y. c #D8BC97",
"T. c #E2BF95",
"R. c #CBBEA6",
"E. c #CEC1A8",
"W. c #D2C5AC",
"Q. c #DBC8AA",
"!. c #E8CCA6",
"~. c #F4CEA2",
"^. c #FAD2A4",
"/. c #FFD7A8",
"(. c #89ADC3",
"). c #A0BDCF",
"_. c #B8CEDA",
"`. c #C7CBCD",
"'. c #C0D3DE",
"]. c #D6DADD",
"[. c #CFDEE7",
"{. c #DFE2E3",
"}. c #E6E9EB",
"|. c #ECEDEE",
" X c #F0F4F7",
".X c #F7F8F8",
"XX c #FFFFFF",
/* pixels */
"*.*.*.*.*.*.*.*.*.*.*.*.*.*.*.*.*.*.*.*.*.*.&.( R &.*.*.*.*.*.*.*.*.*.*.*.*.*.*.*.*.*.*.*.*.*.*.*.*.*.*.*.*.*.*.*.*.*.*.*.*.*.*.",
"*.*.*.*.*.*.*.*.*.*.*.*.*.*.*.*.*.*.*.*.*.*.&.&.) *.*.*.*.*.*.*.*.*.*.*.*.*.*.*.*.*.*.*.*.*.*.*.*.*.*.*.*.*.*.*.*.*.*.*.*.*.*.*.",
"*.*.*.*.*.*.*.*.=.*.*.*.*.*.*.*.*.*.*.*.*.*.*.*.*.*.*.*.*.[ *.*.*.*.*.*.*.*.*.*.*.*.*.*.*.*.*.*.*.*.*.*.*.*.*.*.*.*.=.*.*.*.*.*.",
"*.*.*.*.*.*.*.*.*.*.*.*.*.*.*.*.*.*.*.*.*.*.*.*.*.*.*.*.[  .} [ *.*.*.*.*.*.*.*.*.*.*.*.*.*.*.*.*.*.*.*.*.*.*.*.*.*.*.*.*.*.*.*.",
"*.*.*.*.*.*.*.*.*.*.*.*.*.*.*.*.*.*.*.*.*.*.*.*.*.*.*.[ ..+...*.*.*.*.*.*.*.*.*.=.*.*.*.*.*.*.*.*.*.*.*.*.*.*.*.*.*.*.*.*.*.*.*.",
"*.*.*.*.*.*.*.*.*.*.*.*.*.*.*.*.*.*.*.*.*.*.*.*.*.} *.} $.%...*.*.*.*.*.*.*.*.*.=.=.=.=.*.*.*.*.*.*.*.*.*.*.*.*.*.*.*.*.*.*.*.*.",
"*.*.*.*.*.*.*.*.*.*.*.*.*.*.*.*.*.*.*.*.*.*.*.*. .$.} ..%.#...*.*.*.*.*.*.*.*.*.*.=.+.=.*.*.*.*.*.*.*.*.*.*.*.*.*.*.*.*.*.*.*.*.",
"*.*.*.*.*.*.*.*.*.*.*.*.*.*.*.*.*.*.*.*.*.*.*.*...#.| { | @.} [ *.*.*.*.*.*.*.*.*.+.$.=.*.*.*.*.*.*.*.*.*.*.*.*.*.*.*.*.*.*.*.*.",
"*.*.*.*.*.*.*.*.*.*.*.*.*.*.*.*.*.*.*.*.*.*.*.*.] O.O.o.{ } *.*.*.*.=.*.*.*.=.=.=.+.%.=.*.*.*.*.*.*.*.*.*.*.*.*.*.*.*.*.*.*.*.*.",
"*.*.*.*.*.*.*.*.*.*.*.*.*.*.*.*.*.*.*.*.*.*.*.*.&.' o.{ / ` ` *.*.*.*.*.*.&.=.+.+.+.%.=.*.*.*.*.*.*.*.*.*.*.*.*.*.*.*.=.*.*.*.*.",
"*.*.*.*.*.*.*.*.*.*.*.*.E n n n b n n n n b n b T l g g l z b n n n m n b T T Y Y Y Y T n b n n ` *.*.*.*.*.*.*.*.*.*.*.*.*.*.*.",
"*.*.*.*.*.*.*.*.*.*.*.&.k 9 9 q 9 + + + 9 9 9 9 9 o o o + + 9 9 9 9 9 q 9 9 + + + + w 0 + 9 9 + n &.*.*.*.*.*.*.*.*.*.*.*.*.*.*.",
"*.*.*.*.*.*.*.*.*.&._ m u 9 ; ; > ; > > ; > ; ; : ; ; ; ; ; ; ; X X X X ; - ; - : o ; - - X X X n _ _ ` *.*.*.*.*.*.*.*.*.*.*.*.",
"*.*.*.*.*.*.&.*._ n v v B S Z Z C C C Z Z Z Z Z Z Z Z Z Z Z Z V X X X i N N N N N N N M i : X X a v v m ` *.*.*.*.*.*.*.*.*.*.*.",
"*.*.*.*.&.*.&.&.( u 9 q S p.s.s.s.s.s.s.s.s.d.s.p.s.p.d.s.s.s.4.X   X V :.,.,.,.,.,.,.:.Z i X X X o ; k ` *.*.*.*.=.*.*.*.*.*.*.",
"*.*.*.*.&.&.&.&.m r ; q ;.f.c.c.c.c.c.c.c.c.c.c.c.c.c.c.x.x.x.s.q w s S :.4.3.h.h.a.6.4.-.i X   - & - u _ *.*.*.*.=.*.*.*.*.*.*.",
"*.*.*.*.*.&.r q r D ,.4.d.c.c.c.c.c.c.c.c.c.c.c.c.c.c.c.z.s.s.j.`.`._.H s W C.'.[.).j.4.-.i X & 4 8 8 1 w e l ) *.*.*.*.*.*.*.*.",
"*.*.*.*.*.n 9 X > ;.d.x.x.c.c.c.c.c.c.c.c.c.c.c.c.c.c.x.l.6.6.j..X.X{.5., F C.}..X_.k.<.-.i X & 8 8.8.2 * o r E *.*.*.*.*.*.*.*.",
"*.*.*.*.*.m 9 X ; Z :.<.s.x.c.c.c.c.c.c.c.l.p.<.<.p.x.x.g.p.6.j.XXXX{.e., s Z.|.XX'.v.<.-.i   & 8 8.9.4 & X t E &.&.*.*.*.*.*.*.",
"*.*.*.*.&.n 9 X - > i M :.z.c.c.c.c.c.c.c.p.D p p ;.f.x.g.6.6.j.XXXX{.e., F Z.|.XX'.j.<.-.i   & 8 8.9.2 & o 0 E &.&.&.*.*.*.*.*.",
"*.*.*.*.&.n 9 X X X - i ;.z.c.b.c.c.c.c.c.6.V - ; D d.x.z.p.6.j.XXXX{.e., F Z.|.XX'.n.4.-.>   & 6 7.7.2 . X e E ) &.&.*.*.*.*.*.",
"*.*.&.` _ n O X o i N Z ,.x.c.c.c.c.c.c.c.d.;.V V ,.l.x.d.6.6.j.XXXX}.e., F Z.|.XX'.k.4.-.M   - 2 5 5 < . o 0 T ` ` *.&.*.*.*.*.",
"*.=.*.` _ b O X ; D <.p.f.c.c.c.c.c.c.c.c.z.s.p.p.d.z.x.d.6.6.j.XXXX].e.w F Z.|.XX_.n.4.-.>     & * * .   X e n ` ` *.*.*.*.*.*.",
"*. . .[ _ b O X > >.f.c.c.c.c.c.c.c.c.c.c.c.c.c.c.c.c.x.z.p.6.j. X X].w.w s C.}. X_.j.,.-.> & & X X X X X o t T _ *.[ *.*.=.=. .",
"*...+.} ) z + X > :.z.c.c.c.c.c.c.c.c.c.c.c.c.c.c.c.c.c.d.p.6.a.(.(.B.1.1.1.q.K.(.y.Z M G 3 5 4 & X X o e y z m _ *.&.*.}  ...+.",
"*.+...| ] P o X > :.z.c.c.c.c.c.c.c.c.c.c.c.c.c.c.c.c.x.f.p.6.6.a.a.a.3.<.4.6.6.a.-.> & < 6 8.7.= X X @ f z m ~ _ ` &.&.} ..+.+.",
"*.+.+...{ Y O X > ;.g.c.c.c.c.c.c.c.c.c.c.c.c.c.c.c.c.x.l.p.6.6.4.6.6.6.6.6.6.6.6.D ;   < 7 9.7.=   X @ k c m ( ` &.&.&.=.+.+...",
"*.......| Y +   > ;.z.c.c.c.c.c.c.c.c.c.c.c.c.c.c.c.c.x.l.p.6.6.6.6.6.6.6.6.6.6.6.-.>   < 7 9.7.<   X e h m ~ ( ` &.&.*. .+...=.",
"*.} } | | Y +   > ;.d.z.z.z.z.z.c.x.x.z.z.x.x.c.c.c.x.x.d.6.6.6.6.6.6.6.6.6.6.6.6.D > X < 5 8.7.=     0 c R ( _ ` ` *.*.=. .=.*.",
"*.*.*.[ ] P + X : C ;.,.,.,.>.2.,.,.>.>.,.<.d.c.x.x.z.z.s.6.6.6.6.6.6.6.6.6.6.6.6.D > X * 2 6 5 *   X e n ~ _ ` *.*.*.*.*.*.*.=.",
"*.*.*.` ) z + X X ; i i i i i i i i i i i N 2.c.x.l.p.6.6.6.6.6.4.6.6.6.6.6.6.6.0.D - X   * = * X X X e m _ ` ` *.*.*.*.*.*.*.*.",
"*.*.*.` ) n + X X X X X X X X X X X X X X a ,.x.x.l.p.6.6.6.6.6.6.6.6.6.6.4.4.2.<.Z >     X X X X X X t m ` ` *.*.*.*.*.*.*.*.*.",
"*.*.*.` _ m y e # @ @ @ # # # # X X > N A ;.6.c.x.z.f.d.s.f.f.f.6.6.6.6.6.<.;.V V p - X X O @ @ $ % % j ~ ` &.*.*.*.*.*.*.*.*.*.",
"*.*.*.&._ ~ n z h f f j K K K % X X a :.s.x.x.c.c.c.c.c.c.x.c.f.6.6.6.4.6.,.V ; X X X X o $ f h x L U Q / ) ` *.*.*.*.*.*.*.*.*.",
"*.*.*.` _ ( m c z j j j K U L y X   a <.x.c.c.c.c.c.c.c.c.c.c.x.6.6.6.6.6.,.V - X X o O @ y h h L U ! Q ) ` &.*.*.*.*.*.*.*.*.*.",
"*.*.*.` ` ( R c c c c c L L x y X X a ,.z.c.c.c.c.c.c.c.c.c.c.x.6.6.6.6.6.,.N - X o $ $ y f z c m I ^ ^ _ ) &.*.*.*.*.*.*.*.*.*.",
"*.*.*.` ` _ ( ~ R R R T m T c f X   i ,.z.c.c.c.c.c.c.c.c.c.c.x.6.6.4.3.4.,.N - X O y h z c m m m ~ ~ _ ) &.&.*.*.*.*.*.*.*.*.*.",
"*.*.*.*.*.) _ ( ( ( ~ _ ~ ~ R z X X d 1.M.N.N.N.N.N.N.N.N.N.N.N.y.y.t.0.6.,.V X X + f c c m R ~ ~ ~ _ ) ` &.&.*.*.=.*.*.*.*.*.*.",
"*.*.*.*.&.&.&._ ` _ ` ` _ ~ R k     J V.R.W.W.W.W.W.W.W.W.W.W.E.D.D.S.u.0.>.V - X 9 h n m ~ ( _ ` _ &.&.*.*.*.*.*.*.*.*.*.*.*.*.",
"[ [ [ *.*.*.&.*.*.&.*.[ &.&.~ z     H P.~././././././././././.^.L.L.D.i.0.,.V ; X 9 z m R ( _ _ [ [ *.*.*.*.*.*.*.*.*.*.*.*.*.*.",
" ... . .[ [ *.*.*.*.*.*.&.&._ b X X H A.~.^./././././././././.^.L.L.D.C.0.<.D V V d u k k v b n ) &.*.*.*.*.*.*.*.*.*.*.*.*.*.*.",
" .$.#... . ... .*.*.*.*.&.&.~ b X X H A.~.^./././././././././.^.L.L.P.i.0.6.s.f.f.>.q X X - o o E ` *.*.*.*.*.*.*.*.*.*.*.=.*.*.",
"[ ..$.%.@.%.%. .*.*.*.*.&.) ~ z   X J A.~././././././././././.^.L.L.P.i.0.p.s.z.z.<.a q ; X X o n &.*.*.*.*.*. ...=.=.=.=.*.*.*.",
"*. . .@.#.#...} *.*.*.*.&.&.( b   X H A.~././././././././././.^.L.L.P.i.0.6.p.p.s.<.:.;.C > X o n ) ` *.*.*.[ ..%.+.=.=.=.=.=.*.",
"*.*./ ] { { ] [ *.*.*.*.*.` ( b X X H A.~././././././././././.^.L.L.A.i.0.p.6.6.p.p.l.s.:.a X X n _ &.*.*.*.*. .$.#.$...$.+.=.=.",
"*.*._ ^ / / ` *.*.*.*.*.&.` ( z X X J V.R.Q.!.~.~.~.~.~.!.Q.Q.E.D.D.S.y.0.0.6.6.p.<.<.<.-.i X o n _ &.*.*.*.*.*. .$.#.#.%.+.=.*.",
"*.*._ ~ ~ ` *.*.*.*.*.*.&.) ~ z     d r.M.J.G.T.T.T.T.Y.F.K.K.M.y.y.t.0.6.p.6.p.6.:.N a i - X X b _ ` *.*.*.*.*.*.| @.#.+.} *.=.",
"*.*.*.*.[ *.*.*.*.*.*.*.&.&.~ z X X p 2.z.m.S.L.U.L.L.I.J.m.c.x.0.<.p.0.6.<.<.6.<.D 9 X X X X X z ~ &.&.*.*.*.*.*.~ ' ' / ` *.*.",
"*.*.*.*.*.*.*.*.*.*.*.*.*.&.~ b X X i <.f.b.J.F.F.F.F.S.H.v.c.x.s.p.p.6.6.<.,.;.;.C 9 O O O O 9 b ( &.&.*.*.*.*.*.( R ~ ) *.*.*.",
"*.*.*.*.*.*.*.*.*.*.*.*.*.*.( b X X a ,.z.c.b.b.b.v.v.v.c.c.c.c.x.x.z.s.6.,.C ; - 9 y f f f h c R _ &.&.*.*.*.*.*.&._ ` *.*.*.*.",
"*.*.*.*.*.*.*.*.*.*.*.*.&.` ( b X X a ,.z.c.z.z.x.f.s.s.p.s.s.s.x.c.z.s.p.,.V - X O f h f z c m R _ ` *.*.*.*.*.*.&.*.&.*.*.*.*.",
"*.*.*.*.*.*.*.*.*.*.*.*.&.&.E z X X a <.z.x.f.f.s.>.S Z Z Z C D c.c.z.s.6.,.N - X O f z c c c m ( _ &.&.*.*.*.*.*.*.*.*.*.*.*.*.",
"*.*.*.*.*.*.*.*.*.*.*.*.&.&.E z X X p ,.f.x.s.6.<.S i ; ; ; ; p c.x.x.s.6.,.N - X O f c m c R ~ ( ` &.&.*.*.*.*.*.*.*.*.*.*.*.*.",
"*.*.*.*.=.*.*.*.*.*.*.*.*.` ( c O o p -.4.<.>.:.;.N - X X X o 9 p.6.4.,.:.-.M X X O z ~ R ~ ( _ _ ` &.&.*.*.*.*.*.*.*.*.*.*.*.*.",
"=.*.*.*.*.*.*.*.*.*.*.*.&.&.( m f y r p N M p p p ; X X O $ $ e N M M a i i ; X X 9 n ~ ( _ _ &.&.&.*.*.*.*.*.*.*.*.*.*.*.*.*.*.",
"*.*.*.*.*.*.*.*.*.*.*.*.&.&._ m m h y O X X X X X X X X + y h f X X X X X X X X X 0 n _ &.&.&.*.*.*.*.*.*.*.*.*.*.*.*.*.*.*.*.*.",
"*.*.*.*.*.*.*.*.*.*.*.*.*.&.( ~ m c f O o o X X X X X O $ f h h X - X o X X X o o e m &.&.&.*.*.*.*.*.*.*.*.*.*.*.*.*.*.*.*.*.*.",
"*.*.*.*.*.*.*.*.*.*.*.*.&.&.&.~ m m c h f f f f f f f f h h c j f f f f f y y f h c ~ _ &.&.*.*.*.*.*.*.*.*.*.*.*.*.*.*.*.*.*.*.",
"*.*.*.*.*.*.*.*.*.*.*.*.&.&.&.E ~ R m c h h h f h h h c c c m c c z z h h h f j c R ( _ ` &.*.*.*.*.*.*.*.*.*.*.*.*.*.*.*.*.*.*.",
"*.*.*.*.*.*.*.*.*.*.*.*.*.&.&._ _ ~ R m c c c c c x c c m m R R m m c z j c j x m R ( &.&.&.*.*.*.*.*.*.*.*.*.*.*.*.*.*.*.*.*.*.",
"*.*.*.*.*.*.*.*.*.*.*.*.*.*.&.` ` _ ~ R m m m m m m m R R ~ ~ ~ ' ! I m m m m m R ( _ _ *.*.*.*.*.*.*.*.*.*.*.*.*.*.*.*.*.*.*.*.",
"*.*.*.*.*.*.*.*.*.*.*.*.*.*.*.&.[ ` _ _ _ ~ ~ ~ R ~ ~ _ _ _ _ ` { X.' ^ ~ ~ ~ ~ E ~ _ &.*.*.*.*.*.*.*.*.*.*.*.*.*.*.*.*.*.*.*.=.",
"*.*.*.*.*.*.*.*.*.*.*.*.*.*.*.` ` ` [ ] [ ] ` _ _ _ _ _ _ _ [ ` | #.o.] _ ] ` _ &.&.*.*.*.*.*.*.*.*.*.*.*.*.*.*.*.*.*.*.*.*.*.*.",
"*.*.*.*.*.*.*.*.*.*.*.*.*.*.*.*.` [ [  .| } ` ` ` ` ` [ [ [ [ [ O.#.@.] | O. .[ &.*.*.*.*.*.*.*.*.*.*.*.*.*.*.*.*.*.*.*.*.*.*.*."
};
