/* XPM */
static char *_a8e1cce4f064d988eef5c17f7300e85av3AP0jGZ1OEtLw0[] = {
/* columns rows colors chars-per-pixel */
"64 64 178 2 ",
"   c #322F47",
".  c #3D3957",
"X  c #413D48",
"o  c #5B324D",
"O  c #6E3255",
"+  c #36484A",
"@  c #3C4C51",
"#  c #3E5F52",
"$  c #376846",
"%  c #386A47",
"&  c #3A644C",
"*  c #396C49",
"=  c #3D734D",
"-  c #3F7650",
";  c #3F7850",
":  c #5E4F46",
">  c #405F4A",
",  c #515947",
"<  c #46425C",
"1  c #7D484C",
"2  c #675F51",
"3  c #44794F",
"4  c #5B6C54",
"5  c #427C54",
"6  c #477A58",
"7  c #547155",
"8  c #7A665A",
"9  c #78695C",
"0  c #66785F",
"q  c #4C4A64",
"w  c #514F6A",
"e  c #5C5561",
"r  c #5B5B71",
"t  c #675F64",
"y  c #517A61",
"u  c #587C66",
"i  c #5D6E78",
"p  c #7C716A",
"a  c #66667D",
"s  c #9B1F42",
"d  c #873A49",
"f  c #893C4B",
"g  c #8D3C52",
"h  c #943952",
"j  c #A4274E",
"k  c #A72952",
"l  c #B62751",
"z  c #BF2651",
"x  c #B03353",
"c  c #8F4053",
"v  c #834B55",
"b  c #914254",
"n  c #944F57",
"m  c #9C4A52",
"M  c #8B5051",
"N  c #A24155",
"B  c #906254",
"V  c #AD536A",
"C  c #C85876",
"Z  c #C75778",
"A  c #C9657F",
"S  c #448157",
"D  c #488457",
"F  c #468559",
"G  c #4B855C",
"H  c #47885B",
"J  c #498B5D",
"K  c #568756",
"L  c #5A9254",
"P  c #54945D",
"I  c #57995F",
"U  c #5C9C5D",
"Y  c #639B55",
"T  c #619E5B",
"R  c #67A157",
"E  c #6DA455",
"W  c #64A15B",
"Q  c #69A55A",
"!  c #6FA958",
"~  c #78A754",
"^  c #74AC56",
"/  c #7AB055",
"(  c #4B8F60",
")  c #528363",
"_  c #5D8467",
"`  c #538B64",
"'  c #558E69",
"]  c #5B8E6C",
"[  c #4D9262",
"{  c #539661",
"}  c #57926A",
"|  c #5A956D",
" . c #599868",
".. c #5F9673",
"X. c #5D9A71",
"o. c #66826C",
"O. c #658C73",
"+. c #758A76",
"@. c #659677",
"#. c #67947A",
"$. c #779078",
"%. c #6C7D86",
"&. c #707186",
"*. c #7A7C8D",
"=. c #6F8E81",
"-. c #6C808D",
";. c #79828B",
":. c #6E9681",
">. c #769C84",
",. c #728794",
"<. c #788C98",
"1. c #7D919B",
"2. c #75A58A",
"3. c #7FAB94",
"4. c #838897",
"5. c #888D98",
"6. c #8E9797",
"7. c #88979C",
"8. c #A39A8D",
"9. c #B6988B",
"0. c #85A897",
"q. c #8DAE9C",
"w. c #84B394",
"e. c #87B29D",
"r. c #88B49E",
"t. c #879CA7",
"y. c #8FA4A9",
"u. c #93A7A6",
"i. c #96ABA2",
"p. c #93A5AD",
"a. c #96BEA4",
"s. c #99B8AD",
"d. c #91A6B0",
"f. c #9AADB2",
"g. c #9CB2B4",
"h. c #B7B7AE",
"j. c #A2A9B5",
"k. c #A2B2B3",
"l. c #ACB5BF",
"z. c #A9BCBF",
"x. c #D28A9B",
"c. c #D1BC83",
"v. c #C6BBAC",
"b. c #CEAFB3",
"n. c #E1BBAB",
"m. c #AACBB3",
"M. c #A6C5BC",
"N. c #E6CF8A",
"B. c #E8D491",
"V. c #E4D7A3",
"C. c #E4DDB2",
"Z. c #A6BBC2",
"A. c #B2BFC1",
"S. c #B5C0C1",
"D. c #B4C3CA",
"F. c #B5CECC",
"G. c #B9CCC8",
"H. c #BBD3C3",
"J. c #B9D4C9",
"K. c #B9CED1",
"L. c #BED4D5",
"P. c #CFD2C9",
"I. c #C0CBD1",
"U. c #C5D1D1",
"Y. c #CAD6D6",
"T. c #CAD7DA",
"R. c #C6DBDE",
"E. c #CCDDDA",
"W. c #DDD6D2",
"Q. c #DAE8DC",
"!. c #E2E0C1",
"~. c #FAFAC3",
"^. c #E9F2DD",
"/. c #F0F5D3",
"(. c #D4E2E2",
"). c #DFEDED",
"_. c #E4EFE5",
"`. c #E1EDEB",
/* pixels */
"[ [ [ [ [ [ [ [ [ [ [ [ [ [ [ [ [ [ [ [ [ [ [ H 5 [ [ [ [ [ [ [ [ [ [ [ [ [ [ [ [ [ [ [ [ [ [ [ [ [ [ [ [ [ [ [ [ [ [ [ [ [ [ [ ",
"[ [ [ [ [ [ [ [ [ [ [ [ [ [ [ [ [ [ [ [ [ [ [ ( ( ( [ [ [ [ [ [ [ [ [ [ [ [ [ [ [ [ [ [ [ [ [ [ [ [ [ [ [ [ [ [ [ [ [ [ [ [ [ [ ",
"[ [ [ [ [ [ [ [ [ [ [ [ [ [ [ [ [ [ [ [ [ [ [ [ [ [ [ [ [ [ [ [ [ [ [ [ [ [ [ [ [ [ [ [ [ [ [ [ [ [ [ [ [ [ [ [ [ [ [ [ [ [ [ [ ",
"[ [ [ [ [ [ [ [ [ [ [ [ [ [ [ [ [ [ [ [ [ [ [ [ [ [ [ [ [ U { [ [ [ [ [ [ [ [ [ [ [ [ [ [ [ [ [ [ [ [ [ [ [ [ [ [ [ [ [ [ [ [ [ ",
"[ [ [ [ [ [ [ [ [ [ [ [ [ [ [ [ [ [ [ [ [ [ [ [ [ [ [ [ P ! U [ [ [ [ [ [ [ [ [ [ [ [ [ [ [ [ [ [ [ [ [ [ [ [ [ [ [ [ [ [ [ [ [ ",
"[ [ [ [ [ [ [ [ [ [ [ [ [ [ [ [ [ [ [ [ [ [ [ [ [ [ [ [ ^ / U [ [ [ [ [ [ [ [ [ [ [ [ [ [ [ [ [ [ [ [ [ [ [ [ { [ [ [ [ [ [ [ [ ",
"[ [ [ [ [ [ [ [ [ [ [ [ [ [ [ [ [ [ [ [ [ [ [ [  .B b [ ^ / U [ [ [ [ [ { [ [ [ [ W W [ [ [ [ [ [ [ [ [ [ [ [ [ [ [ [ [ [ [ [ [ ",
"[ [ [ [ [ [ [ [ [ [ [ [ [ [ [ [ [ [ [ [ [ [ [ [ I m k 7 ~ U [ [ [ [ [ [ [ [ [ [ [ W Q [ [ [ [ [ [ [ [ [ [ [ [ [ [ [ [ [ [ [ [ [ ",
"[ [ [ [ [ [ [ [ [ [ [ [ [ [ [ [ [ [ [ [ [ [ [ ( P b k k M { [ [ [ [ [ [ [ [ [ U { W Q [ [ [ [ [ [ [ [ [ [ [ [ [ [ [ [ [ [ [ [ [ ",
"[ [ [ [ [ [ [ [ [ [ [ [ [ [ [ [ [ [ [ [ [ [ [ [ G g k k v ( 9 n n 8 [ [ [ [ [ ! U W Q [ [ [ [ [ [ [ [ [ [ [ [ [ [ [ [ [ [ [ [ [ ",
"[ [ [ [ [ [ [ [ [ [ [ [ [ [ [ [ [ [ [ [ [ [ [ ( J c k k v ( n z z N [ [ [ [ [ ! U W W [ [ [ [ [ [ [ [ [ [ [ [ [ [ [ [ [ [ [ [ [ ",
"[ [ [ [ [ [ { [ [ [ [ [ [ [ [ [ [ [ [ [ f s s 1 J c k k k k l z z N [ [ [ [ [ ! U [ [ [ [ [ [ [ [ [ [ [ [ [ [ [ [ [ [ [ [ [ [ [ ",
"[ [ [ [ [ [ [ [ [ [ [ [ [ [ [ [ [ [ { [ d s s d 2 h k k k k l z z x 9 9 9 ` [ { { [ [ [ [ [ [ [ [ [ [ [ [ [ [ [ [ [ [ [ [ [ [ [ ",
"[ [ [ [ [ [ [ [ [ [ [ [ [ [ [ [ [ [ ( ( d s s s s j k k k k l z z z z z z K [ [ [ [ [ [ [ [ [ [ [ [ [ [ [ [ { [ [ [ [ [ [ [ [ [ ",
"[ [ [ [ [ [ [ [ [ [ [ [ [ [ [ [ [ [ P J 6 4 s s s b.W.W.W.W.A z z z z z z _ D J [ [ [ [ [ [ [ [ [ [ [ [ [ [ [ [ [ [ [ [ [ [ [ [ ",
"[ [ [ [ [ [ [ [ [ [ [ [ [ [ [ [ [ [ J G @.$.V V V P._._._._.x.C Z Z Z Z Z >.] G [ [ [ [ [ [ [ [ [ [ [ [ [ [ [ [ [ [ [ [ [ [ [ [ ",
"[ [ [ [ [ [ [ [ [ [ [ [ [ [ [ [ [ [ { G H._._._._._._._._._._._.).).`.`.).).J.6 H [ [ [ [ [ [ [ [ [ [ [ [ [ [ [ [ [ [ [ [ [ [ [ ",
"[ [ [ [ [ [ [ [ [ [ [ [ [ [ [ [ [ [ w.m.Q._._._._._._._._._.`.`.).I.a l.).*.*.J.w.[ [ [ [ [ [ [ [ [ [ [ [ [ [ [ [ [ [ [ [ [ [ [ ",
"[ [ [ [ [ [ [ [ [ [ [ [ [ [ [ [ [ ( a._._._._._._._._._._._.`.`.).I.w Z.).&.&.).a.[ [ [ [ [ [ [ [ [ [ [ [ [ [ [ [ [ [ [ [ [ [ [ ",
"[ [ [ [ [ [ [ [ [ [ [ [ [ [ [ [ [ ( a._._._._._._._._._._._.`.`.).`.).).).).).).a.[ [ [ [ [ [ [ [ [ [ [ [ [ [ [ [ [ [ [ [ [ [ [ ",
"[ [ [ [ [ [ [ [ [ [ [ [ [ [ [ [  .m.Y._._._._._._._._._.`.`.).).).).)._./.C.!.).G.q.} [ [ [ [ [ [ [ [ [ [ [ [ [ [ [ [ [ [ [ [ [ ",
"[ [ [ [ [ [ [ [ [ [ [ [ [ [ [ [ X._.^._._._._._._._._._.`.).).).).).`./.~.B.V.).Y.S.} [ [ [ [ [ [ [ [ [ [ [ [ [ [ [ [ [ [ [ [ [ ",
"[ [ [ [ [ [ [ { [ [ [ [ [ [ [ J X._._._._._._._._.`.).).`.`.).).).).`.`.).).).).Y.M.} [ [ [ [ [ [ [ [ [ [ [ [ [ [ [ [ [ [ [ [ [ ",
"[ [ ! U [ [ [ [ [ [ [ [ [ [ [ [ X._._._._._._._.`.).).).).`.).).).T.j.j.j.j.A.`.Y.S.} ( [ [ [ [ [ [ [ [ [ [ [ [ [ [ [ [ [ [ { / ",
"[ [ ! U [ [ [ [ [ [ [ [ [ [ [ H } _._._._._._.`.).).).).).).).).).A.. . . . &.).Y.l.| J P [ [ [ [ [ [ [ [ [ [ [ [ [ [ [ U Q { / ",
"[ [ ! U I U [ [ [ [ [ [ [ [ [ H } `.`.`.`.`.`.).).).).).).).).).w w . X . . . w 5.A.] G ( [ [ [ [ [ [ [ [ [ [ [ [ [ [ [ U ! I / ",
"[ [ ! U W Q [ [ [ [ [ [ [ [ [ H ' J.E.).).).).).).).).).).).T.D.. < t q . t w X *.M.` J ( [ [ [ [ [ [ [ [ [ [ [ [ [ [ [ U ! [ Q ",
"[ [ Q I W Q [ [ [ [ [ [ [ [ J H 5 ; q.).).).).).).).).).).).*.. . t N.p . c.9.. *.S.` J ( [ [ [ [ [ [ [ [ [ [ [ [ [ [ [ U Q [ [ ",
"[ [ [ [ W Q [ [ [ [ [ [ [ [ ( H S ; e.`.`.).).).).).).).).).*.. . < t < . t e . *.S.` H [ [ [ [ [ [ [ [ [ [ [ [ [ [ [ [ [ [ [ [ ",
"[ [ [ [ [ [ [ [ [ [ [ [ [ [ ( J S 5 0.E.).).).).).).).).).).4.w . . . . . . X q ;.k.` H [ [ [ [ [ [ [ [ [ [ [ [ [ [ [ [ [ [ [ [ ",
"[ [ [ [ [ [ [ [ [ [ [ [ [ [ [ ( F 5 = * G.).).`.).).).).).).).).. . . . . . r A.>.; S H [ [ [ [ [ [ [ [ [ [ [ [ [ [ [ [ [ [ [ [ ",
"[ [ [ [ [ [ [ [ [ [ [ [ [ U U [ H S ; = O.>.>.s.).).).).(.U.U.U.5.5.5.5.5.5.*.=.) ; F ( [ [ [ [ [ U I [ [ [ [ [ [ [ [ [ [ [ [ [ ",
"[ [ [ [ [ [ [ [ [ [ [ [ { W W I J F S ; = * * >.).`.`.`.E.S.S.S.A.A.S.S.S.S.i.* = 5 F J ( [ [ [ I W W I [ [ [ [ [ [ [ [ [ [ [ [ ",
"[ [ [ [ [ [ [ [ [ [ [ [ W W W W ( H S ; = * * * * i.S.l.k.6.6.6.6.6.6.u $ % * = ; 5 H ( ( [ [ [ Q U W W [ [ [ [ [ [ [ [ [ [ [ [ ",
"[ [ [ [ [ [ [ [ [ [ [ [ [ W Q [ ( J H S ; ; = * > s.G.K.A.k.k.k.5.7.k.o.* * = = 5 F J ( [ [ [ [ [ W W [ [ [ [ [ [ [ [ [ [ [ [ [ ",
"[ [ [ [ [ [ [ [ [ [ [ [ [ [ [ [ [ [ J H F 5 ; ; = M.R.R.R.R.R.R.,.t.E.:.* = ; 5 F G ( ( [ [ [ [ [ [ [ [ [ [ [ [ [ [ [ [ [ [ [ [ ",
"[ [ [ [ [ [ [ [ [ [ [ [ [ [ [ [ [ [ [ J G H S :.F.L.R.R.R.R.f.1.,.-.%.g.F.) 5 H J J [ { [ [ [ [ [ [ [ [ [ [ [ [ [ [ [ [ [ [ [ [ ",
"[ [ [ [ [ [ [ [ [ [ [ [ [ [ [ [ [ [ [ [ ( ( G 2.E.R.R.R.R.R.d.,.,.-.i y.D.@...H ( [ [ [ [ [ [ [ [ [ [ [ [ [ [ [ [ [ [ [ [ [ [ [ ",
"[ [ [ [ [ [ [ [ [ [ [ [ [ [ [ [ [ [ [ [ ( ( ( 2.R.R.R.R.R.R.d.,.,.-.i i i K.M.[ [ [ [ [ [ [ [ [ [ [ [ [ [ [ [ [ [ [ [ [ [ [ [ [ ",
"[ { { { [ [ [ [ [ [ [ [ [ [ [ [ [ [ [ [ [ ( ( 2.R.R.R.R.D.t.<.,.,.-.i i i K.M.( [ [ [ [ [ [ [ [ [ [ [ [ [ [ [ [ [ [ [ [ [ [ [ [ ",
"[ ^ / U [ [ [ [ [ [ [ [ [ [ [ [ [ [ [ [ [ J | 3.R.R.R.R.Z.,.,.,.,.-.i i i K.M.( [ [ [ [ [ [ [ [ [ [ [ [ [ [ [ [ [ [ [ [ [ [ [ [ ",
"[ [ ! / W T / ^ [ [ [ [ [ [ [ [ [ [ [ [ [ X.R.R.R.R.R.R.Z.,.,.,.,.-.i i i F.M.J J [ [ [ [ [ [ [ [ [ [ [ [ [ [ [ [ [ [ [ [ [ [ [ ",
"[ [ { ! ^ ^ ! { [ [ [ [ [ [ [ [ [ [ [ [ [ X.R.R.R.R.R.R.Z.,.,.,.,.-.i i i 1.y.s.2.U W [ [ [ [ [ [ [ [ [ [ [ [ ! ! { [ P [ [ [ [ ",
"[ [ [ P E ! L [ [ [ [ [ [ [ [ [ [ [ [ [ ( | R.R.R.R.R.R.Z.,.,.,.,.-.i i i i <.R.r.T Q [ [ [ [ [ [ [ [ [ [ [ [ W / Q {  .W U [ [ ",
"[ [ [ ; K L S ( [ [ [ [ [ [ [ [ [ [ [ [ J } R.R.R.R.R.R.Z.,.,.,.i i i i i i <.E.r.T Q [ [ [ [ [ [ [ [ [ [ [ [ [ W / Q ! ^ W [ [ ",
"[ [ [ S ; S [ [ [ [ [ [ [ [ [ [ [ [ [ [ J } R.R.R.R.R.Z.d.,.,.,.i i i i i i ,.R.e.U W [ [ [ [ [ [ [ [ [ [ [ [ [ [ R ~ ~ W [ [ [ ",
"[ [ [ [ [ [ [ [ [ [ [ [ [ [ [ [ [ [ [ ( H ' R.R.R.R.R.,.,.,.,.,.i i i i i i ,.R.e.J ( [ [ [ [ [ [ [ [ [ [ [ [ { [ ; Y L S [ [ [ ",
"[ [ [ [ [ [ [ [ [ [ [ [ [ [ [ [ [ [ [ [ H ' R.R.R.R.R.,.,.,.,.,.i i i i i y.k.R.w.G J [ [ [ [ [ [ [ [ [ [ [ [ [ [ ; ; D [ [ [ [ ",
"[ [ [ [ [ [ [ [ [ [ [ [ [ [ [ [ [ [ [ [ H ' R.R.R.R.R.,.,.,.<.1.%.%.i %.-.f.g.z.2.H [ [ [ [ [ [ [ [ [ [ [ [ [ [ [ ( J ( [ [ [ [ ",
"[ [ [ [ [ [ [ [ [ [ [ { [ [ [ [ [ [ [ J H ' R.R.R.R.R.,.,.,.t.k.k.t.i 7.k.j.0.- 5 H ( [ [ [ [ [ [ [ [ [ [ [ [ [ [ [ [ [ [ [ [ [ ",
"[ [ [ [ [ [ [ [ [ [ [ [ [ [ [ [ [ [ [ [ H ) ..3.R.D.z.v.h.p.=.y 6 o.8.+.6 u 6 5 5 H [ [ [ [ [ [ [ [ [ [ [ [ [ [ [ [ [ [ [ [ [ [ ",
"[ [ [ [ [ [ [ [ [ [ [ [ [ [ [ [ [ [ [ J J S - #.F.g.u.n.v.u.u % * 4 9.0 * * = ; F H [ [ [ [ [ [ [ [ [ [ [ [ [ [ [ [ [ [ [ [ [ [ ",
"[ [ [ [ [ [ [ [ [ [ [ [ [ [ [ [ [ [ [ ( J S 5 = $ $ $ z f * % % * , s : * * 5 5 H J ( [ [ [ [ [ [ [ [ [ [ [ [ [ [ [ [ [ [ [ [ [ ",
"[ [ [ [ [ [ [ [ [ [ [ [ [ [ [ [ [ [ [ ( J F 5 - = * % O o @ & = = > o X + - % 6 H ( [ [ [ [ [ [ [ [ [ [ [ [ [ [ [ [ [ [ [ [ [ [ ",
"[ [ [ [ [ [ [ [ [ [ [ [ [ [ [ [ [ [ [ [ ( G S 5 = = * . . . # ; = &       % 5 = F [ [ [ [ [ [ [ [ [ [ [ [ [ [ [ [ [ [ [ [ [ [ [ ",
"[ [ [ [ [ [ [ [ [ [ [ [ [ [ [ [ [ [ [ [ ( J H S 5 ; = = ; ; 5 S 5 5 5 3 S = 5 S J [ [ [ [ [ [ [ [ [ [ [ [ [ [ [ [ [ [ [ [ [ [ [ ",
"[ [ [ [ [ [ [ [ [ [ [ [ [ [ [ [ [ [ [ [ [ [ J J F S 5 ; ; 5 S F S 5 ; F F H ; J [ [ [ [ [ [ [ [ [ [ [ [ [ [ [ [ [ [ [ [ [ [ [ [ ",
"[ [ [ [ [ [ [ [ [ [ [ [ [ [ [ [ [ [ [ [ [ [ ( ( J H S 5 S S F J F G F D F J J [ [ [ [ [ [ [ [ [ [ [ [ [ [ [ [ [ [ [ [ [ [ [ [ [ ",
"[ [ [ [ [ [ [ [ [ [ [ [ [ [ [ [ [ [ [ [ [ [ [ ( ( ( H F F F H J J D D F H J [ [ [ [ [ [ [ [ [ [ [ [ [ [ [ [ [ [ [ [ [ [ [ [ [ [ ",
"[ [ [ [ [ [ [ [ [ [ [ [ [ [ [ [ [ [ [ [ [ [ [ [ [ ( ( J H J J J U T H J J J ( [ [ [ [ [ [ [ [ [ [ [ [ [ [ [ [ [ [ [ [ [ [ [ [ [ ",
"[ [ [ [ [ [ [ [ [ [ [ [ [ [ [ [ [ [ [ [ [ [ [ [ ( [ ( ( J [ [ ( T ~ U J ( [ ( [ [ [ [ [ [ [ [ [ [ [ [ [ [ [ [ [ [ [ [ [ [ [ [ [ ",
"[ [ [ [ [ [ [ [ [ [ [ [ [ [ [ [ [ [ [ [ I { [ [ [ [ [ [ J [ [ [ T / E [ [ U [ [ [ [ [ [ [ [ [ [ [ [ [ [ [ [ [ [ [ [ [ [ [ [ [ [ ",
"[ [ [ [ [ [ [ [ [ [ [ [ [ [ [ [ [ [ [ [ ! U [ [ [ [ [ [ [ [ [ [ U ^ E J I / I [ [ [ [ [ [ [ [ [ [ [ [ [ [ [ [ [ [ [ [ [ [ [ [ [ ",
"[ [ [ [ [ [ [ [ [ [ [ [ [ [ [ [ [ [ [ [ ^ U [ [ [ [ [ [ [ [ [ [ [ U E 3 / / { [ [ [ [ [ [ [ [ [ [ [ [ [ [ [ [ [ [ [ [ [ [ [ [ [ "
};
