/* XPM */
static char *_04a708f49be494cfa27ff3ec6a941ec5JaSItYWQUxn6lVb[] = {
/* columns rows colors chars-per-pixel */
"64 64 172 2 ",
"   c #343948",
".  c #3D3957",
"X  c #6E2E4C",
"o  c #3B4B4A",
"O  c #395C4B",
"+  c #3D4056",
"@  c #3C5251",
"#  c #3E5A51",
"$  c #376946",
"%  c #386A47",
"&  c #3B614D",
"*  c #3A6D4A",
"=  c #3D734E",
"-  c #3F7750",
";  c #3F7851",
":  c #5D4E46",
">  c #4B5448",
",  c #47425A",
"<  c #48425A",
"1  c #524C5E",
"2  c #64454F",
"3  c #72544F",
"4  c #784E50",
"5  c #6A5951",
"6  c #466248",
"7  c #44794F",
"8  c #426E50",
"9  c #417651",
"0  c #427C54",
"q  c #497658",
"w  c #4C7A5B",
"e  c #597758",
"r  c #78685B",
"t  c #62755C",
"y  c #69775E",
"u  c #63785E",
"i  c #4C4964",
"p  c #5B5B72",
"a  c #675F64",
"s  c #577E65",
"d  c #5D6E78",
"f  c #7C716A",
"g  c #686B7E",
"h  c #63747D",
"j  c #9B1F42",
"k  c #9E2146",
"l  c #912D46",
"z  c #8A3E4B",
"x  c #9C3653",
"c  c #A72952",
"v  c #AE2E51",
"b  c #B32751",
"n  c #BF2651",
"m  c #944E58",
"M  c #855658",
"N  c #A34055",
"B  c #458157",
"V  c #488457",
"C  c #468559",
"Z  c #48875B",
"A  c #47885B",
"S  c #4A8B5E",
"D  c #548A52",
"F  c #5B9152",
"G  c #53935D",
"H  c #5A9659",
"J  c #56995F",
"K  c #5C9C5D",
"L  c #649753",
"P  c #619E5C",
"I  c #709052",
"U  c #6DA455",
"Y  c #64A15B",
"T  c #69A559",
"R  c #6EA858",
"E  c #74AB56",
"W  c #7AAF55",
"Q  c #7AB055",
"!  c #4C8E60",
"~  c #5B8560",
"^  c #528865",
"/  c #5E8C6E",
"(  c #4D9262",
")  c #529561",
"_  c #559860",
"`  c #539368",
"'  c #59936D",
"]  c #5E9971",
"[  c #688164",
"{  c #668A74",
"}  c #6C8D7D",
"|  c #708D7E",
" . c #6B9B7E",
".. c #709A7F",
"X. c #69A17F",
"o. c #6A7C87",
"O. c #6A7D8A",
"+. c #787A8C",
"@. c #778A88",
"#. c #789585",
"$. c #729B83",
"%. c #728794",
"&. c #778991",
"*. c #7C9396",
"=. c #72A384",
"-. c #76A48A",
";. c #79AA8F",
":. c #8B8B86",
">. c #8E9797",
",. c #83949A",
"<. c #8BA999",
"1. c #8DB29A",
"2. c #B0A898",
"3. c #8E93A2",
"4. c #869AA3",
"5. c #879BA4",
"6. c #979EA5",
"7. c #8FA0A5",
"8. c #92A6AD",
"9. c #98A9AD",
"0. c #92B3A7",
"q. c #97BEA4",
"w. c #99B5AC",
"e. c #92A7B0",
"r. c #9CADB0",
"t. c #9AB6B2",
"y. c #9CB1B9",
"u. c #A8AAA6",
"i. c #A1ABAB",
"p. c #A5AEB4",
"a. c #A1B2B3",
"s. c #A9B8B8",
"d. c #B0BBBB",
"f. c #CF899F",
"g. c #D18A9B",
"h. c #C196A0",
"j. c #C8A1A7",
"k. c #9AC0AD",
"l. c #A4C2BA",
"z. c #E6CF8A",
"x. c #CCC5B7",
"c. c #DDCDB7",
"v. c #F5EFB5",
"b. c #ABBFC4",
"n. c #DBBDC0",
"m. c #AECBC5",
"M. c #B5C0C1",
"N. c #BAC5C5",
"B. c #B5C3C9",
"V. c #B4CBC9",
"C. c #B7D0C6",
"Z. c #B6D0CE",
"A. c #BCD4CC",
"S. c #BCD1D5",
"D. c #C0CBD1",
"F. c #CAD6D6",
"G. c #C8D9D6",
"H. c #C1D6DA",
"J. c #CBD7DA",
"K. c #C6DBDE",
"L. c #DDD6D2",
"P. c #CCE1DB",
"I. c #D0E1D3",
"U. c #E1E2C8",
"Y. c #F6F8C8",
"T. c #E4E9D6",
"R. c #D5E3E3",
"E. c #DAE7E7",
"W. c #DFEDED",
"Q. c #E4EFE5",
"!. c #E1EDEA",
"~. c #E7F1E0",
/* pixels */
"( ( ( ( ( ( ( ( ( ( ( ( ( ( ( ( ( ( ( ( ( ( ( ( ( ( ( ( ( ( ( ( ( ( ( ( ( ( ( B C ( ( ( ( ( ( ( ( ( ( ( ( ( ( ( ( ( ( ( ( ( ( ( ",
"( ( ( ( ( ( ( ( ( ( ( ( ( ( ( ( ( ( ( ( ( ( ( ( ( ( ( ( ( ( ( ( ( ( ( ( ( ( ( ! ( ( ( ( ( ( ( ( ( ( ( ( ( ( ( ( ( ( ( ( ( ( ( ( ",
"( ( ( ( ( ( ( ( ( ( ( ( ( ( ( ( ( ( ( ( ( ( ( ( ( ( ( ( ( ( ( ( ( ( ( ( ( ( ( ( ( ( ( ( ( ( ( ( ( ( ( ( ( ( ( ( ( ( ( ( ( ( ( ( ",
"( ( ( ( ( ( ( ( ( ( ( ( ( ( ( ( ( ( ( ( ( ( ( ( ( ( ( ( ( ( ( ( ( _ J ( ( ( ( ( ( ( ( ( ( ( ( ( ( ( ( ( ( ( ( ( ( ( ( ( ( ( ( ( ",
"( ( ( ( ( ( ( ( ( ( ( ( ( ( ( ( ( ( ( ( ( ( ( ( ( ( ( ( ( ( ( ( ( K R ) ( ( ( ( ( ( ( ( ( ( ( ( ( ( ( ( ( ( ( ( ( ( ( ( ( ( ( ( ",
"( ( ( ( ( ( ( ( ( ( ( ( ( ( ( ( ( ( ( ( ( ( ( ( ( ( ( ( ( ( ( ( ( P Q E ( ( ( ( ( ( ( ( ( ( ( ( ( ( ( ( ( ( ( ( ( ( ( ( ( ( ( ( ",
"( ( ( ( ( ( ( ( ( ( ( ( ( ( ( ( ( ( ( ( ( T Y ( ( ( ( ( ( ( ( ( ( P Q E ( ( E J ( ( ( ( ( ( ( ( ( ( ( ( ( ( ( ( ( ( ( ( ( ( ( ( ",
"( ( ( ( ( ( ( ( ( ( ( ( ( ( ( ( ( ( ( ( ( T Y ( ( ( ( ( ( ( ( ( ( ) P E 0 R Q J ( ( ( ( ( ( ( ( ( ( ( ( ( ( ( ( ( ( ( ( ( ( ( ( ",
"( ( ( ( ( ( ( ( ( ( ( ( ( ( ( ( ( ( ( ( ( T Y _ P ( ( ( ( ( ( ( ( ( ( F F Q F G ( ( ( ( ( ( ( ( ( ( ( ( ( ( ( ( ) ( ( ( ( ( ( ( ",
"( ( ( ( ( ( ( ( ( ( ( ( ( ( ( ( ( ( ( ( ( T Y K R ( ( ( ( ( ( ( ( ( ! B I I B S ( ( ( ( ( ( ( ( ( ( ( ( ( ( ( ( ( ( ( ( ( ( ( ( ",
"( ( ( ( ( ( ( ( ( ( ( ( ( ( ( ( ( ( ( ( ( T P P R ( ( ( ( ( ( ( ( ( ( ! 5 c u ) ( ( ( ( ( ( ( ( ( ( ( ( ( ( ( ( ( ( ( ( ( ( ( ( ",
"( ( ( ( ( ( ( ( ( ( ( ( ( ( ( ( ( ( ( ( ( ( ( K R ( ( ( ( ( ( ( ( ( ! M x c u ! ( ( ( ( ( ( ( ( ( ( ( ( ( ( ( ( ( ( ( ( ( ( ( ( ",
"( ( ( ( ( ( ( ( ( ( ( ( ( ( ( ( ( ( ( ( ( ( ( ( ) ( ( ( ( ( ~ y y D ( x c c t ! ( ( ( ( ( ( ( ( ( ( ( ( ( ( ( ( ( ( ( ( ( ( ( ( ",
"( ( ( ( ( ( ( ( ( ( ( ( ( ( ( ( ( ( ( ( ( ( ( ( ( ( ( ( ( ( m n n M ( x c c t S ( ( ( ( ( ( ( ( ( ( ( ( ( ( ( ( ( ( ( ( ( ( ( ( ",
"( ( ( ( ( ( ( ( ( ( ( ( ( ( ( ( ( ( ( ( ( ( ( ( S C ( ( ( ( m n n v x c c c t e l l z ( ( ( ( ( ( ( ( ( ( ( ( ( ( ( ( ( ( ( ( ( ",
"( ( ( ( ( ( ) ( ( ( ( ( ( ( ( ( ( ( ( ( ( ( ( S A B A f r r N n n b c c c c 4 3 k j l ! ( ( ( ( ( ( ( ( ( ( ( ( ( ( ( ( ( ( ( ( ",
"( ) ( ( ( ( ( ( ( ( ( ( ( ( ( ( ( ( ( ( ( ( ( ( 9 S 9 N n n n n n b c c c x k j j j l ! G ( ( ( ( ( ( ( ( ( ( ( ( ( ( ( ( ( ( ( ",
"( ( ( ( ( ( ( ( ( ( ( ( ( ( ( ( ( ( ( ( ( ( ( ( ! 9 ( x n n n n n g.L.L.L.L.N j j 5 V S ! ( ( ( ( ( ( ( ( ( ( ( ( ( ( ( ( ( ( ( ",
"( ( ( ( ( ( ( ( ( ( ( ( ( ( ( ( ( ( ( ( ( ( ( ( ( ] q.h.f.f.f.f.g.j.Q.Q.Q.Q.j.f.g.2.1.S S ! ( ( ( ( ( ( ( ( ( ( ` ( ( ( ( ( ( ( ",
"( ( ( ( ( ( ( ( ( ( ( ( ( ( ( ( ( ( ( ( ( ( ( ( ) -.W.W.!.W.W.W.Q.Q.Q.Q.Q.Q.Q.Q.~.P.I.A S ( ( ( ( ( ( ( ( ( ( ( ( ( ( ( ( ( ( ( ",
"( ( ( ( ( ( ( ( ( ( ( ( ( ( ( ( ( ( ( ( ( ( ( ( P.B.. b.F.. p.W.W.Q.Q.Q.Q.Q.Q.Q.Q.Q.Q.Q.q.! ( ( ( ( ( ( ( ( ( ( ( ( ( ( ( ( ( ( ",
"( ( ( ( ( ( ( ( ( ( ( ( ( ( ( ( ( ( ( ( ( ( ( ( P.J.3.J.R.3.S.W.W.W.Q.Q.Q.Q.Q.Q.Q.Q.Q.Q.q.( ( ( ( ( ( ( ( ( ( ( ( ( ( ( ( ( ( ( ",
"( ( ( ( ( ( ( ( ( ( ( ( ( ( ( ( ( ( ( ( ( ( ` ` J.Q.Q.!.!.!.W.W.W.W.Q.Q.Q.Q.Q.Q.Q.Q.~.Q.k.] ( ( ( ( ( ( ( ( ( ( ( ( ( ( ( ( ( ( ",
"Q ) ( ( ( ( ( ( ( ( ( ( ( ( ( ( ( ( ( ( ( ( =.m.E.L.z.v.Y.!.W.W.W.W.W.Q.Q.Q.Q.Q.Q.Q.Q.Q.Q.Q.! ( ( ( ( ( ( ( ( ( ( ( ( ( P R ( ( ",
"Q ) R K ( ( ( ( ( ( ( ( ( ( ( ( ( ( ( ( ( ( =.n.R.W.U.T.Q.W.W.W.W.W.W.W.W.Q.Q.Q.Q.Q.Q.Q.Q.Q.S ( ( ( ( ( ( ( ( ( ( ( ( ( K R ( ( ",
"Q ) R K ( ( ( ( ( ( ( ( ( ( ( ( ( ( ( ( ( S $.l.E.R.J.K.F.F.R.W.W.W.W.W.W.W.Q.Q.Q.Q.Q.Q.Q.Q.S ! ( ( ( ( ( ( ( ( ( ( K K K R ( ( ",
"T ` R K ( ( ( ( ( ( ( ( ( ( ( ( ( ( ( ( ( S $.M.E.B.. . . . p.W.W.W.W.W.W.W.W.W.~.Q.Q.Q.Q.~.S S ( ( ( ( ( ( ( ( ( ( T Y K R ( ( ",
"( ( Y K ( ( ( ( ( ( ( ( ( ( ( ( ( ( ( ( S S ..M.+.p . . . . p g W.W.W.W.W.W.W.W.W.W.W.W.W.W.A S ( ( ( ( ( ( ( ( ( ( T Y K T ( ( ",
"( ( ( ( ( ( ( ( ( ( ( ( ( ( ( ( ( ( ( ( ! A ..d.i , a , . a 1 . b.R.W.W.W.W.W.W.W.W.W.W.P.C.B S ( ( ( ( ( ( ( ( ( ( T Y ( ( ( ( ",
"( ( ( ( ( ( ( ( ( ( ( ( ( ( ( ( ( ( ( ( ! A ..M.i a z.a 1 z.f . . 6.W.W.W.W.W.W.W.W.W.W.1.; B A ( ( ( ( ( ( ( ( ( ( ( ( ( ( ( ( ",
"( ( ( ( ( ( ( ( ( ( ( ( ( ( ( ( ( ( ( ( S C  .d.i , a , < a , . . 3.W.W.W.W.W.W.W.W.W.W.1.; C A ( ( ( ( ( ( ( ( ( ( ( ( ( ( ( ( ",
"( ( ( ( ( ( ( ( ( ( ( ( ( K K ( ( ( ( ( ! C / <.g p . . . . . . +.b.W.W.W.W.W.W.W.W.R.t.$.; C S ( P J ( ( ( ( ( ( ( ( ( ( ( ( ( ",
"( ( ( ( ( ( ( ( ( ( ( ( _ Y Y _ ( ( ( ! ! A 0 = s.6.. . . . . . W.W.!.!.W.W.W.W.W.W.G.= - 0 C ! J Y Y J ( ( ( ( ( ( ( ( ( ( ( ( ",
"( ( ( ( ( ( ( ( ( ( ( ( Y Y Y Y ( ( ( ( ! A 0 - q { p.p.p.p.p.p.b.D.N.E.W.W.!.V.w w w = ; C A ! Y K Y Y ( ( ( ( ( ( ( ( ( ( ( ( ",
"( ( ( ( ( ( ( ( ( ( ( ( ) Y T ( ( ( ( ( S A C ; * q #.#.#.i.r.i.u.u.p.D.F.F.w.#.$ % = ; ; A S ( ( T Y ( ( ( ( ( ( ( ( ( ( ( ( ( ",
"( ( ( ( ( ( ( ( ( ( ( ( ( ( ( ( ( ( ( ( ( S C 0 9 * % * 8 >.>.>.>.>.>.d.M.M.s * * = - ; A S ! ( ( ( ( ( ( ( ( ( ( ( ( ( ( ( ( ( ",
"( ( ( ( ( ( ( ( ( ( ( ( ( ( ( ( ( ( ( ( ! ! A B 0 = = * w K.e.%.K.K.K.K.K.K./ * - ; ; C A ! ! ( ( ( ( ( ( ( ( ( ( ( ( ( ( ( ( ( ",
"( ( ( ( ( ( ( ( ( ( ( ( ( ( ( ( ( ( ( ( ( ( S A V 0 ; $.;.8.*.%.y.V.K.K.K.K.0.$.; B A A ! ( ( ( ( ( ( ( ( ( ( ( ( ( ( ( ( ( ( ( ",
"( ( ( ( ( ( ( ( ( ( ( ( ( ( ( ( ( ( ( ( ( ( ! ! S ! ^ t.M.d O.%.%.y.K.K.K.K.K.l.C A S ! ! ! ( ( ( ( ( ( ( ( ( ( ( ( ( ( ( ( ( ( ",
"( ( ( ( ( ( ( ( ( ( ( ( ( ( ( ( ( ( ( ( ( ( ( ! !  .K.&.d d O.%.%.y.K.K.K.K.K.l.A S ! ( ( ( ( ( ( ( ( ( ( ( ( ( ( ( ( ( ( _ _ ( ",
"( ( ( ( ( ( ( ( ( ( ( ( ( ( ( ( ( ( ( ( ( ( ( ( ! X.K.&.d d O.%.%.4.e.H.K.K.K.s.B ! ( ( ( ( ( ( ( ( ( ( ( ( ( ( ( ( ( ( K Q E ( ",
"( ( ( ( ( ( ( ( ( ( ( ( ( ( ( ( ( ( ( ( ( ( ( ( ( X.K.&.d d O.%.%.%.%.S.K.K.K.m.' ` ! ( ( ( ( ( ( ( ( ( ( ( ( ( E Q K Y Q R ( ( ",
"( ( ( ( ( ( _ R R ( ( ( ( ( ( ( ( ( ( ( ( P K ( !  .K.&.d d O.%.%.%.%.S.K.K.K.K.K.;.! ( ( ( ( ( ( ( ( ( ( ( ( ( J E E E R J ( ( ",
"( ( P Y _ ) T Q Y ( ( ( ( ( ( ( ( ( ( ( ( T P J k.t.&.h d d O.%.%.%.%.S.K.K.K.K.K.;.! ( ( ( ( ( ( ( ( ( ( ( ( ( ( H U U G ( ( ( ",
"( ( Y E R T Q T ( ( ( ( ( ( ( ( ( ) ( ( ( T Y K A.b.d d d d o.o.%.%.%.S.K.K.K.K.K.;.! ! ( ( ( ( ( ( ( ( ( ( ( ( ( C D D 0 ( ( ( ",
"( ( ( Y E E T ( ( ( ( ( ( ( ( ( ( ( ( ( ( Y P H A.b.d d d d d d %.%.%.S.K.K.K.K.K.-.! ! ( ( ( ( ( ( ( ( ( ( ( ( ( ( B 7 B ( ( ( ",
"( ( ( 0 F L ; ( ( ( ( ( ( ( ( ( ( ( ( ( ( ( ! H A.b.d d d d d d %.%.%.5.y.K.K.K.K.-.A ! ! ( ( ( ( ( ( ( ( ( ( ( ( ( ( ( ( ( ( ( ",
"( ( ( ( B 0 0 ( ( ( ( ( ( ( ( ( ( ( ( ( ( S S S Z.B.@.h d d d d %.%.%.%.e.K.K.K.K.-.A ! ( ( ( ( ( ( ( ( ( ( ( ( ( ( ( ( ( ( ( ( ",
"( ( ( ( ( S S ( ( ( ( ( ( ( ( ( ( ( ( ( ( ( ! B Z.S.r.o.d d d d %.%.%.%.e.K.K.K.H.-.A ! ( ( ( ( ( ( ( ( ( ( ( ( ( ( ( ( ( ( ( ( ",
"( ( ( ( ( ( ( ( ( ( ( ( ( ( ( ( ( ( ( ( ( ! ! A ^ } a.r.7.g ,.9.r.5.%.%.e.K.K.K.K.-.A S ( ( ( ( ( ( ( ( ( ( ( ( ( ( ( ( ( ( ( ( ",
"( ( ( ( ( ( ( ( ( ( ( ( ( ( ( ( ( ( ( ( ( ! ! B 0 w } } | :.| } } *.5.u.s.V.S.Z.;./ A ! ! ( ( ( ( ( ( ( ( ( ( ( ( ( ( ( ( ( ( ( ",
"( ( ( ( ( ( ( ( ( ( ( ( ( ( ( ( ( ( ( ( ( ! ! B 0 = * % q 2.[ $ $ } a.c.x.a.S.s.- B A S ( ( ( ( ( ( ( ( ( ( ( ( ( ( ( ( ( ( ( ( ",
"( ( ( ( ( ( ( ( ( ( ( ( ( ( ( ( ( ( ( ( ( ! S Z B ; = % 6 j : $ % % % v z % % * - 0 ! ! ( ( ( ( ( ( ( ( ( ( ( ( ( ( ( ( ( ( ( ( ",
"( ( ( ( ( ( ( ( ( ( ( ( ( ( ( ( ( ( ( ( ( ) ! S 0 % - O o X > = * & > X 2 % * - ; B A ! ( ( ( ( ( ( ( ( ( ( ( ( ( ( ( ( ( ( ( ( ",
"( ( ( ( ( ( ( ( ( ( ( ( ( ( ( ( ( ( ( ( ( ( ! Z 0 0 * o     O = - # + + @ * - - 0 A ! ! ( ( ( ( ( ( ( ( ( ( ( ( ( ( ( ( ( ( ( ( ",
"( ( ( ( ( ( ( ( ( ( ( ( ( ( ( ( ( ( ( ( ( ( ( S B 0 0 0 0 = 0 0 ; ; - - * - - 0 A A ! ! ( ( ( ( ( ( ( ( ( ( ( ( ( ( ( ( ( ( ( ( ",
"( ( ( ( ( ( ( ( ( ( ( ( ( ( ( ( ( ( ( ( ( ( ( ( S 0 S C B 0 B B B B 0 ; ; 0 B A S ! ( ( ( ( ( ( ( ( ( ( ( ( ( ( ( ( ( ( ( ( ( ( ",
"( ( ( ( ( ( ( ( ( ( ( ( ( ( ( ( ( ( ( ( ( ( ( ( ( ! S C Z C B Z C C B 0 B C C ! ( ( ( ( ( ( ( ( ( ( ( ( ( ( ( ( ( ( ( ( ( ( ( ( ",
"( ( ( ( ( ( ( ( ( ( ( ( ( ( ( ( ( ( ( ( ( ( ( ( ( ! S S Z Z S S ! B B B B ! ! ! ( ( ( ( ( ( ( ( ( ( ( ( ( ( ( ( ) ( ( ( ( ( ( ( ",
"( ( ( ( ( ( ( ( ( ( ( ( ( ( ( ( ( ( ( ( ( ( ( ( ( ( S S S S L H ! ! ! A ! ! ! ! ( ( ( ( ( ( ( ( ( ( ( ( ( ( ( ( ( ( ( ( ( ( ( ( ",
"( ( ( ( ( ( ( ( ( ( ( ( ( ( ( ( ( ( ( ( ( ( ( ( ( ( ( ! ! K E P ! ! ! ! ! ! ! ( ( ( ( ( ( ( ( ( ( ( ( ( ( ( ( ( ( ( ( ( ( ( ( ( ",
"( ( ( ( ( ( ( ( ( ( ( ( ( ( ( ( ( ( ( ( ( ( ( ( ( ) K ! ( R W P ( ! ! ( ! ! ( ( ( ( ) K ( ( ( ( ( ( ( ( ( ( ( ( ( ( ( ( ( ( ( ( ",
"( ( ( ( ( ( ( ( ( ( ( ( ( ( ( ( ( ( ( ( ( ( ( ( ( _ W J G U E _ ( ( ( ( ( ( ( ( ( ( K R ( ( ( ( ( ( ( ( ( ( ) ( ( ( ( ( ( ( ( ( ",
"( ( ( ( ( ( ( ( ( ( ( ( ( ( ( ( ( ( ( ( ( ( ( ( ( _ Q Q 7 U K ( ( ( ( ( ( ( ( ( ( ( K R ( ( ( ( ( ( ( ( ( ( ( ( ( ( ( ( ( ( ( ( "
};
