/* XPM */
static char *result[] = {
/* columns rows colors chars-per-pixel */
"64 64 142 2 ",
"   c #1B170D",
".  c #1C180E",
"X  c #22120E",
"o  c #261610",
"O  c #231A14",
"+  c #2D1D15",
"@  c #311E16",
"#  c #082C0D",
"$  c #0A310E",
"%  c #152310",
"&  c #1D2611",
"*  c #0C3510",
"=  c #0D3A12",
"-  c #103317",
";  c #123C15",
":  c #123B18",
">  c #292416",
",  c #2F2419",
"<  c #342117",
"1  c #342319",
"2  c #3A271C",
"3  c #3C2A1D",
"4  c #2C3018",
"5  c #173B23",
"6  c #272B24",
"7  c #2E2B22",
"8  c #342A21",
"9  c #392A20",
"0  c #283027",
"q  c #2A382F",
"w  c #30362C",
"e  c #3F3729",
"r  c #2B3C33",
"t  c #432C1F",
"y  c #452E20",
"u  c #473222",
"i  c #4B3323",
"p  c #493E2E",
"a  c #503625",
"s  c #543927",
"d  c #553B28",
"f  c #5A3E2A",
"g  c #0F4015",
"h  c #114417",
"j  c #1A4817",
"k  c #16411C",
"l  c #18441E",
"z  c #154B19",
"x  c #1A4B1A",
"c  c #1B531C",
"v  c #1E591E",
"b  c #23571E",
"n  c #235A1F",
"m  c #174720",
"M  c #194521",
"N  c #1C4D24",
"B  c #1D412B",
"V  c #225623",
"C  c #225C21",
"Z  c #295921",
"A  c #22522C",
"S  c #2D4137",
"D  c #2D453A",
"F  c #274C3B",
"G  c #364A38",
"H  c #265731",
"J  c #265931",
"K  c #295D34",
"L  c #39503B",
"P  c #256322",
"I  c #296624",
"U  c #2C6D26",
"Y  c #2E7228",
"T  c #317429",
"R  c #357B2C",
"E  c #397E2D",
"W  c #2D643B",
"Q  c #316A3E",
"!  c #5E402C",
"~  c #444233",
"^  c #62442E",
"/  c #654730",
"(  c #674831",
")  c #6B4B33",
"_  c #714F36",
"`  c #725137",
"'  c #755338",
"]  c #43763C",
"[  c #2D4D44",
"{  c #2E5245",
"}  c #2E5B40",
"|  c #305347",
" . c #3D5E47",
".. c #32574A",
"X. c #345C4C",
"o. c #336B41",
"O. c #37614E",
"+. c #377247",
"@. c #397247",
"#. c #3A7749",
"$. c #3B784C",
"%. c #396650",
"&. c #3C6C53",
"*. c #3F7055",
"=. c #406045",
"-. c #467B4F",
";. c #417E53",
":. c #447D5A",
">. c #3B822F",
",. c #3D8530",
"<. c #3F8931",
"1. c #40822F",
"2. c #438C33",
"3. c #479135",
"4. c #4A9637",
"5. c #4E9A39",
"6. c #519E3A",
"7. c #53A03B",
"8. c #448457",
"9. c #488457",
"0. c #46845A",
"q. c #48875E",
"w. c #498B5E",
"e. c #518650",
"r. c #568D53",
"t. c #5A9254",
"y. c #56955C",
"u. c #57995F",
"i. c #5C9C5D",
"p. c #649952",
"a. c #619F5C",
"s. c #67A157",
"d. c #6DA354",
"f. c #64A15B",
"g. c #6AA55A",
"h. c #6FA958",
"j. c #75AC56",
"k. c #7AB055",
"l. c #4C8E61",
"z. c #4D9262",
"x. c #529661",
"c. c #559860",
/* pixels */
"z.z.z.z.z.z.z.z.z.z.z.z.z.z.z.z.z.z.z.z.z.z.z.q.;.z.z.z.z.z.z.z.z.z.z.z.z.z.z.z.z.z.z.z.z.z.z.z.z.z.z.z.z.z.z.z.z.z.z.z.z.z.z.z.",
"z.z.z.z.z.z.z.z.z.z.z.z.z.z.z.z.z.z.z.z.z.z.z.l.w.z.z.z.z.z.z.z.z.z.z.z.z.z.z.z.z.z.z.z.z.z.z.z.z.z.z.z.z.z.z.z.z.z.z.z.z.z.z.z.",
"z.z.z.z.z.z.z.z.z.z.z.z.z.z.z.z.z.z.z.z.z.z.z.z.z.z.z.z.z.z.z.z.z.z.z.z.z.z.z.z.z.z.z.z.z.z.z.z.z.z.z.z.z.z.z.z.z.z.z.z.z.z.z.z.",
"z.z.z.z.z.z.z.z.z.z.z.z.z.z.z.z.z.z.z.z.z.z.z.z.z.z.z.z.z.i.c.z.z.z.z.z.z.z.z.z.z.z.z.z.z.z.z.z.z.z.z.z.z.z.z.z.z.z.z.z.z.z.z.z.",
"z.z.z.z.z.z.z.z.z.z.z.z.z.z.z.z.z.z.z.z.z.z.z.z.z.z.z.z.@.; : ; : ;.z.z.z.x.l.z.z.z.z.z.z.z.z.z.z.z.z.z.z.z.z.z.z.z.z.z.z.z.z.z.",
"z.z.z.z.z.z.z.z.z.z.z.z.z.z.z.z.z.z.z.z.z.z.$.$.$.;.w.K n 3.7.7.2.b h #.$.; j j Z ;.z.z.z.z.z.z.z.z.z.z.z.z.z.z.z.z.z.z.z.z.z.z.",
"z.z.z.z.z.z.z.z.z.z.z.z.z.z.z.z.z.z.z.z.z.+.x b b x Q I 3.7.7.7.6.7.3.Z x 2.6.6.4.Z ] o.o.;.z.z.z.z.z.z.z.z.z.z.z.z.z.z.z.z.z.z.",
"z.z.z.z.z.z.z.z.z.z.z.z.z.z.z.z.z.z.z.z.H C 3.7.6.2.T 1.6.7.7.7.7.7.7.6.E 7.7.7.7.1.; T Y V +.l.z.z.z.z.z.z.z.z.z.z.z.z.z.z.z.z.",
"z.z.z.z.z.z.z.z.z.z.z.z.z.z.z.z.z.z.z.z.= T 7.7.7.7.6.3.2.7.7.7.7.7.7.7.4.7.7.7.7.5.2.6.5.E b +.z.z.z.z.z.z.z.z.z.z.z.z.z.z.z.z.",
"z.z.z.z.z.z.z.z.z.z.z.z.z.z.z.z.w.A l : x c 5.7.7.7.7.7.5.7.7.7.7.7.7.7.7.7.7.7.7.7.7.7.6.2.b W q.z.z.z.z.z.z.z.z.z.z.z.z.z.z.z.",
"z.z.z.z.z.z.z.z.z.z.z.z.z.z.z.8.N T ,.P 5.6.,.7.7.7.7.7.7.7.7.7.7.7.7.7.7.7.7.7.7.7.7.7.5.T n ; o.x.z.z.z.z.z.z.z.z.z.z.z.z.z.z.",
"z.z.z.z.z.z.z.z.z.z.z.z.z.z.z.A I 5.5.2.6.6.7.7.7.7.7.7.7.7.7.7.7.7.7.7.7.7.7.7.7.7.7.7.2.>.7.U J q.z.z.z.z.z.z.z.z.z.z.z.z.z.z.",
"z.z.z.z.z.z.z.z.z.z.z.z.z.z.+.V ,.7.7.7.7.7.7.7.7.7.7.7.7.7.7.7.7.7.6.7.7.7.2.6.7.7.7.7.7.7.7.<.x $.x.z.z.z.z.z.z.z.z.z.z.z.z.z.",
"z.z.z.z.z.z.z.z.z.z.z.z.z.o.V T >.5.7.7.7.7.7.7.7.7.7.7.7.7.3.,.U R 5.2.P >.5.7.7.7.7.7.7.7.7.5.T N ;.z.z.z.z.z.z.z.z.z.z.z.z.z.",
"z.z.z.z.z.z.z.z.z.z.z.z.w.K n R E 5.7.7.7.7.7.7.7.7.7.7.7.7.7.7.2.C z h T E 7.7.7.7.7.7.7.7.7.7.2.; $.z.z.z.z.z.z.z.z.z.z.z.z.z.",
"z.z.z.z.z.z.z.z.z.z.z.z.o.c E E 3.7.7.7.7.7.7.7.7.7.7.7.7.7.7.7.6.7.2.v E 7.7.7.7.7.7.7.7.7.7.7.7.b Q w.z.z.z.z.z.z.z.z.z.z.z.z.",
"z.z.z.z.z.z.z.z.z.z.z.z.o.n 4.4.2.5.7.E 5.7.7.7.7.7.7.7.7.7.7.7.7.7.6.3.6.7.7.7.7.7.7.7.7.7.7.7.7.3.h 8.z.z.z.z.z.z.z.z.z.z.z.z.",
"z.z.z.z.z.z.z.z.z.z.z.z.o.n 4.7.<.>.Y z 4.6.7.7.7.7.7.7.7.7.7.7.7.7.7.7.7.7.7.7.7.7.7.7.7.7.7.7.7.7.j 8.z.z.z.z.z.z.z.z.z.z.z.z.",
"z.z.z.z.z.z.z.z.z.z.z.z.o.c E E E c z U 6.6.7.7.7.7.7.7.7.7.7.7.7.7.7.7.7.7.7.7.7.7.7.7.7.7.7.7.7.>.h 9.z.z.z.z.z.z.z.z.z.z.z.z.",
"z.z.z.z.z.z.z.z.z.z.z.z.w.J = z z z Y E R 6.7.7.7.7.7.7.7.7.7.7.7.7.7.7.7.7.7.7.7.7.7.7.7.7.7.7.7.j $.z.z.z.z.z.z.z.z.z.z.z.z.z.",
"z.z.z.z.z.z.z.z.z.z.z.8.A x I T v U 5.7.2.3.7.7.7.7.7.7.7.7.7.7.7.7.7.7.7.7.7.7.7.7.7.7.7.7.7.7.4.n J w.z.z.z.z.z.z.z.z.z.z.z.z.",
"z.z.z.z.z.z.z.z.z.z.z.o.h >.7.<.v U <.5.6.2.7.7.7.7.7.7.7.7.7.7.7.7.7.7.7.7.7.7.7.7.7.7.7.7.7.7.7.>.h H w.z.z.z.z.z.z.z.z.z.z.z.",
"z.z.z.z.z.z.z.z.z.z.;.x R 5.3.R v c Y 4.7.7.7.7.7.7.7.7.7.7.7.7.7.7.7.7.7.7.7.7.7.7.7.7.7.3.3.6.7.5.Y ; 8.z.z.z.z.z.z.z.z.z.z.z.",
"z.z.h.i.z.z.z.z.z.z.$.j 2.7.7.5.>.c U 4.7.7.7.7.5.<.7.7.7.7.7.7.7.7.7.7.7.7.7.7.7.7.7.7.3.E I ,.7.7.>.$ 8.z.z.z.z.z.z.z.z.z.u.k.",
"z.z.h.i.z.z.z.z.z.z.$.z R 6.7.7.5.>.U >.5.7.7.7.3.Y P 2.2.5.7.7.7.5.5.5.7.7.7.7.7.7.7.7.,.c c v T T U l w.z.z.z.z.z.z.z.i.g.y.k.",
"z.z.j.i.i.a.z.z.z.z.8.N x R 3.5.7.3.T z T 5.7.3.<.<.,.v c E 5.7.4.>.R 5.7.7.7.7.7.7.7.7.6.E E 7.3.R h 8.z.z.z.z.z.z.z.z.i.h.x.k.",
"z.z.h.i.f.g.z.z.z.z.z.o.$ c v Z E 5.7.2.z P <.>.7.7.6.3.T C Y <.E R 2.7.7.7.7.7.7.7.7.7.7.5.2.4.7.>.I A w.z.z.z.z.z.z.z.i.h.z.g.",
"z.z.f.u.f.f.z.z.z.z.z.8.W = v E U T 5.7.Y U R 5.7.7.7.7.5.,.Y E <.5.5.7.7.7.7.7.7.7.7.7.7.7.2.>.>.>.E $ 8.z.z.z.z.z.z.z.i.f.z.z.",
"z.z.z.z.f.g.z.z.z.z.z.w.W = Y 6.<.T T E c Y 5.7.6.6.7.7.7.6.<.2.6.7.7.7.7.7.7.7.7.7.6.6.6.5.<.R R R c $ $.z.z.z.z.z.z.z.z.z.z.z.",
"z.z.z.z.z.z.z.z.z.z.z.o.* z Y 2.4.T z v c U 4.3.,.6.7.7.7.2.R 2.5.7.7.7.7.7.7.7.6.6.5.<.<.Y P R R R c h # z.z.z.z.z.z.z.z.z.z.z.",
"z.z.z.z.z.z.z.z.z.z.z.o.= Y R P I c P 2.2.U R R 2.6.6.7.6.2.<.E <.7.3.6.7.E 7.7.5.5.6.E c R >.R >.P c g $ z.z.z.z.z.z.z.z.z.z.z.",
"z.z.z.z.z.z.z.z.z.z.z.o.x 2.6.E c h 2.6.7.7.3.>.6.5.2.7.5.5.6.5.3.5.4.U I U 7.5.2.2.<.>.R 6.5.>.T U c h # z.z.z.z.z.z.z.z.z.z.z.",
"z.z.z.z.z.z.z.z.z.z.z.o.= U ,.I z h v <.<.5.5.>.>.>.>.<.7.7.7.7.7.7.7.2.c R >.>.5.5.3.R >.3.6.<.R >.U z $ z.z.z.z.z.z.z.z.z.z.z.",
"z.z.z.z.z.z.z.z.z.z.z.z.#.= g h h Y P z z Y R R Y R >.>.>.<.7.7.7.7.7.7.E R >.5.6.7.3.R R Y Y >.v P Y = 8.z.z.z.z.z.z.z.z.z.z.z.",
"z.z.z.z.z.z.z.z.z.z.z.z.z.W = g C 4.6.P >.>.>.Y z Y <.7.3.>.4.7.7.7.7.7.<.R R U >.3.R P R P P U c h g k w.z.z.z.z.z.z.z.z.z.z.z.",
"z.z.z.z.z.z.z.z.z.z.z.z.z.$.N # * P <.<.6.<.>.<.C C 6.5.>.P T 7.7.7.3.7.6.R C h P v c R R R C h h = A l.z.z.z.z.z.z.z.z.z.z.z.z.",
"z.z.z.z.z.z.z.z.z.z.z.z.z.z.;.M * g c 3.7.Y <.7.<.U >.>.>.v P <.6.<.>.>.<.R P g = h c R U v x = * W 8.z.z.z.z.z.z.z.z.z.z.z.z.z.",
"z.z.z.z.z.z.z.z.z.z.z.z.z.z.z.A = h h z z U 7.7.6.Y v >.P P >.>.>.>.R >.c R Y g $ g h z z h z * } w.z.z.z.z.z.z.z.z.z.z.z.z.z.z.",
"z.z.z.z.z.z.z.z.z.z.z.z.z.z.z.z.J = h $ h U T Y U g $ g h P R >.Y c P T z h h g # # $ g g h = = +.z.z.z.z.z.z.z.z.z.z.z.z.z.z.z.",
"z.x.y.x.z.z.z.z.z.z.z.z.z.z.z.z.z.W A * h h h h g * # * h c P I z g h h h h = # # # # # $ = m $.z.z.z.z.z.z.z.z.z.z.z.z.z.z.z.z.",
"z.j.k.i.z.z.z.z.z.z.z.z.z.z.z.z.z.z.z.o.= = * = * # # # = z h h g # $ = = * & % B 5 # * B B } l.z.z.z.z.z.z.z.z.z.z.z.z.z.z.z.z.",
"z.z.h.k.f.i.k.j.z.z.z.z.z.z.z.z.z.z.z.z.$.{ F     , , 4 # $ $ $ - > > > > > , O ..{ F { ......O.:.z.z.z.z.z.z.z.z.z.z.z.z.z.z.z.",
"z.z.x.g.j.j.j.u.z.z.z.z.z.z.z.z.z.z.z.%.O.... / u 2 i i 3 , 3 u 3 1 < 1 i < 2 t 6  . ...........X.l.z.z.z.z.z.h.g.c.z.z.z.z.z.z.",
"z.z.z.y.d.h.r.z.z.z.z.z.z.z.z.z.z.l.X.....O ` ! 1 u u y u ! ' ^ s 2 2 s a 2 3 ^ 8 L =...........| :.l.z.z.z.z.f.j.g.c.c.f.i.z.z.",
"z.z.z.:.e.r.8.z.z.z.z.z.z.z.z.z.0.O.......O p + a _ f y i ` ' ' ! 9 u ` ! a 1 i f , G ..............0.l.z.z.z.z.s.k.g.h.j.f.z.z.",
"z.z.z.:.$.:.z.z.z.z.z.z.z.z.z.z.&.........S X ^ _ ! f t 2 ) ) ^ s / s _ ' a 1 2 / i + r ............l.z.z.z.z.z.z.s.j.j.f.z.z.z.",
"z.z.z.z.z.z.z.z.z.z.z.z.z.z.z.z.&.X.......7 ^ ` ` / i @ t _ _ f ! ' _ ' ' a 1 3 ^ _ d 6 ............:.l.z.z.z.z.z.$.p.t.8.z.z.z.",
"z.z.z.z.z.z.z.z.z.z.z.z.z.z.z.z.&.........O ` ` ` ) t @ f ' ' ^ ( u / ' _ ` u o 3 f ! 6 ..........| l.z.z.z.z.z.z.;.$.8.z.z.z.z.",
"z.z.z.z.z.z.z.z.z.z.z.z.z.z.z.z.&.X.......O ) ) ( y + u ' ' _ _ a + y ( f ' ) @ + p e q ............l.l.z.z.z.z.z.l.l.l.l.z.z.z.",
"z.z.z.z.z.z.z.z.z.z.z.z.z.z.z.z.&.........0 ~ ~ ~ 7 @ / ' ) f ! y o + a ` ' ' _ 8 S ..............%.l.l.z.z.z.z.z.l.z.z.z.z.z.z.",
"z.z.z.z.z.z.z.z.z.z.z.z.z.z.z.z.0.X...............D 1 ' ' ^ a y + o o i f ' ` ` a O ..............l.l.l.z.z.z.z.z.z.z.z.z.z.z.z.",
"z.z.z.z.z.z.z.z.z.z.z.z.z.z.z.z.z.%...............S @ f f d a 3 w D D @ i f f d y 6 ............&.l.z.l.z.z.z.z.z.z.z.z.z.z.z.z.",
"z.z.z.z.z.z.z.z.z.z.z.z.z.z.z.z.z.z.O...........................................................:.l.z.z.z.z.z.z.z.z.z.z.z.z.z.z.",
"z.z.z.z.z.z.z.z.z.z.z.z.z.z.z.z.z.z.*.X.....................................[ | ............X.l.z.z.z.z.z.z.z.z.z.z.z.z.z.z.z.z.",
"z.z.z.z.z.z.z.z.z.z.z.z.z.z.z.z.z.z.z.:.X.................................[ | [ | ......| %.0.z.z.z.z.z.z.z.z.z.z.z.z.z.z.z.z.z.",
"z.z.z.z.z.z.z.z.z.z.z.z.z.z.z.z.z.z.z.z.:.X...| ..........................[ [ | | ....%.:.l.l.z.z.z.z.z.z.z.z.z.z.z.z.z.z.z.z.z.",
"z.z.z.z.z.z.z.z.z.z.z.z.z.z.z.z.z.z.z.z.z.l.l.l.q.....................l.l.l.[ | ..%.l.l.z.z.z.z.z.z.z.z.z.z.z.z.z.z.z.z.z.z.z.z.",
"z.z.z.z.z.z.z.z.z.z.z.z.z.z.z.z.z.z.z.z.z.l.z.z.l.z.z.z.z.z.z.z.z.z.z.z.l.l.l.l.z.z.z.z.z.z.z.z.z.z.z.z.z.z.z.z.z.z.z.z.z.z.z.z.",
"z.z.z.z.z.z.z.z.z.z.z.z.z.z.z.z.z.z.z.z.z.z.z.z.z.z.z.z.z.z.z.z.z.z.z.z.z.z.z.z.z.z.z.z.z.z.z.z.z.z.z.z.z.z.z.z.z.z.z.z.z.z.z.z.",
"z.z.z.z.z.z.z.z.z.z.z.z.z.z.z.z.z.z.z.z.z.z.z.z.z.z.z.z.z.z.z.z.a.f.z.z.z.z.z.z.z.z.z.z.z.z.z.z.z.z.z.z.z.z.z.z.z.z.z.z.z.z.z.z.",
"z.z.z.z.z.z.z.z.z.z.z.z.z.z.z.z.z.z.z.z.z.z.z.z.z.z.z.z.z.z.z.z.f.j.a.z.z.x.z.z.z.z.z.z.z.z.z.z.z.z.z.z.z.z.z.z.z.z.z.z.z.z.z.z.",
"z.z.z.z.z.z.z.z.z.z.z.z.z.z.z.z.z.z.z.z.c.x.z.z.z.z.z.z.z.z.z.z.f.k.h.x.z.c.x.z.z.z.z.z.z.z.z.z.z.z.z.z.z.z.z.z.z.z.z.z.z.z.z.z.",
"z.z.z.z.z.z.z.z.z.z.z.z.z.z.z.z.z.z.z.z.j.i.z.z.z.z.z.z.z.z.z.z.c.j.h.w.c.k.x.z.z.z.z.z.z.z.z.z.z.z.z.z.z.z.z.z.z.z.z.z.z.z.z.z.",
"z.z.z.z.z.z.z.z.z.z.z.z.z.z.z.z.z.z.z.x.h.i.z.z.z.z.z.z.z.z.z.z.z.a.p.-.k.k.x.z.z.z.z.z.z.z.z.z.z.z.z.z.z.z.z.z.z.z.z.z.z.z.z.z."
};
